<svg width="134" height="26" viewBox="0 0 134 26" fill="none" xmlns="http://www.w3.org/2000/svg">
<path d="M0.0253906 25.7817V7.21428H9.04326C9.90799 7.21428 10.7727 7.33564 11.3904 7.6997C12.1316 7.94241 12.7492 8.42784 13.2434 8.91326C13.7375 9.39868 14.1081 10.0055 14.3552 10.855C14.6022 11.5831 14.7258 12.4326 14.7258 13.2821C14.7258 14.1316 14.6022 14.981 14.3552 15.7092C14.1081 16.4373 13.7375 17.0441 13.2434 17.5295C12.7492 18.0149 12.1316 18.5004 11.3904 18.7431C10.6492 18.9858 9.90799 19.2285 9.04326 19.2285H4.2255V25.7817H0.0253906ZM4.10196 15.5878H8.4256C9.04326 15.5878 9.53739 15.4665 9.90799 15.1024C10.2786 14.7383 10.4021 14.3743 10.4021 13.7675V12.5539C10.4021 11.9472 10.2786 11.4617 9.90799 11.219C9.53739 10.8549 9.04326 10.7336 8.4256 10.7336H4.10196V15.5878Z" fill="black"/>
<path d="M17.8145 25.7817V7.21428H30.7854V10.855H22.0145V14.617H29.55V18.2576H22.0145V22.2624H30.7854V25.9031H17.8145V25.7817Z" fill="black"/>
<path d="M34.3682 7.21428H38.4447V22.2624H44.1272V7.21428H48.2038V22.2624H53.8863V7.21428H57.9629V25.7817H34.1211V7.21428H34.3682Z" fill="black"/>
<path d="M62.2871 25.7817V7.21428H75.1345V10.855H66.3637V14.617H73.8992V18.2576H66.3637V22.2624H75.1345V25.9031H62.2871V25.7817Z" fill="black"/>
<path d="M90.2029 18.2576H82.9145V25.7817H78.8379V7.21428H82.9145V14.617H90.2029V7.21428H94.2794V25.7817H90.2029V18.2576Z" fill="black"/>
<path d="M98.4805 7.21428H102.557V16.316L102.063 20.1993H102.186L104.039 16.68L110.34 7.21428H114.046V25.7817H109.969V16.68L110.463 12.7966H110.34L108.487 16.316L102.186 25.7817H98.4805V7.21428Z" fill="black"/>
<path d="M118.123 7.21428H122.2V16.316L121.705 20.1993H121.829L123.682 16.68L129.982 7.21428H133.688V25.7817H129.612V16.68L130.106 12.7966H129.982L128.129 16.316L121.829 25.7817H118.123V7.21428ZM125.906 6.12208C124.67 6.12208 123.682 5.87936 122.941 5.39394C122.2 4.90852 121.582 4.18038 121.211 3.20954L120.594 1.87463L123.682 0.782425L124.547 3.45225C124.67 3.45225 124.794 3.57361 125.041 3.57361C125.288 3.57361 125.535 3.57361 125.782 3.57361C126.029 3.57361 126.276 3.57361 126.523 3.57361C126.77 3.57361 126.894 3.45225 127.017 3.45225L127.882 0.782425L130.97 1.87463L130.353 3.20954C129.982 4.18038 129.364 4.90852 128.623 5.39394C128.129 5.87936 127.141 6.12208 125.906 6.12208Z" fill="black"/>
</svg>
