<svg width="20" height="21" viewBox="0 0 20 21" xmlns="http://www.w3.org/2000/svg">
<path d="M14.6781 12.932C15.8884 11.2802 16.4305 9.23224 16.1959 7.19785C15.9613 5.16347 14.9673 3.29269 13.4128 1.95979C11.8583 0.626891 9.85794 -0.0698281 7.81187 0.00902145C5.76581 0.087871 3.82496 0.936474 2.37762 2.38506C0.930277 3.83364 0.0831823 5.77537 0.00580795 7.82177C-0.0715664 9.86818 0.626485 11.8683 1.96031 13.4221C3.29413 14.9759 5.16536 15.9687 7.19963 16.2018C9.23389 16.435 11.2812 15.8914 12.9319 14.6797H12.9306C12.9681 14.7297 13.0081 14.7772 13.0531 14.8235L17.8654 19.6364C18.0998 19.871 18.4178 20.0029 18.7493 20.003C19.0809 20.0031 19.399 19.8715 19.6335 19.6371C19.8681 19.4027 19.9999 19.0847 20 18.7531C20.0001 18.4214 19.8685 18.1033 19.6341 17.8688L14.8218 13.0558C14.7771 13.0105 14.7291 12.9687 14.6781 12.9308V12.932ZM15.0006 8.12651C15.0006 9.02944 14.8227 9.92353 14.4773 10.7577C14.1318 11.5919 13.6254 12.3499 12.987 12.9884C12.3486 13.6268 11.5907 14.1333 10.7567 14.4788C9.92258 14.8244 9.02862 15.0022 8.12582 15.0022C7.22301 15.0022 6.32905 14.8244 5.49497 14.4788C4.66089 14.1333 3.90302 13.6268 3.26464 12.9884C2.62626 12.3499 2.11987 11.5919 1.77438 10.7577C1.4289 9.92353 1.25108 9.02944 1.25108 8.12651C1.25108 6.30296 1.97538 4.5541 3.26464 3.26465C4.55391 1.97521 6.30252 1.2508 8.12582 1.2508C9.94911 1.2508 11.6977 1.97521 12.987 3.26465C14.2763 4.5541 15.0006 6.30296 15.0006 8.12651Z"/>
</svg>
