<svg width="519" height="357" viewBox="0 0 519 357" fill="none" xmlns="http://www.w3.org/2000/svg">
<g clip-path="url(#clip0_392_1079)">
<path d="M502.387 271.652H491.564V351.919H502.387V271.652Z" fill="white"/>
<path d="M504.472 354.01H489.474V269.562H504.472V354.01ZM493.645 349.833H500.292V273.743H493.645V349.833Z" fill="black"/>
<path d="M457.373 247.408H446.55V334.093H457.373V247.408Z" fill="white"/>
<path d="M459.538 336.263H444.375V245.237H459.538V336.263ZM448.711 331.922H455.193V249.578H448.711V331.922Z" fill="black"/>
<path d="M468.647 246.089L163.994 249.145C163.952 249.145 163.938 249.192 163.971 249.211L211.946 274.473H211.97L516.787 271.53C516.83 271.53 516.849 271.483 516.787 271.464L468.671 246.094L468.647 246.089Z" fill="white"/>
<path d="M468.647 246.089L163.994 249.145C163.952 249.145 163.938 249.192 163.971 249.211L211.946 274.473H211.97L516.787 271.53C516.83 271.53 516.849 271.483 516.787 271.464L468.671 246.094L468.647 246.089Z" fill="white"/>
<path d="M211.513 276.37L211.042 276.14L161.777 250.2L162.102 248.731C162.203 248.314 162.44 247.942 162.776 247.675C163.112 247.408 163.527 247.261 163.956 247.257L468.591 244.201H469.062L469.532 244.418L519.014 270.494L518.689 271.963C518.588 272.38 518.351 272.752 518.015 273.019C517.679 273.286 517.263 273.433 516.834 273.437L211.513 276.37ZM171.357 250.944L212.426 272.566L509.443 269.698L468.205 247.963L171.357 250.944Z" fill="black"/>
<g opacity="0.3">
<path opacity="0.3" d="M232.217 135.678C236.073 135.678 239.199 117.337 239.199 94.7131C239.199 72.0889 236.073 53.7484 232.217 53.7484C228.362 53.7484 225.236 72.0889 225.236 94.7131C225.236 117.337 228.362 135.678 232.217 135.678Z" fill="#B0BBFF"/>
</g>
<g opacity="0.5">
<path opacity="0.5" d="M227.693 81.9858L236.063 115.987L235.72 118.92L235.188 123.991L227.354 94.925L227.27 86.8263L227.693 81.9858Z" fill="white"/>
</g>
<g opacity="0.5">
<path opacity="0.5" d="M229.873 58.2828L237.085 76.7405L237.188 79.0477L236.557 84.4484L228.154 64.9314L228.371 61.4894L229.873 58.2828Z" fill="white"/>
</g>
<path d="M232.217 137.797C228.978 137.797 226.813 133.559 225.189 124.038C223.852 116.184 223.117 105.774 223.117 94.7132C223.117 83.6527 223.852 73.242 225.189 65.3928C226.813 55.8721 228.978 51.6296 232.217 51.6296C235.456 51.6296 237.621 55.8674 239.241 65.3928C240.582 73.242 241.317 83.6574 241.317 94.7132C241.317 105.769 240.582 116.184 239.241 124.038C237.621 133.554 235.451 137.797 232.217 137.797ZM232.217 56.1828C230.372 58.8196 227.354 71.7447 227.354 94.7132C227.354 117.682 230.372 130.607 232.217 133.244C234.062 130.607 237.08 117.682 237.08 94.7132C237.08 71.7447 234.062 58.8196 232.217 56.1828Z" fill="#172991"/>
<path d="M336.608 93.0368V150.284L326.205 167.404C325.787 167.991 325.3 168.525 324.755 168.996L307.337 183.249L301.744 189.12C299.751 191.211 297.333 192.851 294.654 193.929C291.974 195.007 289.094 195.497 286.209 195.368L246.632 195.948L227.203 206.363L202.498 260.314L151.439 314.717L142.452 350.883H103.191L116.763 297.229C116.919 296.59 116.86 295.917 116.596 295.314C116.331 294.712 115.875 294.213 115.299 293.896C113.439 292.855 112.427 291.24 109.744 291.042C91.4594 289.719 70.3837 284.671 53.3375 278.004C36.9503 271.596 22.5683 260.851 7.40977 251.636C6.32702 245.044 5.24263 238.452 4.15674 231.86C22.9401 231.86 41.5305 233.743 60.3139 233.743C73.7823 233.743 87.4393 231.931 100.908 231.945L140.673 194.657L140.202 131.238C140.16 125.437 140.513 120.85 144.693 107.327L151.91 93.0085C158.501 81.8021 172.153 74.4426 185.136 73.7551H242.273L336.608 93.0368Z" fill="white"/>
<path d="M145.216 354.415H98.6576L113.251 296.782C112.68 296.425 112.13 296.037 111.604 295.619C110.615 294.865 110.266 294.621 109.509 294.564C91.436 293.255 69.9646 288.292 52.0757 281.295C39.6899 276.45 28.3731 269.161 17.4232 262.117C13.563 259.631 9.56618 257.055 5.59766 254.64L4.21342 253.797L0.0239258 228.328H4.18538C13.6618 228.328 23.2088 228.799 32.431 229.27C41.5732 229.741 51.026 230.212 60.3282 230.212H60.479C67.0697 230.212 73.8298 229.741 80.3875 229.322C86.6534 228.898 93.0979 228.47 99.5191 228.418L137.147 193.141L136.676 131.266C136.634 125.408 136.93 120.502 141.323 106.31L141.407 106.028L148.841 91.2428C155.765 79.4714 170.265 71.0289 184.925 70.252H242.612L340.149 90.1551V151.273L329.091 169.452C328.51 170.271 327.832 171.015 327.071 171.67L327.005 171.727L309.77 185.852L304.319 191.536C301.991 193.981 299.167 195.901 296.038 197.167C292.908 198.434 289.545 199.018 286.171 198.881L247.569 199.446L229.948 208.896L205.478 262.306L154.636 316.454L145.216 354.415ZM107.729 347.352H139.694L148.238 312.979L199.551 258.327L224.502 203.825L245.728 192.44L286.275 191.842H286.378C288.761 191.95 291.139 191.547 293.352 190.657C295.565 189.768 297.562 188.413 299.206 186.686L304.95 180.659L322.481 166.298C322.77 166.045 323.032 165.762 323.263 165.455L333.078 149.3V95.9184L241.891 77.3101H185.207C172.887 77.9929 160.765 84.9757 154.989 94.7319L147.956 108.665C143.935 121.717 143.672 125.903 143.719 131.219L144.227 196.197L102.329 235.495H100.781C94.1899 235.495 87.4298 235.966 80.8721 236.385C74.1449 236.856 67.1823 237.327 60.3374 237.294C50.861 237.294 41.3187 236.823 32.0918 236.352C24.3101 235.961 16.3025 235.556 8.35603 235.438L10.6629 249.465C14.2407 251.669 17.7997 253.962 21.2551 256.189C31.9084 263.045 42.9101 270.136 54.6791 274.727C71.9466 281.484 92.6508 286.268 110.05 287.529C112.95 287.741 114.673 289.06 115.93 290.02C116.293 290.314 116.675 290.583 117.074 290.825C118.326 291.524 119.314 292.615 119.886 293.93C120.458 295.246 120.581 296.712 120.237 298.105L107.729 347.352Z" fill="black"/>
<path d="M151.006 230.697C157.959 228.216 165.991 228.931 170.816 229.798C183.625 232.095 187.73 238.273 190.023 240.604C192.125 242.807 193.972 245.239 195.531 247.855C199.339 253.953 201.048 256.053 202.507 262.452C203.317 266.016 206.579 268.389 205.332 279.459C203.279 297.352 200.107 302.63 196.359 315.772L223.97 315.72C233.131 316.167 243.271 317.099 246.877 332.539C247.133 333.655 247.26 334.798 247.254 335.943V352.131L142.471 350.884L153.016 313.017L115.299 293.877" fill="white"/>
<path d="M250.765 355.705L137.82 354.359L148.836 314.901L113.698 297.069L116.918 290.746L157.215 311.2L147.089 347.39L243.704 348.539V335.943C243.71 335.07 243.615 334.2 243.421 333.349C240.526 321.012 233.799 319.741 223.866 319.251L191.661 319.313L192.946 314.802C193.996 311.11 194.989 308.083 195.945 305.159C198.412 297.625 200.36 291.659 201.801 279.059C202.629 271.841 201.392 269.067 200.299 266.624C199.773 265.54 199.36 264.406 199.066 263.238C197.922 258.238 196.745 256.373 193.888 251.876C193.469 251.212 193.017 250.501 192.532 249.724L192.405 249.522C191.009 247.198 189.362 245.035 187.495 243.071C187.17 242.742 186.84 242.379 186.497 241.988C184.176 239.408 180.297 235.085 170.19 233.273C166.235 232.566 158.637 231.719 152.192 234.021L149.815 227.368C157.818 224.543 166.791 225.485 171.432 226.323C183.931 228.564 189.02 234.228 191.75 237.27C192.042 237.6 192.301 237.887 192.541 238.132C194.771 240.459 196.735 243.027 198.398 245.788L198.52 245.986C198.991 246.744 199.438 247.441 199.852 248.095C202.771 252.7 204.536 255.483 205.944 261.67C206.147 262.383 206.413 263.076 206.739 263.742C208.057 266.689 209.861 270.725 208.815 279.859C207.29 293.175 205.139 299.748 202.653 307.353C202.14 308.925 201.618 310.522 201.081 312.231L224.026 312.188H224.115C232.81 312.612 245.949 313.248 250.289 331.729C250.607 333.11 250.765 334.522 250.76 335.939L250.765 355.705Z" fill="black"/>
<path d="M221.267 259.81C221.018 259.79 220.776 259.712 220.561 259.584C220.346 259.455 220.164 259.279 220.027 259.069C219.891 258.859 219.804 258.621 219.774 258.372C219.744 258.123 219.772 257.871 219.855 257.635L221.239 253.623C223.051 248.378 226.549 244.276 231.083 242.073C234.802 240.239 238.876 239.24 243.021 239.144L254.263 238.96C261.128 238.976 267.922 240.344 274.258 242.987C280.595 245.629 286.348 249.495 291.19 254.362L294.763 257.978C294.9 258.117 294.996 258.291 295.038 258.482C295.08 258.672 295.067 258.871 295 259.054C294.933 259.237 294.816 259.398 294.661 259.517C294.507 259.636 294.321 259.708 294.127 259.725C283.121 260.752 232.203 260.775 221.267 259.81Z" fill="white"/>
<path d="M293.543 263.007H222.199C221.55 263.007 220.912 262.836 220.35 262.511C219.787 262.186 219.321 261.719 218.997 261.156C218.673 260.593 218.503 259.955 218.504 259.305C218.505 258.655 218.677 258.018 219.003 257.456L221.022 251.608C222.83 246.362 226.328 242.257 230.861 240.058C234.582 238.224 238.658 237.225 242.805 237.129L254.046 236.945C260.911 236.959 267.705 238.326 274.04 240.969C280.376 243.612 286.128 247.478 290.968 252.347L295.911 257.338C296.365 257.805 296.673 258.396 296.795 259.036C296.917 259.676 296.849 260.338 296.598 260.94C296.347 261.542 295.926 262.057 295.385 262.421C294.845 262.785 294.209 262.982 293.557 262.988L293.543 263.007ZM223.691 258.299H290.238L287.626 255.657C278.823 246.758 266.597 241.654 254.084 241.183L242.842 241.367C239.411 241.861 236.069 242.847 232.919 244.295C229.567 245.92 226.85 249.145 225.471 253.143L223.691 258.299Z" fill="black"/>
<path d="M276.67 243.424L272.001 244.022L274.035 259.902L278.704 259.303L276.67 243.424Z" fill="black"/>
<path d="M211.583 195.138L223.089 215.385L253.999 215.526L268.461 216.19C276.591 217.179 284.17 216.929 288.299 229.572C288.854 231.281 289.97 236.743 289.113 237.736C278.691 249.79 277.928 248.246 274.713 248.265L261.352 243.434C258.302 242.311 255.095 241.675 251.848 241.55C246.354 241.37 240.861 241.93 235.517 243.217L229.195 244.743L206.834 239.587L187.283 213.628" fill="white"/>
<path d="M276.275 251.806C276.021 251.806 275.762 251.806 275.494 251.806C275.226 251.806 274.991 251.777 274.732 251.782H274.101L260.152 246.739C257.452 245.742 254.611 245.178 251.735 245.068C246.558 244.898 241.382 245.425 236.346 246.636L229.214 248.349L204.805 242.746L184.477 215.757L190.126 211.519L208.905 236.446L229.186 241.103L234.703 239.775C240.355 238.418 246.165 237.827 251.975 238.019C255.592 238.153 259.165 238.857 262.562 240.105L275.372 244.738L275.842 244.762C276.831 244.813 276.935 244.818 277.824 244.196C279.477 243.048 282.118 240.378 285.888 236.046C285.765 234.224 285.45 232.42 284.947 230.664C281.863 221.219 277.165 220.701 270.057 219.919L268.174 219.707L253.91 219.039L221.027 218.888L208.509 196.885L214.629 193.391L225.132 211.844L254.145 211.98L268.871 212.663C269.52 212.743 270.165 212.814 270.805 212.884C278.46 213.727 287.136 214.678 291.636 228.456C292.119 230.077 292.478 231.733 292.71 233.409C293.181 236.78 292.917 238.697 291.768 240.025C283.252 249.922 280.366 251.806 276.275 251.806Z" fill="black"/>
<path d="M302.714 123.845L298.43 114.31L244.702 100.18L246.5 93.3477L303.486 108.335L309.154 120.949L302.714 123.845Z" fill="black"/>
<path d="M301.127 187.26L291.222 164.687L265.801 179.161L256.569 153.236L226.949 147.765L215.754 136.351L220.796 131.402L230.428 141.224L261.856 147.03L269.628 168.854L294.541 154.677L307.595 184.426L301.127 187.26Z" fill="black"/>
<path d="M231.412 181.13L225.208 145.095L232.17 143.894L236.143 166.985L256.791 147.558L261.63 152.704L231.412 181.13Z" fill="black"/>
<path d="M202.71 126.086C196.361 126.079 190.274 123.553 185.785 119.063C181.295 114.572 178.77 108.484 178.762 102.134C178.767 96.5753 180.703 91.1911 184.237 86.9016L185.433 85.4561L222.84 89.0911L223.71 90.8474C224.6 92.6414 226.671 97.3358 226.671 102.148C226.66 108.498 224.131 114.585 219.639 119.073C215.147 123.56 209.059 126.083 202.71 126.086ZM188.587 92.8485C186.776 95.6066 185.81 98.8341 185.809 102.134C185.814 106.614 187.597 110.909 190.766 114.076C193.934 117.243 198.23 119.022 202.71 119.024C207.187 119.019 211.479 117.238 214.644 114.071C217.81 110.905 219.591 106.612 219.596 102.134C219.493 99.9306 218.997 97.7635 218.132 95.7349L188.587 92.8485Z" fill="black"/>
<path d="M212.365 113.952C218.311 113.952 223.131 109.131 223.131 103.184C223.131 97.2365 218.311 92.4153 212.365 92.4153C206.419 92.4153 201.599 97.2365 201.599 103.184C201.599 109.131 206.419 113.952 212.365 113.952Z" fill="black"/>
<g opacity="0.3">
<path opacity="0.3" d="M224.675 131.967C228.531 131.967 231.657 113.627 231.657 91.0028C231.657 68.3786 228.531 50.0381 224.675 50.0381C220.82 50.0381 217.694 68.3786 217.694 91.0028C217.694 113.627 220.82 131.967 224.675 131.967Z" fill="#9FAFFF"/>
</g>
<path d="M224.676 134.091C221.437 134.091 219.271 129.853 217.647 120.333C216.31 112.479 215.571 102.068 215.571 91.0075C215.571 79.947 216.31 69.5363 217.647 61.6871C219.271 52.1617 221.427 47.924 224.676 47.924C227.924 47.924 230.08 52.1617 231.699 61.6871C233.041 69.5363 233.776 79.9517 233.776 91.0075C233.776 102.063 233.041 112.479 231.699 120.333C230.08 129.853 227.91 134.091 224.676 134.091ZM224.676 52.4819C222.83 55.1187 219.808 68.0202 219.808 91.0075C219.808 113.995 222.83 126.901 224.676 129.538C226.516 126.901 229.539 113.999 229.539 91.0075C229.539 68.0155 226.516 55.114 224.676 52.4771V52.4819Z" fill="#172991"/>
<path d="M135.603 117.004L131.592 115.633L136.69 100.684C137.222 99.125 138.2 97.7566 139.502 96.7481C140.804 95.7396 142.373 95.1352 144.015 95.0099L216.852 89.3125L217.181 93.5502L144.345 99.2476C143.529 99.3117 142.75 99.6135 142.104 100.116C141.458 100.618 140.974 101.298 140.71 102.073L135.603 117.004Z" fill="#172991"/>
<path d="M382.489 231.493L389.145 233.847C389.535 233.986 389.954 234.029 390.364 233.972C390.775 233.916 391.166 233.761 391.504 233.522C391.843 233.283 392.119 232.967 392.31 232.599C392.5 232.231 392.601 231.822 392.601 231.408V3.41373C392.6 3.21364 392.543 3.01778 392.435 2.84902C392.328 2.68026 392.175 2.54556 391.993 2.46065C391.812 2.37573 391.611 2.34411 391.412 2.36947C391.214 2.39482 391.027 2.47612 390.873 2.60385L381.877 10.0622C381.447 10.4151 381.102 10.8586 380.864 11.3608C380.626 11.8631 380.503 12.4118 380.502 12.9674L379.561 227.345C379.558 228.254 379.838 229.143 380.363 229.886C380.887 230.629 381.63 231.191 382.489 231.493Z" fill="#2C39F2"/>
<path d="M390.006 236.357C389.445 236.356 388.888 236.261 388.359 236.074L381.702 233.72C380.387 233.251 379.249 232.385 378.446 231.243C377.642 230.1 377.213 228.737 377.216 227.34L378.157 12.9627C378.159 12.0623 378.36 11.1736 378.745 10.3597C379.13 9.54579 379.69 8.82685 380.384 8.2541L389.38 0.795706C389.875 0.377377 390.481 0.110517 391.124 0.0270189C391.766 -0.0564792 392.42 0.0469162 393.005 0.324847C393.593 0.597273 394.09 1.03276 394.437 1.57952C394.784 2.12627 394.967 2.76127 394.964 3.40897V231.413C394.962 232.724 394.44 233.982 393.513 234.909C392.585 235.836 391.327 236.357 390.016 236.357H390.006ZM383.275 229.294L389.931 231.648C389.967 231.663 390.005 231.669 390.044 231.664C390.082 231.659 390.118 231.644 390.148 231.62C390.18 231.599 390.205 231.57 390.222 231.536C390.24 231.502 390.248 231.465 390.247 231.427V6.17761L383.369 11.875C383.205 12.0079 383.073 12.1759 382.983 12.3666C382.892 12.5573 382.845 12.7658 382.846 12.9768L381.905 227.354C381.904 227.774 382.034 228.185 382.276 228.529C382.518 228.872 382.86 229.133 383.256 229.275L383.275 229.294Z" fill="black"/>
<path d="M405.495 123.784L457.415 260.855C457.57 261.275 457.622 261.725 457.568 262.169C457.513 262.613 457.352 263.037 457.099 263.406C456.846 263.775 456.509 264.078 456.115 264.29C455.721 264.501 455.282 264.615 454.835 264.622L394.394 265.38C393.53 265.391 392.678 265.179 391.92 264.763C391.162 264.347 390.525 263.742 390.069 263.007C389.614 262.272 389.356 261.432 389.321 260.569C389.287 259.705 389.475 258.847 389.87 258.077C390.688 256.485 391.93 255.149 393.458 254.216C394.986 253.283 396.742 252.79 398.532 252.79H434.969C435.417 252.79 435.857 252.682 436.255 252.477C436.652 252.271 436.994 251.973 437.252 251.608C437.51 251.242 437.677 250.82 437.739 250.377C437.8 249.934 437.754 249.482 437.605 249.06L405.495 158.02" fill="white"/>
<path d="M394.343 267.754C393.08 267.754 391.839 267.43 390.737 266.812C389.636 266.194 388.712 265.303 388.055 264.225C387.397 263.147 387.028 261.918 386.982 260.655C386.937 259.393 387.217 258.141 387.795 257.018C388.806 255.038 390.346 253.376 392.244 252.218C394.142 251.059 396.323 250.449 398.547 250.454H434.983C435.054 250.454 435.124 250.438 435.187 250.405C435.25 250.373 435.304 250.326 435.345 250.268C435.386 250.211 435.413 250.144 435.423 250.074C435.433 250.004 435.426 249.932 435.403 249.866L403.287 158.802L407.727 157.238L439.861 248.298C440.135 249.075 440.218 249.906 440.105 250.722C439.991 251.538 439.683 252.315 439.207 252.988C438.731 253.66 438.102 254.209 437.37 254.587C436.638 254.966 435.826 255.163 435.002 255.163H398.566C397.208 255.159 395.875 255.532 394.716 256.239C393.557 256.946 392.616 257.961 391.998 259.17C391.787 259.578 391.686 260.034 391.704 260.493C391.722 260.952 391.858 261.398 392.1 261.789C392.342 262.179 392.681 262.5 393.084 262.72C393.487 262.94 393.94 263.052 394.399 263.045L454.835 262.287C454.907 262.289 454.979 262.272 455.042 262.238C455.106 262.204 455.159 262.154 455.198 262.094C455.239 262.035 455.264 261.968 455.272 261.897C455.28 261.827 455.271 261.755 455.245 261.689L403.306 124.617L407.708 122.946L459.633 260.022C459.926 260.796 460.028 261.63 459.93 262.452C459.832 263.274 459.538 264.061 459.072 264.745C458.606 265.429 457.982 265.991 457.253 266.383C456.523 266.775 455.71 266.985 454.883 266.995L394.441 267.754H394.343Z" fill="black"/>
<path d="M405.175 34.1184H392.94C392.755 34.1184 392.605 34.2681 392.605 34.4527V205.435C392.605 205.62 392.755 205.77 392.94 205.77H405.175C405.359 205.77 405.509 205.62 405.509 205.435V34.4527C405.509 34.2681 405.359 34.1184 405.175 34.1184Z" fill="white"/>
<path d="M405.17 208.124H392.93C392.216 208.123 391.532 207.839 391.028 207.334C390.523 206.829 390.239 206.145 390.237 205.431V34.4573C390.239 33.7434 390.523 33.0591 391.028 32.5543C391.532 32.0494 392.216 31.7653 392.93 31.764H405.17C405.884 31.7653 406.568 32.0494 407.073 32.5543C407.577 33.0591 407.862 33.7434 407.863 34.4573V205.431C407.862 206.145 407.577 206.829 407.073 207.334C406.568 207.839 405.884 208.123 405.17 208.124ZM394.955 203.415H403.141V36.4726H394.94L394.955 203.415Z" fill="black"/>
<path d="M236.783 276.356H225.96V354.933H236.783V276.356Z" fill="white"/>
<path d="M238.846 357H223.89V274.289H238.846V357ZM228.018 352.866H234.707V278.423H228.018V352.866Z" fill="black"/>
</g>
<defs>
<clipPath id="clip0_392_1079">
<rect width="519" height="357" fill="white"/>
</clipPath>
</defs>
</svg>
