<svg width="1440" height="287" viewBox="0 0 1440 287" fill="none" xmlns="http://www.w3.org/2000/svg">
<path d="M150.64 188.99H0V187.99H150.64C153.96 187.99 156.66 185.29 156.66 181.97V106.35C156.66 102.9 159.47 100.08 162.93 100.08H298.25C301.57 100.08 304.27 97.3802 304.27 94.0602V55.6902C304.27 51.8202 307.42 48.6702 311.29 48.6702H558.52V49.6702H311.29C307.97 49.6702 305.27 52.3702 305.27 55.6902V94.0602C305.27 97.9302 302.12 101.08 298.25 101.08H162.92C160.02 101.08 157.65 103.44 157.65 106.35V181.97C157.66 185.84 154.51 188.99 150.64 188.99Z" fill="black"/>
<path d="M437.53 167.77L254.73 165.94C250.89 165.84 247.88 162.76 247.88 158.92V100.59H248.88V158.92C248.88 162.21 251.46 164.85 254.74 164.94L437.54 166.77L437.53 167.77Z" fill="black"/>
<path d="M97.94 197.43C102.877 197.43 106.88 193.427 106.88 188.49C106.88 183.553 102.877 179.55 97.94 179.55C93.0026 179.55 89 183.553 89 188.49C89 193.427 93.0026 197.43 97.94 197.43Z" fill="black"/>
<path d="M248.38 109.53C253.317 109.53 257.32 105.528 257.32 100.59C257.32 95.6527 253.317 91.6501 248.38 91.6501C243.443 91.6501 239.44 95.6527 239.44 100.59C239.44 105.528 243.443 109.53 248.38 109.53Z" fill="black"/>
<path d="M342.95 179.55C351.72 179.55 358.83 172.44 358.83 163.67C358.83 154.9 351.72 147.79 342.95 147.79C334.18 147.79 327.07 154.9 327.07 163.67C327.07 172.44 334.18 179.55 342.95 179.55Z" fill="white"/>
<path d="M342.95 180.05C333.92 180.05 326.57 172.7 326.57 163.67C326.57 154.64 333.92 147.29 342.95 147.29C351.98 147.29 359.33 154.64 359.33 163.67C359.33 172.7 351.99 180.05 342.95 180.05ZM342.95 148.28C334.47 148.28 327.57 155.18 327.57 163.66C327.57 172.14 334.47 179.04 342.95 179.04C351.43 179.04 358.33 172.14 358.33 163.66C358.33 155.18 351.44 148.28 342.95 148.28Z" fill="black"/>
<path d="M551.25 65.5701C560.02 65.5701 567.13 58.4603 567.13 49.6901C567.13 40.9198 560.02 33.8101 551.25 33.8101C542.48 33.8101 535.37 40.9198 535.37 49.6901C535.37 58.4603 542.48 65.5701 551.25 65.5701Z" fill="white"/>
<path d="M551.25 66.0801C542.22 66.0801 534.87 58.7301 534.87 49.7001C534.87 40.6701 542.22 33.3201 551.25 33.3201C560.28 33.3201 567.63 40.6701 567.63 49.7001C567.63 58.7301 560.28 66.0801 551.25 66.0801ZM551.25 34.3101C542.77 34.3101 535.87 41.2101 535.87 49.6901C535.87 58.1701 542.77 65.0701 551.25 65.0701C559.73 65.0701 566.63 58.1701 566.63 49.6901C566.63 41.2101 559.73 34.3101 551.25 34.3101Z" fill="black"/>
<path d="M342.95 179.55C351.72 179.55 358.83 172.44 358.83 163.67C358.83 154.9 351.72 147.79 342.95 147.79C334.18 147.79 327.07 154.9 327.07 163.67C327.07 172.44 334.18 179.55 342.95 179.55Z" fill="white"/>
<path d="M342.95 180.05C333.92 180.05 326.57 172.7 326.57 163.67C326.57 154.64 333.92 147.29 342.95 147.29C351.98 147.29 359.33 154.64 359.33 163.67C359.33 172.7 351.99 180.05 342.95 180.05ZM342.95 148.28C334.47 148.28 327.57 155.18 327.57 163.66C327.57 172.14 334.47 179.04 342.95 179.04C351.43 179.04 358.33 172.14 358.33 163.66C358.33 155.18 351.44 148.28 342.95 148.28Z" fill="black"/>
<path d="M139.23 189.24L0 188.99V187.99L139.23 188.24C142.55 188.24 145.25 185.54 145.25 182.22V106.6C145.25 103.15 148.06 100.33 151.52 100.33H286.84C290.16 100.33 292.86 97.6302 292.86 94.3102V55.9502C292.86 52.0802 296.01 48.9302 299.88 48.9302H547.1V49.9302H299.87C296.55 49.9302 293.85 52.6302 293.85 55.9502V94.3202C293.85 98.1902 290.7 101.34 286.83 101.34H151.51C148.61 101.34 146.24 103.7 146.24 106.61V182.23C146.24 186.09 143.1 189.24 139.23 189.24Z" fill="black"/>
<path d="M599.8 167.77H437.53L243.31 166.19C239.47 166.09 236.46 163.01 236.46 159.17V100.84H237.46V159.17C237.46 162.46 240.04 165.1 243.32 165.19L437.53 166.77H599.8V167.77Z" fill="black"/>
<path d="M86.5201 197.68C91.4575 197.68 95.4601 193.677 95.4601 188.74C95.4601 183.803 91.4575 179.8 86.5201 179.8C81.5826 179.8 77.5801 183.803 77.5801 188.74C77.5801 193.677 81.5826 197.68 86.5201 197.68Z" fill="black"/>
<path d="M236.96 109.78C241.897 109.78 245.9 105.778 245.9 100.84C245.9 95.9027 241.897 91.9001 236.96 91.9001C232.023 91.9001 228.02 95.9027 228.02 100.84C228.02 105.778 232.023 109.78 236.96 109.78Z" fill="black"/>
<path d="M331.54 179.8C340.31 179.8 347.42 172.69 347.42 163.92C347.42 155.15 340.31 148.04 331.54 148.04C322.77 148.04 315.66 155.15 315.66 163.92C315.66 172.69 322.77 179.8 331.54 179.8Z" fill="white"/>
<path d="M331.54 180.3C322.51 180.3 315.16 172.95 315.16 163.92C315.16 154.89 322.51 147.54 331.54 147.54C340.57 147.54 347.92 154.89 347.92 163.92C347.92 172.95 340.57 180.3 331.54 180.3ZM331.54 148.53C323.06 148.53 316.16 155.43 316.16 163.91C316.16 172.39 323.06 179.29 331.54 179.29C340.02 179.29 346.92 172.39 346.92 163.91C346.92 155.44 340.02 148.53 331.54 148.53Z" fill="black"/>
<path d="M539.83 65.8301C548.6 65.8301 555.71 58.7204 555.71 49.9501C555.71 41.1798 548.6 34.0701 539.83 34.0701C531.06 34.0701 523.95 41.1798 523.95 49.9501C523.95 58.7204 531.06 65.8301 539.83 65.8301Z" fill="#2C39F2"/>
<path d="M539.83 66.3301C530.8 66.3301 523.45 58.9801 523.45 49.9501C523.45 40.9201 530.8 33.5701 539.83 33.5701C548.86 33.5701 556.21 40.9201 556.21 49.9501C556.21 58.9801 548.86 66.3301 539.83 66.3301ZM539.83 34.5601C531.35 34.5601 524.45 41.4601 524.45 49.9401C524.45 58.4201 531.35 65.3201 539.83 65.3201C548.31 65.3201 555.21 58.4201 555.21 49.9401C555.21 41.4601 548.31 34.5601 539.83 34.5601Z" fill="black"/>
<path d="M331.54 179.8C340.31 179.8 347.42 172.69 347.42 163.92C347.42 155.15 340.31 148.04 331.54 148.04C322.77 148.04 315.66 155.15 315.66 163.92C315.66 172.69 322.77 179.8 331.54 179.8Z" fill="white"/>
<path d="M331.54 180.3C322.51 180.3 315.16 172.95 315.16 163.92C315.16 154.89 322.51 147.54 331.54 147.54C340.57 147.54 347.92 154.89 347.92 163.92C347.92 172.95 340.57 180.3 331.54 180.3ZM331.54 148.53C323.06 148.53 316.16 155.43 316.16 163.91C316.16 172.39 323.06 179.29 331.54 179.29C340.02 179.29 346.92 172.39 346.92 163.91C346.92 155.44 340.02 148.53 331.54 148.53Z" fill="black"/>
<path d="M1435.35 270.89H1171.93C1168.06 270.89 1164.91 267.74 1164.91 263.87V222.18C1164.91 218.86 1162.21 216.16 1158.89 216.16H997.9V215.16H1158.89C1162.76 215.16 1165.91 218.31 1165.91 222.18V263.87C1165.91 267.19 1168.61 269.89 1171.93 269.89H1435.35V270.89Z" fill="black"/>
<path d="M1373.23 270.39H1372.23V144.23C1372.23 140.91 1369.53 138.21 1366.21 138.21H1264.81C1261.49 138.21 1258.79 140.91 1258.79 144.23V175.97C1258.79 179.84 1255.64 182.99 1251.77 182.99H997.9V181.99H1251.77C1255.09 181.99 1257.79 179.29 1257.79 175.97V144.23C1257.79 140.36 1260.94 137.21 1264.81 137.21H1366.21C1370.08 137.21 1373.23 140.36 1373.23 144.23V270.39Z" fill="black"/>
<path d="M1302.06 137.71L1302.04 78.3801C1302.17 76.6501 1301.6 75.0401 1300.45 73.8001C1299.3 72.5601 1297.73 71.8701 1296.04 71.8701H1147.17V70.8701H1296.04C1297.99 70.8701 1299.86 71.6901 1301.19 73.1201C1302.52 74.5501 1303.19 76.4801 1303.04 78.4201L1303.06 137.72H1302.06V137.71Z" fill="black"/>
<path d="M1149.57 138.21H996.43V137.21H1149.57C1152.89 137.21 1155.59 134.51 1155.59 131.19V71.8699H1075.74C1071.87 71.8699 1068.72 68.7199 1068.72 64.8499V23.1599C1068.72 19.8399 1066.02 17.1399 1062.7 17.1399H932.36C930.67 17.1399 929.05 17.8499 927.91 19.0999C926.77 20.3499 926.21 22.0199 926.36 23.6999L926.44 64.2599C926.62 66.1799 925.96 68.1299 924.63 69.5799C923.3 71.0299 921.41 71.8699 919.45 71.8699H745.7C742.38 71.8699 739.68 74.5699 739.68 77.8899V137.46H738.68V77.8899C738.68 74.0199 741.83 70.8699 745.7 70.8699H919.45C921.14 70.8699 922.76 70.1599 923.9 68.9099C925.04 67.6599 925.6 65.9899 925.45 64.3099L925.37 23.7499C925.19 21.8299 925.85 19.8799 927.18 18.4299C928.51 16.9799 930.4 16.1399 932.36 16.1399H1062.7C1066.57 16.1399 1069.72 19.2899 1069.72 23.1599V64.8499C1069.72 68.1699 1072.42 70.8699 1075.74 70.8699H1156.59V131.19C1156.59 135.06 1153.44 138.21 1149.57 138.21Z" fill="black"/>
<path d="M1372.73 279.33C1377.67 279.33 1381.67 275.327 1381.67 270.39C1381.67 265.453 1377.67 261.45 1372.73 261.45C1367.79 261.45 1363.79 265.453 1363.79 270.39C1363.79 275.327 1367.79 279.33 1372.73 279.33Z" fill="black"/>
<path d="M1302.56 146.65C1307.5 146.65 1311.5 142.647 1311.5 137.71C1311.5 132.773 1307.5 128.77 1302.56 128.77C1297.62 128.77 1293.62 132.773 1293.62 137.71C1293.62 142.647 1297.62 146.65 1302.56 146.65Z" fill="black"/>
<path d="M1156.09 80.3099C1161.03 80.3099 1165.03 76.3074 1165.03 71.3699C1165.03 66.4325 1161.03 62.4299 1156.09 62.4299C1151.15 62.4299 1147.15 66.4325 1147.15 71.3699C1147.15 76.3074 1151.15 80.3099 1156.09 80.3099Z" fill="black"/>
<path d="M1251.28 286.27C1260.05 286.27 1267.16 279.16 1267.16 270.39C1267.16 261.62 1260.05 254.51 1251.28 254.51C1242.51 254.51 1235.4 261.62 1235.4 270.39C1235.4 279.16 1242.51 286.27 1251.28 286.27Z" fill="white"/>
<path d="M1251.28 286.77C1242.25 286.77 1234.9 279.42 1234.9 270.39C1234.9 261.36 1242.25 254.01 1251.28 254.01C1260.31 254.01 1267.66 261.36 1267.66 270.39C1267.66 279.42 1260.32 286.77 1251.28 286.77ZM1251.28 255.01C1242.8 255.01 1235.9 261.91 1235.9 270.39C1235.9 278.87 1242.8 285.77 1251.28 285.77C1259.76 285.77 1266.66 278.87 1266.66 270.39C1266.66 261.91 1259.77 255.01 1251.28 255.01Z" fill="black"/>
<path d="M1156.09 198.33C1164.86 198.33 1171.97 191.22 1171.97 182.45C1171.97 173.68 1164.86 166.57 1156.09 166.57C1147.32 166.57 1140.21 173.68 1140.21 182.45C1140.21 191.22 1147.32 198.33 1156.09 198.33Z" fill="white"/>
<path d="M1156.09 198.84C1147.06 198.84 1139.71 191.49 1139.71 182.46C1139.71 173.43 1147.06 166.08 1156.09 166.08C1165.12 166.08 1172.47 173.43 1172.47 182.46C1172.47 191.49 1165.13 198.84 1156.09 198.84ZM1156.09 167.07C1147.61 167.07 1140.71 173.97 1140.71 182.45C1140.71 190.93 1147.61 197.83 1156.09 197.83C1164.57 197.83 1171.47 190.93 1171.47 182.45C1171.47 173.97 1164.58 167.07 1156.09 167.07Z" fill="black"/>
<path d="M1054.9 198.35C1063.67 198.35 1070.78 191.24 1070.78 182.47C1070.78 173.7 1063.67 166.59 1054.9 166.59C1046.13 166.59 1039.02 173.7 1039.02 182.47C1039.02 191.24 1046.13 198.35 1054.9 198.35Z" fill="white"/>
<path d="M1054.9 198.85C1045.87 198.85 1038.52 191.5 1038.52 182.47C1038.52 173.44 1045.87 166.09 1054.9 166.09C1063.93 166.09 1071.28 173.44 1071.28 182.47C1071.29 191.5 1063.94 198.85 1054.9 198.85ZM1054.9 167.09C1046.42 167.09 1039.52 173.99 1039.52 182.47C1039.52 190.95 1046.42 197.85 1054.9 197.85C1063.38 197.85 1070.28 190.95 1070.28 182.47C1070.29 173.99 1063.39 167.09 1054.9 167.09Z" fill="black"/>
<path d="M997.82 32.52C1006.59 32.52 1013.7 25.4103 1013.7 16.64C1013.7 7.86973 1006.59 0.76001 997.82 0.76001C989.05 0.76001 981.94 7.86973 981.94 16.64C981.94 25.4103 989.05 32.52 997.82 32.52Z" fill="white"/>
<path d="M997.82 33.02C988.79 33.02 981.44 25.67 981.44 16.64C981.44 7.61001 988.79 0.26001 997.82 0.26001C1006.85 0.26001 1014.2 7.61001 1014.2 16.64C1014.2 25.67 1006.85 33.02 997.82 33.02ZM997.82 1.25001C989.34 1.25001 982.44 8.15001 982.44 16.63C982.44 25.11 989.34 32.01 997.82 32.01C1006.3 32.01 1013.2 25.11 1013.2 16.63C1013.2 8.15001 1006.3 1.25001 997.82 1.25001Z" fill="black"/>
<path d="M1216.63 42.5C1225.4 42.5 1232.51 35.3903 1232.51 26.62C1232.51 17.8497 1225.4 10.74 1216.63 10.74C1207.86 10.74 1200.75 17.8497 1200.75 26.62C1200.75 35.3903 1207.86 42.5 1216.63 42.5Z" fill="white"/>
<path d="M1216.63 43.01C1207.6 43.01 1200.25 35.66 1200.25 26.63C1200.25 17.6 1207.6 10.25 1216.63 10.25C1225.66 10.25 1233.01 17.6 1233.01 26.63C1233.01 35.66 1225.66 43.01 1216.63 43.01ZM1216.63 11.24C1208.15 11.24 1201.25 18.14 1201.25 26.62C1201.25 35.1 1208.15 42 1216.63 42C1225.11 42 1232.01 35.1 1232.01 26.62C1232.01 18.14 1225.11 11.24 1216.63 11.24Z" fill="black"/>
<path d="M821.55 87.25C830.32 87.25 837.43 80.1403 837.43 71.37C837.43 62.5997 830.32 55.49 821.55 55.49C812.78 55.49 805.67 62.5997 805.67 71.37C805.67 80.1403 812.78 87.25 821.55 87.25Z" fill="white"/>
<path d="M821.55 87.75C812.52 87.75 805.17 80.4 805.17 71.37C805.17 62.34 812.52 54.99 821.55 54.99C830.58 54.99 837.93 62.34 837.93 71.37C837.93 80.4 830.59 87.75 821.55 87.75ZM821.55 55.98C813.07 55.98 806.17 62.88 806.17 71.36C806.17 79.84 813.07 86.74 821.55 86.74C830.03 86.74 836.93 79.84 836.93 71.36C836.93 62.88 830.04 55.98 821.55 55.98Z" fill="black"/>
<path d="M1277.69 71.3701H1276.69V33.1401C1276.69 29.8201 1273.99 27.1201 1270.67 27.1201H1232.52V26.1201H1270.67C1274.54 26.1201 1277.69 29.2701 1277.69 33.1401V71.3701Z" fill="black"/>
<path d="M1277.19 80.3099C1282.13 80.3099 1286.13 76.3074 1286.13 71.3699C1286.13 66.4325 1282.13 62.4299 1277.19 62.4299C1272.25 62.4299 1268.25 66.4325 1268.25 71.3699C1268.25 76.3074 1272.25 80.3099 1277.19 80.3099Z" fill="black"/>
<path d="M1440 270.89L1183.35 270.64C1179.48 270.64 1176.33 267.49 1176.33 263.62V221.93C1176.33 218.61 1173.63 215.91 1170.31 215.91L997.9 216.16H586.5V215.16H997.9L1170.31 214.91C1174.18 214.91 1177.33 218.06 1177.33 221.93V263.62C1177.33 266.94 1180.03 269.64 1183.35 269.64L1440 269.89V270.89Z" fill="black"/>
<path d="M1384.64 270.14H1383.64V143.98C1383.64 140.66 1380.94 137.96 1377.62 137.96H1276.22C1272.9 137.96 1270.2 140.66 1270.2 143.98V175.72C1270.2 179.59 1267.05 182.74 1263.18 182.74L997.9 182.99H586.5V181.99H997.9L1263.18 181.74C1266.5 181.74 1269.2 179.04 1269.2 175.72V143.98C1269.2 140.11 1272.35 136.96 1276.22 136.96H1377.62C1381.49 136.96 1384.64 140.11 1384.64 143.98V270.14Z" fill="black"/>
<path d="M1313.48 137.46L1313.46 78.1301C1313.59 76.4001 1313.02 74.7901 1311.87 73.5501C1310.72 72.3101 1309.15 71.6201 1307.46 71.6201H1158.59V70.6201H1307.46C1309.41 70.6201 1311.28 71.4401 1312.61 72.8701C1313.93 74.3001 1314.61 76.2301 1314.46 78.1701L1314.48 137.47H1313.48V137.46Z" fill="black"/>
<path d="M997.01 138.21H586.5V137.21H750.09V77.6399C750.09 73.7699 753.24 70.6199 757.11 70.6199H930.86C932.55 70.6199 934.17 69.9099 935.3 68.6599C936.44 67.4099 937 65.7399 936.85 64.0599L936.77 23.4999C936.59 21.5799 937.25 19.6299 938.58 18.1799C939.91 16.7299 941.8 15.8899 943.76 15.8899H1074.1C1077.97 15.8899 1081.12 19.0399 1081.12 22.9099V64.5999C1081.12 67.9199 1083.82 70.6199 1087.14 70.6199H1167.99V130.94C1167.99 134.81 1164.84 137.96 1160.97 137.96L997.01 138.21ZM751.09 137.21H997L1160.98 136.96C1164.3 136.96 1167 134.26 1167 130.94V71.6199H1087.15C1083.28 71.6199 1080.13 68.4699 1080.13 64.5999V22.8999C1080.13 19.5799 1077.43 16.8799 1074.11 16.8799H943.78C942.09 16.8799 940.47 17.5899 939.34 18.8399C938.21 20.0899 937.64 21.7599 937.79 23.4399L937.86 63.9999C938.04 65.9199 937.38 67.8699 936.05 69.3199C934.72 70.7699 932.83 71.6099 930.87 71.6099H757.11C753.79 71.6099 751.09 74.3099 751.09 77.6299V137.21Z" fill="black"/>
<path d="M1384.14 279.08C1389.08 279.08 1393.08 275.077 1393.08 270.14C1393.08 265.203 1389.08 261.2 1384.14 261.2C1379.2 261.2 1375.2 265.203 1375.2 270.14C1375.2 275.077 1379.2 279.08 1384.14 279.08Z" fill="black"/>
<path d="M1313.98 146.4C1318.92 146.4 1322.92 142.397 1322.92 137.46C1322.92 132.523 1318.92 128.52 1313.98 128.52C1309.04 128.52 1305.04 132.523 1305.04 137.46C1305.04 142.397 1309.04 146.4 1313.98 146.4Z" fill="black"/>
<path d="M1167.51 80.0599C1172.45 80.0599 1176.45 76.0574 1176.45 71.1199C1176.45 66.1825 1172.45 62.1799 1167.51 62.1799C1162.57 62.1799 1158.57 66.1825 1158.57 71.1199C1158.57 76.0574 1162.57 80.0599 1167.51 80.0599Z" fill="black"/>
<path d="M1262.7 286.02C1271.47 286.02 1278.58 278.91 1278.58 270.14C1278.58 261.37 1271.47 254.26 1262.7 254.26C1253.93 254.26 1246.82 261.37 1246.82 270.14C1246.82 278.91 1253.93 286.02 1262.7 286.02Z" fill="#2C39F2"/>
<path d="M1262.7 286.52C1253.67 286.52 1246.32 279.17 1246.32 270.14C1246.32 261.11 1253.67 253.76 1262.7 253.76C1271.73 253.76 1279.08 261.11 1279.08 270.14C1279.08 279.17 1271.73 286.52 1262.7 286.52ZM1262.7 254.75C1254.22 254.75 1247.32 261.65 1247.32 270.13C1247.32 278.61 1254.22 285.51 1262.7 285.51C1271.18 285.51 1278.08 278.61 1278.08 270.13C1278.08 261.65 1271.18 254.75 1262.7 254.75Z" fill="black"/>
<path d="M1167.51 198.08C1176.28 198.08 1183.39 190.97 1183.39 182.2C1183.39 173.43 1176.28 166.32 1167.51 166.32C1158.74 166.32 1151.63 173.43 1151.63 182.2C1151.63 190.97 1158.74 198.08 1167.51 198.08Z" fill="white"/>
<path d="M1167.51 198.59C1158.48 198.59 1151.13 191.24 1151.13 182.21C1151.13 173.18 1158.48 165.83 1167.51 165.83C1176.54 165.83 1183.89 173.18 1183.89 182.21C1183.89 191.24 1176.54 198.59 1167.51 198.59ZM1167.51 166.82C1159.03 166.82 1152.13 173.72 1152.13 182.2C1152.13 190.68 1159.03 197.58 1167.51 197.58C1175.99 197.58 1182.89 190.68 1182.89 182.2C1182.89 173.72 1175.99 166.82 1167.51 166.82Z" fill="black"/>
<path d="M1066.32 198.1C1075.09 198.1 1082.2 190.99 1082.2 182.22C1082.2 173.45 1075.09 166.34 1066.32 166.34C1057.55 166.34 1050.44 173.45 1050.44 182.22C1050.44 190.99 1057.55 198.1 1066.32 198.1Z" fill="white"/>
<path d="M1066.32 198.6C1057.29 198.6 1049.94 191.25 1049.94 182.22C1049.94 173.19 1057.29 165.84 1066.32 165.84C1075.35 165.84 1082.7 173.19 1082.7 182.22C1082.7 191.25 1075.35 198.6 1066.32 198.6ZM1066.32 166.83C1057.84 166.83 1050.94 173.73 1050.94 182.21C1050.94 190.69 1057.84 197.59 1066.32 197.59C1074.8 197.59 1081.7 190.69 1081.7 182.21C1081.7 173.73 1074.8 166.83 1066.32 166.83Z" fill="black"/>
<path d="M1009.24 32.26C1018.01 32.26 1025.12 25.1503 1025.12 16.38C1025.12 7.60972 1018.01 0.5 1009.24 0.5C1000.47 0.5 993.36 7.60972 993.36 16.38C993.36 25.1503 1000.47 32.26 1009.24 32.26Z" fill="#2C39F2"/>
<path d="M1009.24 32.77C1000.21 32.77 992.86 25.42 992.86 16.39C992.86 7.36 1000.2 0 1009.24 0C1018.28 0 1025.62 7.35 1025.62 16.38C1025.62 25.41 1018.27 32.77 1009.24 32.77ZM1009.24 1C1000.76 1 993.86 7.9 993.86 16.38C993.86 24.86 1000.76 31.76 1009.24 31.76C1017.72 31.76 1024.62 24.86 1024.62 16.38C1024.62 7.9 1017.72 1 1009.24 1Z" fill="black"/>
<path d="M1228.04 42.25C1236.81 42.25 1243.92 35.1403 1243.92 26.37C1243.92 17.5997 1236.81 10.49 1228.04 10.49C1219.27 10.49 1212.16 17.5997 1212.16 26.37C1212.16 35.1403 1219.27 42.25 1228.04 42.25Z" fill="white"/>
<path d="M1228.04 42.75C1219.01 42.75 1211.66 35.4 1211.66 26.37C1211.66 17.34 1219.01 9.98999 1228.04 9.98999C1237.07 9.98999 1244.42 17.34 1244.42 26.37C1244.43 35.4 1237.08 42.75 1228.04 42.75ZM1228.04 10.99C1219.56 10.99 1212.66 17.89 1212.66 26.37C1212.66 34.85 1219.56 41.75 1228.04 41.75C1236.52 41.75 1243.42 34.85 1243.42 26.37C1243.43 17.89 1236.53 10.99 1228.04 10.99Z" fill="black"/>
<path d="M832.97 87C841.74 87 848.85 79.8903 848.85 71.12C848.85 62.3497 841.74 55.24 832.97 55.24C824.2 55.24 817.09 62.3497 817.09 71.12C817.09 79.8903 824.2 87 832.97 87Z" fill="white"/>
<path d="M832.97 87.5C823.94 87.5 816.59 80.15 816.59 71.12C816.59 62.09 823.94 54.74 832.97 54.74C842 54.74 849.35 62.09 849.35 71.12C849.35 80.15 842 87.5 832.97 87.5ZM832.97 55.73C824.49 55.73 817.59 62.63 817.59 71.11C817.59 79.59 824.49 86.49 832.97 86.49C841.45 86.49 848.35 79.59 848.35 71.11C848.35 62.63 841.45 55.73 832.97 55.73Z" fill="black"/>
<path d="M1289.1 71.1201H1288.1V32.8901C1288.1 29.5701 1285.4 26.8701 1282.08 26.8701H1243.93V25.8701H1282.08C1285.95 25.8701 1289.1 29.0201 1289.1 32.8901V71.1201Z" fill="black"/>
<path d="M1288.6 80.0599C1293.54 80.0599 1297.54 76.0574 1297.54 71.1199C1297.54 66.1825 1293.54 62.1799 1288.6 62.1799C1283.66 62.1799 1279.66 66.1825 1279.66 71.1199C1279.66 76.0574 1283.66 80.0599 1288.6 80.0599Z" fill="black"/>
</svg>
