<svg width="91" height="21" viewBox="0 0 91 21" xmlns="http://www.w3.org/2000/svg">
<path class="logo__text" d="M0.212891 19.539H4.66006L8.61309 6.55396L12.8132 19.539H17.7545L11.0837 0.728882H6.51304L0.212891 19.539Z" />
<path class="logo__text" d="M20.2246 19.539H23.9306L30.4778 8.617V19.539H34.6779V0.728882H30.7249L24.3012 11.7723V0.728882H20.2246V19.539Z" />
<path class="logo__text" d="M39.7446 19.539H43.5741V4.97633H51.8508V0.728882H39.127V19.539H39.7446Z" />
<path class="logo__text" fill-rule="evenodd" clip-rule="evenodd" d="M55.4325 19.539H51.2324L57.6561 0.728882H62.2268L68.527 19.539H64.3269L62.968 15.8983H56.7914L55.4325 19.539ZM60.25 6.43259H59.2618L57.7794 12.5004H61.8559L60.25 6.43259Z" />
<path d="M75.0742 15.3404V0.77771H90.5158V15.3404L82.7332 20.1946L75.0742 15.3404Z" fill="#2C39F2"/>
<path class="logo__symbol" d="M85.8216 14.0055C85.3275 14.0055 84.9569 13.8841 84.5863 13.5201C84.2157 13.156 84.0922 12.7919 83.9686 12.3065H83.8451C83.7216 12.9133 83.351 13.3987 82.8568 13.6414C82.3627 14.0055 81.745 14.1268 81.0038 14.1268C80.0156 14.1268 79.2744 13.8841 78.7803 13.3987C78.2861 12.9133 78.0391 12.1851 78.0391 11.457C78.0391 10.4862 78.4097 9.75803 79.1509 9.27261C79.8921 8.78719 80.8803 8.54448 82.1156 8.54448H83.598V7.9377C83.598 7.45228 83.4745 7.08821 83.2274 6.8455C82.9804 6.60279 82.6098 6.48143 81.9921 6.48143C81.498 6.48143 81.0038 6.60279 80.7568 6.8455C80.5097 7.08821 80.1391 7.33092 80.0156 7.57363L78.4097 6.11736C78.7803 5.51058 79.2744 5.14652 79.892 4.78245C80.5097 4.41838 81.2509 4.29703 82.2392 4.29703C83.598 4.29703 84.5863 4.53974 85.3275 5.14652C86.0687 5.7533 86.3157 6.60279 86.3157 7.69499V11.8211H87.1805V14.0055H85.8216ZM82.1156 12.3065C82.6098 12.3065 82.9804 12.1851 83.2274 12.0638C83.4745 11.9424 83.7216 11.5784 83.7216 11.0929V10.0007H82.3627C81.2509 10.0007 80.7568 10.3648 80.7568 11.0929V11.3357C80.7568 11.6997 80.8803 11.9424 81.1274 12.0638C81.3744 12.1851 81.6215 12.3065 82.1156 12.3065Z"/>
</svg>
