<svg width="258" height="28" viewBox="0 0 258 28" fill="none" xmlns="http://www.w3.org/2000/svg">
<path d="M3.42383 27.0962H8.16502L12.3794 13.0583L16.8572 27.0962H22.1252L15.0134 6.76096H10.1405L3.42383 27.0962Z" fill="black"/>
<path d="M24.7598 27.0962H28.7108L35.6909 15.2887V27.0962H40.1686V6.76096H35.9543L29.1059 18.6997V6.76096H24.7598V27.0962Z" fill="black"/>
<path d="M45.5687 27.0962H49.6514V11.3528H58.4753V6.76096H44.9102V27.0962H45.5687Z" fill="black"/>
<path d="M57.8164 27.0962H62.2942L63.7429 23.1604H70.3279L71.7766 27.0962H76.2544L69.5377 6.76096H64.6648L57.8164 27.0962Z" fill="black"/>
<path d="M66.3773 12.9271H67.4309L69.143 19.4869H64.7969L66.3773 12.9271Z" fill="white"/>
<path d="M85 22.6717V6.7041H101.697V22.6717L93.2816 27.9942L85 22.6717Z" fill="#2C39F2"/>
<path d="M96.6203 21.208C96.086 21.208 95.6853 21.0749 95.2845 20.6757C94.8838 20.2765 94.7502 19.8773 94.6167 19.3451H94.4831C94.3495 20.0104 93.9488 20.5427 93.4145 20.8088C92.8802 21.208 92.2123 21.341 91.4109 21.341C90.3423 21.341 89.5408 21.0749 89.0065 20.5427C88.4722 20.0104 88.2051 19.212 88.2051 18.4137C88.2051 17.3491 88.6058 16.5508 89.4073 16.0185C90.2087 15.4863 91.2773 15.2201 92.6131 15.2201H94.2159V14.5548C94.2159 14.0226 94.0824 13.6234 93.8152 13.3573C93.5481 13.0911 93.1474 12.9581 92.4795 12.9581C91.9452 12.9581 91.4109 13.0911 91.1437 13.3573C90.8766 13.6234 90.4758 13.8895 90.3423 14.1556L88.6058 12.5589C89.0065 11.8936 89.5408 11.4944 90.2087 11.0952C90.8766 10.696 91.678 10.5629 92.7466 10.5629C94.2159 10.5629 95.2845 10.8291 96.086 11.4944C96.8874 12.1597 97.1546 13.0911 97.1546 14.2887V18.8128H98.0896V21.208H96.6203ZM92.6131 19.3451C93.1474 19.3451 93.5481 19.212 93.8152 19.079C94.0824 18.9459 94.3495 18.5467 94.3495 18.0145V16.8169H92.8802C91.678 16.8169 91.1437 17.2161 91.1437 18.0145V18.2806C91.1437 18.6798 91.2773 18.9459 91.5444 19.079C91.8116 19.212 92.0788 19.3451 92.6131 19.3451Z" fill="white"/>
<path d="M109.838 27.3586V7.28572H119.452C120.374 7.28572 121.296 7.41692 121.954 7.8105C122.744 8.07289 123.403 8.59767 123.93 9.12246C124.457 9.64724 124.852 10.3032 125.115 11.2216C125.378 12.0088 125.51 12.9271 125.51 13.8455C125.51 14.7639 125.378 15.6822 125.115 16.4694C124.852 17.2566 124.457 17.9125 123.93 18.4373C123.403 18.9621 122.744 19.4869 121.954 19.7493C121.164 20.0117 120.374 20.2741 119.452 20.2741H114.316V27.3586H109.838ZM114.184 16.3382H118.793C119.452 16.3382 119.979 16.207 120.374 15.8134C120.769 15.4198 120.901 15.0262 120.901 14.3703V13.0583C120.901 12.4023 120.769 11.8776 120.374 11.6152C119.979 11.2216 119.452 11.0904 118.793 11.0904H114.184V16.3382Z" fill="black"/>
<path d="M128.803 27.3586V7.28572H142.631V11.2216H133.281V15.2886H141.314V19.2245H133.281V23.5539H142.631V27.4898H128.803V27.3586Z" fill="black"/>
<path d="M146.451 7.28571H150.797V23.5539H156.855V7.28571H161.201V23.5539H167.259V7.28571H171.606V27.3586H146.188V7.28571H146.451Z" fill="black"/>
<path d="M176.215 27.3586V7.28571H189.912V11.2216H180.561V15.2886H188.595V19.2245H180.561V23.5539H189.912V27.4898H176.215V27.3586Z" fill="black"/>
<path d="M205.98 19.2245H198.209V27.3586H193.863V7.28571H198.209V15.2886H205.98V7.28571H210.326V27.3586H205.98V19.2245Z" fill="black"/>
<path d="M214.803 7.28572H219.149V17.1254L218.622 21.3236H218.754L220.729 17.519L227.446 7.28572H231.397V27.3586H227.051V17.519L227.578 13.3207H227.446L225.47 17.1254L218.754 27.3586H214.803V7.28572Z" fill="black"/>
<path d="M235.742 7.28572H240.088V17.1254L239.561 21.3236H239.693L241.669 17.519L248.385 7.28572H252.336V27.3586H247.99V17.519L248.517 13.3207H248.385L246.41 17.1254L239.693 27.3586H235.742V7.28572ZM244.039 6.10496C242.722 6.10496 241.669 5.84257 240.878 5.31779C240.088 4.79301 239.43 4.00584 239.035 2.95627L238.376 1.51313L241.669 0.332367L242.591 3.21867C242.722 3.21867 242.854 3.34986 243.117 3.34986C243.381 3.34986 243.644 3.34986 243.908 3.34986C244.171 3.34986 244.434 3.34986 244.698 3.34986C244.961 3.34986 245.093 3.21867 245.225 3.21867L246.146 0.332367L249.439 1.51313L248.78 2.95627C248.385 4.00584 247.727 4.79301 246.937 5.31779C246.41 5.84257 245.356 6.10496 244.039 6.10496Z" fill="black"/>
</svg>
