<svg width="1440" height="289" viewBox="0 0 1440 289" fill="none" xmlns="http://www.w3.org/2000/svg">
<path d="M150.63 190.49H0V188.99H150.63C152.159 188.987 153.626 188.379 154.707 187.297C155.789 186.216 156.397 184.749 156.4 183.22V107.6C156.403 105.873 157.089 104.218 158.309 102.996C159.529 101.774 161.183 101.085 162.91 101.08H298.23C299.76 101.08 301.228 100.472 302.31 99.3899C303.392 98.3078 304 96.8404 304 95.3101V56.9399C304.003 55.0126 304.769 53.1651 306.132 51.8022C307.495 50.4394 309.343 49.6726 311.27 49.6699H558.51V51.1699H311.28C309.751 51.1726 308.284 51.7813 307.203 52.8628C306.121 53.9443 305.513 55.4105 305.51 56.9399V95.3101C305.507 97.2374 304.741 99.0849 303.378 100.448C302.015 101.811 300.167 102.577 298.24 102.58H162.92C161.594 102.58 160.322 103.107 159.385 104.044C158.447 104.982 157.92 106.254 157.92 107.58V183.25C157.909 185.176 157.136 187.019 155.77 188.375C154.404 189.732 152.556 190.493 150.63 190.49Z" fill="black"/>
<path d="M437.53 167.67L254.73 167.43C252.827 167.396 251.015 166.614 249.684 165.253C248.353 163.893 247.612 162.063 247.62 160.16V101.83H249.12V160.16C249.112 161.669 249.698 163.12 250.752 164.2C251.805 165.28 253.242 165.901 254.75 165.93L437.53 166.17V167.67Z" fill="black"/>
<path d="M97.94 198.68C102.877 198.68 106.88 194.677 106.88 189.74C106.88 184.803 102.877 180.8 97.94 180.8C93.0026 180.8 89 184.803 89 189.74C89 194.677 93.0026 198.68 97.94 198.68Z" fill="black"/>
<path d="M248.38 110.78C253.317 110.78 257.32 106.777 257.32 101.84C257.32 96.9026 253.317 92.9 248.38 92.9C243.443 92.9 239.44 96.9026 239.44 101.84C239.44 106.777 243.443 110.78 248.38 110.78Z" fill="black"/>
<path d="M342.96 180.8C351.73 180.8 358.84 173.69 358.84 164.92C358.84 156.15 351.73 149.04 342.96 149.04C334.19 149.04 327.08 156.15 327.08 164.92C327.08 173.69 334.19 180.8 342.96 180.8Z" fill="white"/>
<path d="M342.95 181.55C339.659 181.55 336.442 180.574 333.705 178.746C330.969 176.917 328.836 174.318 327.577 171.278C326.317 168.237 325.988 164.892 326.63 161.664C327.272 158.436 328.857 155.471 331.184 153.144C333.511 150.817 336.476 149.232 339.704 148.59C342.932 147.948 346.277 148.277 349.318 149.537C352.358 150.796 354.957 152.929 356.786 155.665C358.614 158.402 359.59 161.619 359.59 164.91C359.587 169.322 357.833 173.553 354.713 176.673C351.593 179.793 347.362 181.547 342.95 181.55ZM342.95 149.78C339.955 149.78 337.028 150.668 334.538 152.332C332.048 153.996 330.107 156.361 328.962 159.128C327.816 161.895 327.517 164.94 328.102 167.877C328.687 170.815 330.13 173.512 332.248 175.629C334.366 177.746 337.065 179.187 340.002 179.77C342.94 180.353 345.984 180.052 348.751 178.905C351.517 177.757 353.881 175.815 355.543 173.324C357.206 170.833 358.092 167.905 358.09 164.91C358.085 160.897 356.488 157.05 353.649 154.214C350.811 151.377 346.963 149.783 342.95 149.78Z" fill="black"/>
<path d="M551.25 66.8201C560.02 66.8201 567.13 59.7103 567.13 50.9401C567.13 42.1698 560.02 35.0601 551.25 35.0601C542.48 35.0601 535.37 42.1698 535.37 50.9401C535.37 59.7103 542.48 66.8201 551.25 66.8201Z" fill="white"/>
<path d="M551.24 67.5702C547.949 67.5702 544.731 66.5939 541.994 64.765C539.258 62.9361 537.125 60.3369 535.866 57.2958C534.607 54.2546 534.278 50.9082 534.921 47.6801C535.563 44.4519 537.149 41.487 539.477 39.1603C541.805 36.8335 544.771 35.2494 548 34.6085C551.228 33.9676 554.575 34.2987 557.615 35.5597C560.655 36.8207 563.253 38.955 565.08 41.6927C566.908 44.4305 567.882 47.6486 567.88 50.9401C567.875 55.3507 566.12 59.579 563 62.6969C559.88 65.8148 555.651 67.5675 551.24 67.5702ZM551.24 35.8002C548.246 35.8002 545.319 36.6881 542.829 38.3517C540.339 40.0153 538.398 42.3799 537.252 45.1464C536.107 47.9128 535.807 50.9568 536.391 53.8937C536.975 56.8305 538.417 59.5283 540.534 61.6456C542.652 63.763 545.349 65.205 548.286 65.7892C551.223 66.3734 554.267 66.0735 557.034 64.9276C559.8 63.7817 562.165 61.8412 563.829 59.3514C565.492 56.8617 566.38 53.9345 566.38 50.9401C566.377 46.9255 564.782 43.0761 561.943 40.2374C559.104 37.3987 555.255 35.8028 551.24 35.8002Z" fill="black"/>
<path d="M342.96 180.8C351.73 180.8 358.84 173.69 358.84 164.92C358.84 156.15 351.73 149.04 342.96 149.04C334.19 149.04 327.08 156.15 327.08 164.92C327.08 173.69 334.19 180.8 342.96 180.8Z" fill="white"/>
<path d="M342.95 181.55C339.659 181.55 336.442 180.574 333.705 178.746C330.969 176.917 328.836 174.318 327.577 171.278C326.317 168.237 325.988 164.892 326.63 161.664C327.272 158.436 328.857 155.471 331.184 153.144C333.511 150.817 336.476 149.232 339.704 148.59C342.932 147.948 346.277 148.277 349.318 149.537C352.358 150.796 354.957 152.929 356.786 155.665C358.614 158.402 359.59 161.619 359.59 164.91C359.587 169.322 357.833 173.553 354.713 176.673C351.593 179.793 347.362 181.547 342.95 181.55ZM342.95 149.78C339.955 149.78 337.028 150.668 334.538 152.332C332.048 153.996 330.107 156.361 328.962 159.128C327.816 161.895 327.517 164.94 328.102 167.877C328.687 170.815 330.13 173.512 332.248 175.629C334.366 177.746 337.065 179.187 340.002 179.77C342.94 180.353 345.984 180.052 348.751 178.905C351.517 177.757 353.881 175.815 355.543 173.324C357.206 170.833 358.092 167.905 358.09 164.91C358.085 160.897 356.488 157.05 353.649 154.214C350.811 151.377 346.963 149.783 342.95 149.78Z" fill="black"/>
<path d="M139.22 190.74L0 190.49V188.99L139.23 189.24C140.758 189.235 142.221 188.625 143.301 187.543C144.38 186.462 144.987 184.998 144.99 183.47V107.85C144.993 106.123 145.681 104.467 146.903 103.246C148.126 102.026 149.783 101.34 151.51 101.34H286.83C288.359 101.337 289.826 100.728 290.907 99.647C291.989 98.5655 292.597 97.0996 292.6 95.5701V57.1899C292.603 55.2626 293.369 53.4151 294.732 52.0522C296.095 50.6894 297.943 49.9226 299.87 49.9199H547.1V51.4199H299.87C298.341 51.4226 296.874 52.0313 295.793 53.1128C294.711 54.1943 294.103 55.6605 294.1 57.1899V95.5701C294.097 97.4974 293.331 99.3449 291.968 100.708C290.605 102.071 288.757 102.837 286.83 102.84H151.51C150.184 102.84 148.912 103.367 147.974 104.304C147.037 105.242 146.51 106.514 146.51 107.84V183.46C146.51 184.417 146.321 185.364 145.955 186.248C145.588 187.132 145.051 187.935 144.374 188.611C143.697 189.287 142.893 189.823 142.009 190.189C141.125 190.554 140.177 190.741 139.22 190.74Z" fill="black"/>
<path d="M243.31 167.68C241.408 167.646 239.596 166.864 238.267 165.503C236.938 164.142 236.199 162.312 236.21 160.41V102.09H237.71V160.41C237.699 161.918 238.283 163.369 239.335 164.449C240.387 165.529 241.823 166.151 243.33 166.18H829V167.68H243.31Z" fill="black"/>
<path d="M86.5201 198.93C91.4575 198.93 95.4601 194.927 95.4601 189.99C95.4601 185.053 91.4575 181.05 86.5201 181.05C81.5826 181.05 77.5801 185.053 77.5801 189.99C77.5801 194.927 81.5826 198.93 86.5201 198.93Z" fill="black"/>
<path d="M236.96 111.03C241.897 111.03 245.9 107.027 245.9 102.09C245.9 97.1526 241.897 93.15 236.96 93.15C232.023 93.15 228.02 97.1526 228.02 102.09C228.02 107.027 232.023 111.03 236.96 111.03Z" fill="black"/>
<path d="M331.54 181.05C340.31 181.05 347.42 173.94 347.42 165.17C347.42 156.4 340.31 149.29 331.54 149.29C322.77 149.29 315.66 156.4 315.66 165.17C315.66 173.94 322.77 181.05 331.54 181.05Z" fill="white"/>
<path d="M331.54 181.8C328.248 181.802 325.03 180.827 322.292 179C319.554 177.172 317.419 174.573 316.159 171.532C314.898 168.491 314.568 165.145 315.209 161.916C315.851 158.687 317.436 155.721 319.764 153.394C322.092 151.066 325.058 149.481 328.286 148.839C331.515 148.198 334.862 148.528 337.903 149.789C340.944 151.049 343.542 153.184 345.37 155.922C347.198 158.66 348.172 161.878 348.17 165.17C348.165 169.579 346.411 173.806 343.293 176.923C340.176 180.041 335.949 181.795 331.54 181.8ZM331.54 150.03C328.545 150.028 325.617 150.914 323.126 152.577C320.635 154.239 318.693 156.603 317.545 159.369C316.398 162.135 316.097 165.18 316.68 168.117C317.263 171.055 318.704 173.754 320.821 175.872C322.938 177.99 325.636 179.433 328.573 180.018C331.51 180.603 334.555 180.304 337.322 179.158C340.089 178.013 342.454 176.072 344.118 173.582C345.782 171.092 346.67 168.165 346.67 165.17C346.668 161.157 345.073 157.309 342.236 154.471C339.4 151.632 335.553 150.035 331.54 150.03Z" fill="black"/>
<path d="M539.83 67.0799C548.6 67.0799 555.71 59.9702 555.71 51.1999C555.71 42.4297 548.6 35.3199 539.83 35.3199C531.06 35.3199 523.95 42.4297 523.95 51.1999C523.95 59.9702 531.06 67.0799 539.83 67.0799Z" fill="#2C39F2"/>
<path d="M539.83 67.83C536.539 67.832 533.321 66.8576 530.583 65.0304C527.845 63.2032 525.711 60.605 524.45 57.5646C523.189 54.5242 522.858 51.1783 523.499 47.9498C524.14 44.7213 525.724 41.7553 528.05 39.4271C530.377 37.099 533.342 35.5131 536.57 34.8703C539.798 34.2274 543.144 34.5564 546.186 35.8156C549.227 37.0747 551.826 39.2076 553.655 41.9442C555.484 44.6809 556.46 47.8983 556.46 51.1898C556.455 55.5997 554.701 59.8275 551.584 62.9467C548.467 66.0658 544.24 67.822 539.83 67.83ZM539.83 36.06C536.835 36.058 533.906 36.9445 531.415 38.6073C528.924 40.2702 526.982 42.6346 525.835 45.4015C524.687 48.1684 524.387 51.2132 524.971 54.151C525.555 57.0888 526.997 59.7874 529.115 61.9054C531.233 64.0234 533.931 65.4656 536.869 66.0495C539.807 66.6333 542.852 66.3326 545.619 65.1854C548.386 64.0383 550.75 62.0962 552.413 59.6049C554.076 57.1136 554.962 54.1851 554.96 51.1898C554.955 47.1787 553.359 43.3335 550.523 40.4972C547.686 37.6609 543.841 36.0652 539.83 36.06Z" fill="black"/>
<path d="M331.54 181.05C340.31 181.05 347.42 173.94 347.42 165.17C347.42 156.4 340.31 149.29 331.54 149.29C322.77 149.29 315.66 156.4 315.66 165.17C315.66 173.94 322.77 181.05 331.54 181.05Z" fill="white"/>
<path d="M331.54 181.8C328.248 181.802 325.03 180.827 322.292 179C319.554 177.172 317.419 174.573 316.159 171.532C314.898 168.491 314.568 165.145 315.209 161.916C315.851 158.687 317.436 155.721 319.764 153.394C322.092 151.066 325.058 149.481 328.286 148.839C331.515 148.198 334.862 148.528 337.903 149.789C340.944 151.049 343.542 153.184 345.37 155.922C347.198 158.66 348.172 161.878 348.17 165.17C348.165 169.579 346.411 173.806 343.293 176.923C340.176 180.041 335.949 181.795 331.54 181.8ZM331.54 150.03C328.545 150.028 325.617 150.914 323.126 152.577C320.635 154.239 318.693 156.603 317.545 159.369C316.398 162.135 316.097 165.18 316.68 168.117C317.263 171.055 318.704 173.754 320.821 175.872C322.938 177.99 325.636 179.433 328.573 180.018C331.51 180.603 334.555 180.304 337.322 179.158C340.089 178.013 342.454 176.072 344.118 173.582C345.782 171.092 346.67 168.165 346.67 165.17C346.668 161.157 345.073 157.309 342.236 154.471C339.4 151.632 335.553 150.035 331.54 150.03Z" fill="black"/>
<path d="M1435.35 272.39H1171.93C1170 272.387 1168.16 271.621 1166.79 270.258C1165.43 268.895 1164.66 267.047 1164.66 265.12V223.43C1164.66 221.9 1164.05 220.432 1162.97 219.35C1161.89 218.268 1160.42 217.66 1158.89 217.66L826 216.16V214.66L1158.89 216.16C1160.82 216.163 1162.67 216.929 1164.03 218.292C1165.39 219.655 1166.16 221.503 1166.16 223.43V265.12C1166.16 266.65 1166.77 268.116 1167.85 269.197C1168.93 270.279 1170.4 270.887 1171.93 270.89H1435.35V272.39Z" fill="black"/>
<path d="M1373.48 271.64H1371.98V145.48C1371.98 143.95 1371.37 142.482 1370.29 141.4C1369.21 140.318 1367.74 139.71 1366.21 139.71H1264.81C1263.28 139.71 1261.81 140.318 1260.73 141.4C1259.65 142.482 1259.04 143.95 1259.04 145.48V177.25C1259.04 179.177 1258.27 181.025 1256.91 182.388C1255.54 183.751 1253.7 184.517 1251.77 184.52L686.5 184V182.5L1251.77 183.02C1253.3 183.017 1254.77 182.409 1255.85 181.327C1256.93 180.246 1257.54 178.779 1257.54 177.25V145.51C1257.54 143.583 1258.31 141.735 1259.67 140.372C1261.03 139.009 1262.88 138.243 1264.81 138.24H1366.21C1368.14 138.243 1369.98 139.009 1371.35 140.372C1372.71 141.735 1373.48 143.583 1373.48 145.51V271.64Z" fill="black"/>
<path d="M1301.81 138.96V79.6201C1301.88 78.8242 1301.78 78.0232 1301.52 77.2676C1301.26 76.512 1300.85 75.8182 1300.31 75.23C1299.77 74.6418 1299.11 74.172 1298.38 73.8501C1297.65 73.5282 1296.86 73.3615 1296.06 73.3601H1147.17V71.8601H1296.04C1297.04 71.8615 1298.03 72.069 1298.95 72.47C1299.86 72.8709 1300.69 73.4566 1301.37 74.1904C1302.05 74.9243 1302.57 75.7906 1302.9 76.7351C1303.23 77.6796 1303.36 78.682 1303.29 79.6799V138.96H1301.81Z" fill="black"/>
<path d="M1150.57 139.71H997.43V138.25H1150.57C1152.1 138.247 1153.57 137.639 1154.65 136.557C1155.73 135.476 1156.34 134.009 1156.34 132.48V73.3999H1076.74C1074.81 73.3973 1072.96 72.6306 1071.6 71.2678C1070.24 69.905 1069.47 68.0572 1069.47 66.1299V24.4399C1069.47 22.9105 1068.86 21.4443 1067.78 20.3628C1066.7 19.2813 1065.23 18.6726 1063.7 18.6699H933.36C932.558 18.6708 931.764 18.8388 931.03 19.1631C930.296 19.4874 929.638 19.9609 929.097 20.5535C928.556 21.1461 928.145 21.8449 927.889 22.6052C927.633 23.3656 927.538 24.1709 927.61 24.97L927.69 65.54C927.773 66.541 927.647 67.5481 927.321 68.498C926.995 69.448 926.475 70.3199 925.795 71.0586C925.114 71.7973 924.288 72.387 923.368 72.79C922.448 73.193 921.454 73.4006 920.45 73.3999H746.69C745.16 73.4025 743.694 74.0115 742.613 75.093C741.531 76.1745 740.923 77.6404 740.92 79.1699L740.5 168L739.42 167V79.1699C739.423 77.2426 740.189 75.395 741.552 74.0322C742.915 72.6694 744.763 71.9025 746.69 71.8999H920.45C921.251 71.9047 922.045 71.7406 922.779 71.4185C923.513 71.0963 924.171 70.6233 924.71 70.03C925.249 69.4361 925.66 68.7365 925.914 67.9756C926.169 67.2147 926.263 66.4092 926.19 65.6101L926.11 25.04C926.028 24.0381 926.155 23.0301 926.483 22.0796C926.81 21.1291 927.331 20.2569 928.012 19.5176C928.693 18.7782 929.519 18.188 930.44 17.7839C931.36 17.3799 932.355 17.1708 933.36 17.1699H1063.7C1065.63 17.1726 1067.47 17.9394 1068.84 19.3022C1070.2 20.6651 1070.97 22.5126 1070.97 24.4399V66.1299C1070.97 67.6602 1071.58 69.1279 1072.66 70.21C1073.74 71.292 1075.21 71.8999 1076.74 71.8999H1157.84V132.48C1157.83 134.4 1157.06 136.238 1155.69 137.592C1154.33 138.946 1152.49 139.707 1150.57 139.71Z" fill="black"/>
<path d="M1372.73 280.58C1377.67 280.58 1381.67 276.577 1381.67 271.64C1381.67 266.703 1377.67 262.7 1372.73 262.7C1367.79 262.7 1363.79 266.703 1363.79 271.64C1363.79 276.577 1367.79 280.58 1372.73 280.58Z" fill="black"/>
<path d="M1302.56 147.9C1307.5 147.9 1311.5 143.897 1311.5 138.96C1311.5 134.023 1307.5 130.02 1302.56 130.02C1297.62 130.02 1293.62 134.023 1293.62 138.96C1293.62 143.897 1297.62 147.9 1302.56 147.9Z" fill="black"/>
<path d="M1156.09 81.5601C1161.03 81.5601 1165.03 77.5575 1165.03 72.6201C1165.03 67.6826 1161.03 63.6801 1156.09 63.6801C1151.15 63.6801 1147.15 67.6826 1147.15 72.6201C1147.15 77.5575 1151.15 81.5601 1156.09 81.5601Z" fill="black"/>
<path d="M1251.28 287.52C1260.05 287.52 1267.16 280.41 1267.16 271.64C1267.16 262.87 1260.05 255.76 1251.28 255.76C1242.51 255.76 1235.4 262.87 1235.4 271.64C1235.4 280.41 1242.51 287.52 1251.28 287.52Z" fill="white"/>
<path d="M1251.28 288.25C1247.99 288.25 1244.77 287.274 1242.03 285.445C1239.3 283.616 1237.16 281.017 1235.91 277.976C1234.65 274.934 1234.32 271.588 1234.96 268.36C1235.6 265.132 1237.19 262.167 1239.52 259.84C1241.85 257.513 1244.81 255.929 1248.04 255.289C1251.27 254.648 1254.61 254.978 1257.65 256.239C1260.7 257.5 1263.29 259.635 1265.12 262.372C1266.95 265.11 1267.92 268.329 1267.92 271.62C1267.91 276.031 1266.16 280.259 1263.04 283.377C1259.92 286.495 1255.69 288.247 1251.28 288.25ZM1251.28 256.48C1248.29 256.48 1245.36 257.368 1242.87 259.031C1240.38 260.695 1238.44 263.06 1237.29 265.826C1236.15 268.593 1235.85 271.637 1236.43 274.574C1237.02 277.511 1238.46 280.208 1240.57 282.326C1242.69 284.443 1245.39 285.885 1248.33 286.469C1251.26 287.053 1254.31 286.753 1257.07 285.607C1259.84 284.461 1262.21 282.521 1263.87 280.031C1265.53 277.541 1266.42 274.614 1266.42 271.62C1266.41 267.609 1264.81 263.765 1261.98 260.93C1259.14 258.096 1255.29 256.503 1251.28 256.5V256.48Z" fill="black"/>
<path d="M1156.09 199.58C1164.86 199.58 1171.97 192.47 1171.97 183.7C1171.97 174.93 1164.86 167.82 1156.09 167.82C1147.32 167.82 1140.21 174.93 1140.21 183.7C1140.21 192.47 1147.32 199.58 1156.09 199.58Z" fill="white"/>
<path d="M1156.09 200.34C1152.8 200.342 1149.58 199.368 1146.84 197.54C1144.1 195.713 1141.97 193.115 1140.71 190.075C1139.45 187.034 1139.12 183.688 1139.76 180.46C1140.4 177.231 1141.98 174.265 1144.31 171.937C1146.64 169.609 1149.6 168.023 1152.83 167.38C1156.06 166.737 1159.4 167.066 1162.45 168.326C1165.49 169.585 1168.09 171.718 1169.91 174.454C1171.74 177.191 1172.72 180.408 1172.72 183.7C1172.71 188.109 1170.96 192.335 1167.84 195.454C1164.72 198.572 1160.5 200.329 1156.09 200.34ZM1156.09 168.57C1153.09 168.568 1150.17 169.454 1147.67 171.117C1145.18 172.78 1143.24 175.145 1142.09 177.912C1140.95 180.678 1140.65 183.723 1141.23 186.661C1141.81 189.599 1143.26 192.297 1145.37 194.415C1147.49 196.533 1150.19 197.976 1153.13 198.559C1156.07 199.143 1159.11 198.843 1161.88 197.695C1164.65 196.548 1167.01 194.606 1168.67 192.115C1170.34 189.624 1171.22 186.695 1171.22 183.7C1171.21 179.689 1169.62 175.843 1166.78 173.007C1163.95 170.171 1160.1 168.575 1156.09 168.57Z" fill="black"/>
<path d="M1054.9 199.6C1063.67 199.6 1070.78 192.49 1070.78 183.72C1070.78 174.95 1063.67 167.84 1054.9 167.84C1046.13 167.84 1039.02 174.95 1039.02 183.72C1039.02 192.49 1046.13 199.6 1054.9 199.6Z" fill="white"/>
<path d="M1054.9 200.35C1051.61 200.35 1048.39 199.374 1045.65 197.545C1042.92 195.716 1040.78 193.117 1039.53 190.076C1038.27 187.034 1037.94 183.688 1038.58 180.46C1039.22 177.232 1040.81 174.267 1043.14 171.94C1045.47 169.614 1048.43 168.029 1051.66 167.389C1054.89 166.748 1058.23 167.079 1061.27 168.34C1064.31 169.601 1066.91 171.735 1068.74 174.473C1070.57 177.211 1071.54 180.429 1071.54 183.72C1071.53 188.131 1069.78 192.359 1066.66 195.477C1063.54 198.595 1059.31 200.348 1054.9 200.35ZM1054.9 168.58C1051.91 168.58 1048.98 169.468 1046.49 171.132C1044 172.795 1042.06 175.16 1040.91 177.926C1039.77 180.693 1039.47 183.737 1040.05 186.674C1040.63 189.611 1042.08 192.308 1044.19 194.426C1046.31 196.543 1049.01 197.985 1051.95 198.569C1054.88 199.153 1057.93 198.854 1060.69 197.708C1063.46 196.562 1065.82 194.621 1067.49 192.131C1069.15 189.642 1070.04 186.714 1070.04 183.72C1070.04 179.706 1068.44 175.856 1065.6 173.017C1062.76 170.179 1058.91 168.583 1054.9 168.58Z" fill="black"/>
<path d="M997.82 33.77C1006.59 33.77 1013.7 26.6603 1013.7 17.89C1013.7 9.11973 1006.59 2.01001 997.82 2.01001C989.05 2.01001 981.94 9.11973 981.94 17.89C981.94 26.6603 989.05 33.77 997.82 33.77Z" fill="white"/>
<path d="M997.82 34.52C994.528 34.522 991.31 33.5476 988.573 31.7204C985.835 29.8932 983.701 27.2952 982.44 24.2548C981.179 21.2145 980.847 17.8684 981.488 14.6398C982.129 11.4113 983.713 8.44529 986.04 6.11714C988.367 3.789 991.332 2.20337 994.56 1.5605C997.788 0.917634 1001.13 1.24642 1004.18 2.50557C1007.22 3.76472 1009.82 5.89758 1011.64 8.63423C1013.47 11.3709 1014.45 14.5883 1014.45 17.8798C1014.45 22.2905 1012.69 26.5201 1009.58 29.6398C1006.46 32.7596 1002.23 34.5147 997.82 34.52ZM997.82 2.74996C994.825 2.74798 991.896 3.63448 989.405 5.29732C986.914 6.96016 984.971 9.32463 983.824 12.0915C982.677 14.8584 982.376 17.9035 982.96 20.8413C983.544 23.7791 984.986 26.4777 987.104 28.5957C989.222 30.7136 991.921 32.1556 994.859 32.7395C997.797 33.3233 1000.84 33.0228 1003.61 31.8757C1006.38 30.7285 1008.74 28.7864 1010.4 26.2951C1012.07 23.8038 1012.95 20.8751 1012.95 17.8798C1012.94 13.8687 1011.35 10.0235 1008.51 7.18721C1005.68 4.35093 1001.83 2.75525 997.82 2.74996Z" fill="black"/>
<path d="M1216.63 43.75C1225.4 43.75 1232.51 36.6403 1232.51 27.87C1232.51 19.0997 1225.4 11.99 1216.63 11.99C1207.86 11.99 1200.75 19.0997 1200.75 27.87C1200.75 36.6403 1207.86 43.75 1216.63 43.75Z" fill="white"/>
<path d="M1216.63 44.4999C1213.34 44.4999 1210.12 43.5239 1207.38 41.695C1204.65 39.8661 1202.51 37.2667 1201.26 34.2255C1200 31.1844 1199.67 27.8382 1200.31 24.61C1200.95 21.3819 1202.54 18.4168 1204.87 16.09C1207.2 13.7633 1210.16 12.1794 1213.39 11.5385C1216.62 10.8976 1219.96 11.2285 1223 12.4894C1226.04 13.7504 1228.64 15.8847 1230.47 18.6225C1232.3 21.3602 1233.27 24.5785 1233.27 27.8701C1233.26 32.2807 1231.51 36.509 1228.39 39.6269C1225.27 42.7448 1221.04 44.4973 1216.63 44.4999ZM1216.63 12.7299C1213.64 12.7299 1210.71 13.6178 1208.22 15.2814C1205.73 16.945 1203.79 19.3096 1202.64 22.0761C1201.5 24.8426 1201.2 27.8868 1201.78 30.8237C1202.36 33.7605 1203.81 36.4583 1205.92 38.5756C1208.04 40.693 1210.74 42.1348 1213.68 42.7189C1216.61 43.3031 1219.66 43.0033 1222.42 41.8574C1225.19 40.7114 1227.55 38.7709 1229.22 36.2812C1230.88 33.7914 1231.77 30.8645 1231.77 27.8701C1231.77 23.8555 1230.17 20.0059 1227.33 17.1672C1224.49 14.3284 1220.64 12.7326 1216.63 12.7299Z" fill="black"/>
<path d="M821.55 88.5C830.32 88.5 837.43 81.3903 837.43 72.62C837.43 63.8497 830.32 56.74 821.55 56.74C812.78 56.74 805.67 63.8497 805.67 72.62C805.67 81.3903 812.78 88.5 821.55 88.5Z" fill="white"/>
<path d="M821.55 89.25C818.258 89.2519 815.04 88.2776 812.302 86.4504C809.565 84.6232 807.43 82.0252 806.169 78.9848C804.908 75.9444 804.578 72.5983 805.218 69.3698C805.859 66.1413 807.443 63.1753 809.77 60.8471C812.097 58.519 815.062 56.9334 818.29 56.2905C821.518 55.6476 824.864 55.9764 827.905 57.2356C830.947 58.4947 833.546 60.6276 835.375 63.3642C837.204 66.1009 838.18 69.3186 838.18 72.6101C838.175 77.0199 836.421 81.2477 833.304 84.3669C830.187 87.4861 825.96 89.242 821.55 89.25ZM821.55 57.4799C818.554 57.478 815.626 58.3645 813.135 60.0273C810.643 61.6901 808.701 64.0546 807.554 66.8215C806.407 69.5884 806.107 72.6334 806.69 75.5712C807.274 78.509 808.716 81.2077 810.834 83.3256C812.952 85.4436 815.651 86.8856 818.589 87.4694C821.526 88.0533 824.571 87.7528 827.338 86.6057C830.105 85.4585 832.47 83.5164 834.133 81.0251C835.795 78.5338 836.682 75.6053 836.68 72.6101C836.675 68.599 835.079 64.7535 832.243 61.9172C829.406 59.0809 825.561 57.4852 821.55 57.4799Z" fill="black"/>
<path d="M1277.93 72.6101H1276.43V34.3899C1276.43 32.8596 1275.82 31.3921 1274.74 30.3101C1273.66 29.228 1272.19 28.6201 1270.66 28.6201H1232.51V27.1201H1270.63C1272.56 27.1228 1274.4 27.8894 1275.77 29.2522C1277.13 30.615 1277.9 32.4626 1277.9 34.3899L1277.93 72.6101Z" fill="black"/>
<path d="M1277.19 81.5601C1282.13 81.5601 1286.13 77.5575 1286.13 72.6201C1286.13 67.6826 1282.13 63.6801 1277.19 63.6801C1272.25 63.6801 1268.25 67.6826 1268.25 72.6201C1268.25 77.5575 1272.25 81.5601 1277.19 81.5601Z" fill="black"/>
<path d="M1440 272.39L1183.35 272.13C1181.42 272.127 1179.58 271.361 1178.21 269.998C1176.85 268.635 1176.08 266.787 1176.08 264.86V223.17C1176.08 221.64 1175.47 220.175 1174.39 219.093C1173.31 218.012 1171.84 217.403 1170.31 217.4L830.5 217V215.5L1170.31 215.9C1172.24 215.903 1174.08 216.669 1175.45 218.032C1176.81 219.395 1177.58 221.243 1177.58 223.17V264.86C1177.58 266.39 1178.19 267.858 1179.27 268.94C1180.35 270.022 1181.82 270.63 1183.35 270.63L1440 270.89V272.39Z" fill="black"/>
<path d="M1384.89 271.38H1383.39V145.25C1383.39 143.721 1382.78 142.254 1381.7 141.173C1380.62 140.091 1379.15 139.483 1377.62 139.48H1276.22C1274.69 139.483 1273.22 140.091 1272.14 141.173C1271.06 142.254 1270.45 143.721 1270.45 145.25V176.99C1270.45 178.917 1269.68 180.765 1268.32 182.128C1266.95 183.491 1265.11 184.257 1263.18 184.26H697V182.76H1263.18C1264.71 182.76 1266.18 182.152 1267.26 181.07C1268.34 179.988 1268.95 178.52 1268.95 176.99V145.25C1268.95 143.323 1269.72 141.475 1271.08 140.112C1272.44 138.749 1274.29 137.983 1276.22 137.98H1377.63C1379.56 137.983 1381.4 138.749 1382.77 140.112C1384.13 141.475 1384.9 143.323 1384.9 145.25L1384.89 271.38Z" fill="black"/>
<path d="M1313.23 138.7V79.3701C1313.3 78.5742 1313.2 77.7732 1312.94 77.0176C1312.68 76.262 1312.27 75.5682 1311.73 74.98C1311.19 74.3918 1310.53 73.922 1309.8 73.6001C1309.07 73.2782 1308.28 73.1115 1307.48 73.1101H1158.63V71.6101H1307.51C1308.51 71.6115 1309.5 71.819 1310.42 72.22C1311.33 72.6209 1312.16 73.2066 1312.84 73.9404C1313.52 74.6743 1314.04 75.5406 1314.37 76.4851C1314.7 77.4296 1314.83 78.432 1314.76 79.4299V138.7H1313.23Z" fill="black"/>
<mask id="path-45-inside-1_1025_1711" fill="white">
<path d="M828 139.71V138.12L994.935 137.99H1162C1163.53 137.99 1165 137.382 1166.08 136.3C1167.16 135.218 1167.77 133.75 1167.77 132.22V73.1499H1088.17C1086.24 73.1473 1084.4 72.3806 1083.03 71.0178C1081.67 69.655 1080.9 67.8072 1080.9 65.8799V24.1499C1080.9 22.6204 1080.29 21.1545 1079.21 20.073C1078.13 18.9915 1076.66 18.3825 1075.13 18.3799H944.77C943.968 18.3793 943.176 18.5461 942.442 18.8694C941.709 19.1926 941.051 19.6653 940.511 20.2573C939.97 20.8493 939.56 21.5475 939.305 22.3074C939.05 23.0672 938.956 23.8719 939.03 24.6699L939.1 65.25C939.183 66.2509 939.057 67.2581 938.731 68.208C938.405 69.1579 937.885 70.0298 937.205 70.7686C936.524 71.5073 935.698 72.097 934.778 72.5C933.858 72.903 932.864 73.1108 931.86 73.1101H758.11C756.58 73.1128 755.114 73.7215 754.033 74.803C752.951 75.8845 752.342 77.3504 752.34 78.8799L752 166.67H750.84V78.8799C750.842 76.9526 751.609 75.105 752.972 73.7422C754.335 72.3794 756.183 71.6128 758.11 71.6101H931.86C932.661 71.6091 933.454 71.4413 934.187 71.1177C934.92 70.794 935.578 70.3212 936.118 69.7297C936.659 69.1382 937.071 68.4408 937.328 67.6816C937.585 66.9225 937.681 66.1183 937.61 65.3201L937.53 24.74C937.447 23.7391 937.572 22.7319 937.899 21.782C938.225 20.8321 938.745 19.9602 939.425 19.2214C940.106 18.4827 940.932 17.893 941.852 17.49C942.772 17.087 943.765 16.8792 944.77 16.8799H1075.11C1077.04 16.8825 1078.88 17.6494 1080.25 19.0122C1081.61 20.375 1082.38 22.2226 1082.38 24.1499V65.8401C1082.38 67.3696 1082.99 68.8355 1084.07 69.917C1085.15 70.9985 1086.62 71.6075 1088.15 71.6101H1169.25V132.18C1169.25 134.107 1168.48 135.955 1167.12 137.318C1165.75 138.68 1163.91 139.447 1161.98 139.45L829 139.709L828 139.71Z"/>
</mask>
<path d="M828 139.71V138.12L994.935 137.99H1162C1163.53 137.99 1165 137.382 1166.08 136.3C1167.16 135.218 1167.77 133.75 1167.77 132.22V73.1499H1088.17C1086.24 73.1473 1084.4 72.3806 1083.03 71.0178C1081.67 69.655 1080.9 67.8072 1080.9 65.8799V24.1499C1080.9 22.6204 1080.29 21.1545 1079.21 20.073C1078.13 18.9915 1076.66 18.3825 1075.13 18.3799H944.77C943.968 18.3793 943.176 18.5461 942.442 18.8694C941.709 19.1926 941.051 19.6653 940.511 20.2573C939.97 20.8493 939.56 21.5475 939.305 22.3074C939.05 23.0672 938.956 23.8719 939.03 24.6699L939.1 65.25C939.183 66.2509 939.057 67.2581 938.731 68.208C938.405 69.1579 937.885 70.0298 937.205 70.7686C936.524 71.5073 935.698 72.097 934.778 72.5C933.858 72.903 932.864 73.1108 931.86 73.1101H758.11C756.58 73.1128 755.114 73.7215 754.033 74.803C752.951 75.8845 752.342 77.3504 752.34 78.8799L752 166.67H750.84V78.8799C750.842 76.9526 751.609 75.105 752.972 73.7422C754.335 72.3794 756.183 71.6128 758.11 71.6101H931.86C932.661 71.6091 933.454 71.4413 934.187 71.1177C934.92 70.794 935.578 70.3212 936.118 69.7297C936.659 69.1382 937.071 68.4408 937.328 67.6816C937.585 66.9225 937.681 66.1183 937.61 65.3201L937.53 24.74C937.447 23.7391 937.572 22.7319 937.899 21.782C938.225 20.8321 938.745 19.9602 939.425 19.2214C940.106 18.4827 940.932 17.893 941.852 17.49C942.772 17.087 943.765 16.8792 944.77 16.8799H1075.11C1077.04 16.8825 1078.88 17.6494 1080.25 19.0122C1081.61 20.375 1082.38 22.2226 1082.38 24.1499V65.8401C1082.38 67.3696 1082.99 68.8355 1084.07 69.917C1085.15 70.9985 1086.62 71.6075 1088.15 71.6101H1169.25V132.18C1169.25 134.107 1168.48 135.955 1167.12 137.318C1165.75 138.68 1163.91 139.447 1161.98 139.45L829 139.709L828 139.71Z" fill="black"/>
<path d="M828 139.71H778V189.749L828.039 189.71L828 139.71ZM828 138.12L827.961 88.12L778 88.1589V138.12H828ZM1167.77 73.1499H1217.77V23.1499H1167.77V73.1499ZM1088.17 73.1499L1088.1 123.15L1088.14 123.15H1088.17V73.1499ZM1080.9 65.8799H1030.9V65.9142L1030.9 65.9485L1080.9 65.8799ZM1080.9 24.1499H1130.9V24.1067L1130.9 24.0635L1080.9 24.1499ZM1075.13 18.3799L1075.22 -31.62L1075.17 -31.6201H1075.13V18.3799ZM944.77 18.3799L944.731 68.3799L944.751 68.3799H944.77V18.3799ZM939.03 24.6699L989.03 24.5836L989.026 22.3216L988.818 20.0692L939.03 24.6699ZM939.1 65.25L889.1 65.3363L889.103 67.3628L889.271 69.3822L939.1 65.25ZM931.86 73.1101L931.893 23.1101L931.877 23.1101H931.86V73.1101ZM758.11 73.1101V23.1101H758.067L758.023 23.1102L758.11 73.1101ZM752.34 78.8799L802.339 79.0734L802.34 79.0199L802.34 78.9663L752.34 78.8799ZM752 166.67V216.67H801.807L802 166.863L752 166.67ZM750.84 166.67H700.84V216.67H750.84V166.67ZM750.84 78.8799L700.84 78.8112L700.84 78.8456V78.8799H750.84ZM758.11 71.6101V21.6101H758.076L758.041 21.6102L758.11 71.6101ZM931.86 71.6101V121.61H931.892L931.924 121.61L931.86 71.6101ZM937.61 65.3201L887.61 65.4187L887.614 67.5795L887.805 69.7319L937.61 65.3201ZM937.53 24.74L987.53 24.6413L987.526 22.6211L987.359 20.6077L937.53 24.74ZM944.77 16.8799L944.736 66.8799L944.753 66.8799H944.77V16.8799ZM1075.11 16.8799L1075.18 -33.1201L1075.14 -33.1201H1075.11V16.8799ZM1082.38 24.1499H1132.38V24.1156L1132.38 24.0813L1082.38 24.1499ZM1082.38 65.8401H1032.38V65.8833L1032.38 65.9265L1082.38 65.8401ZM1088.15 71.6101L1088.06 121.61L1088.11 121.61H1088.15V71.6101ZM1169.25 71.6101H1219.25V21.6101H1169.25V71.6101ZM1169.25 132.18L1219.25 132.249L1219.25 132.214V132.18H1169.25ZM1161.98 139.45L1162.02 189.45L1162.03 189.45L1162.05 189.45L1161.98 139.45ZM994.935 137.99V87.99H994.916L994.896 87.99L994.935 137.99ZM829 139.709L829.039 189.709H829.039L829 139.709ZM878 139.71V138.12H778V139.71H878ZM1162 187.99C1176.79 187.99 1190.98 182.114 1201.44 171.655L1130.72 100.945C1139.02 92.6503 1150.27 87.99 1162 87.99V187.99ZM1201.44 171.655C1211.9 161.195 1217.77 147.009 1217.77 132.22H1117.77C1117.77 120.491 1122.43 109.241 1130.72 100.945L1201.44 171.655ZM1217.77 132.22V73.1499H1117.77V132.22H1217.77ZM1167.77 23.1499H1088.17V123.15H1167.77V23.1499ZM1088.24 23.1499C1099.55 23.1655 1110.39 27.6634 1118.39 35.6625L1047.68 106.373C1058.4 117.098 1072.94 123.129 1088.1 123.15L1088.24 23.1499ZM1118.39 35.6625C1126.38 43.6598 1130.88 54.5018 1130.9 65.8112L1030.9 65.9485C1030.92 81.1126 1036.95 95.6502 1047.68 106.373L1118.39 35.6625ZM1130.9 65.8799V24.1499H1030.9V65.8799H1130.9ZM1130.9 24.0635C1130.87 9.30241 1125 -4.84569 1114.56 -15.2823L1043.85 55.4283C1035.58 47.1547 1030.92 35.9384 1030.9 24.2363L1130.9 24.0635ZM1114.56 -15.2823C1104.13 -25.7167 1089.98 -31.5945 1075.22 -31.62L1075.04 68.3798C1063.34 68.3596 1052.12 63.6997 1043.85 55.4283L1114.56 -15.2823ZM1075.13 -31.6201H944.77V68.3799H1075.13V-31.6201ZM944.808 -31.6201C937.041 -31.6261 929.367 -30.0091 922.275 -26.8833L962.609 64.622C956.984 67.1013 950.896 68.3846 944.731 68.3799L944.808 -31.6201ZM922.275 -26.8833C915.177 -23.7542 908.808 -19.1781 903.578 -13.4464L977.444 53.961C973.294 58.5087 968.241 62.1395 962.609 64.622L922.275 -26.8833ZM903.578 -13.4464C898.35 -7.71752 894.372 -0.95874 891.903 6.3996L986.707 38.2151C984.747 44.0538 981.591 49.4162 977.444 53.961L903.578 -13.4464ZM891.903 6.3996C889.435 13.7534 888.528 21.543 889.242 29.2706L988.818 20.0692C989.384 26.2007 988.665 32.381 986.707 38.2151L891.903 6.3996ZM889.03 24.7563L889.1 65.3363L989.1 65.1637L989.03 24.5836L889.03 24.7563ZM889.271 69.3822C888.782 63.4862 889.523 57.5564 891.442 51.9675L986.02 84.4485C988.592 76.9598 989.584 69.0157 988.929 61.1178L889.271 69.3822ZM891.442 51.9675C893.361 46.3784 896.42 41.2448 900.429 36.8934L973.981 104.644C979.35 98.8148 983.448 91.9375 986.02 84.4485L891.442 51.9675ZM900.429 36.8934C904.431 32.5487 909.294 29.0765 914.715 26.7016L954.84 118.298C962.102 115.118 968.618 110.466 973.981 104.644L900.429 36.8934ZM914.715 26.7016C920.13 24.3294 925.98 23.1062 931.893 23.1101L931.827 123.11C939.749 123.115 947.585 121.477 954.84 118.298L914.715 26.7016ZM931.86 23.1101H758.11V123.11H931.86V23.1101ZM758.023 23.1102C743.265 23.1357 729.116 29.0094 718.677 39.4476L789.388 110.158C781.113 118.434 769.896 123.09 758.196 123.11L758.023 23.1102ZM718.677 39.4476C708.241 49.8843 702.365 64.0324 702.34 78.7935L802.34 78.9663C802.32 90.6684 797.662 101.885 789.388 110.158L718.677 39.4476ZM702.34 78.6863L702 166.476L802 166.863L802.339 79.0734L702.34 78.6863ZM752 116.67H750.84V216.67H752V116.67ZM800.84 166.67V78.8799H700.84V166.67H800.84ZM800.84 78.9485C800.824 90.2598 796.324 101.101 788.328 109.098L717.617 38.3868C706.895 49.1086 700.861 63.6453 700.84 78.8112L800.84 78.9485ZM788.328 109.098C780.328 117.097 769.485 121.595 758.178 121.61L758.041 21.6102C742.88 21.631 728.342 27.6621 717.617 38.3868L788.328 109.098ZM758.11 121.61H931.86V21.6101H758.11V121.61ZM931.924 121.61C939.661 121.6 947.308 119.981 954.381 116.858L913.993 25.3771C919.599 22.9019 925.662 21.6181 931.795 21.6101L931.924 121.61ZM954.381 116.858C961.462 113.732 967.809 109.169 973.022 103.465L899.214 35.994C903.347 31.4738 908.378 27.8561 913.993 25.3771L954.381 116.858ZM973.022 103.465C978.235 97.7636 982.212 91.0344 984.693 83.6998L889.963 51.6635C891.93 45.8472 895.084 40.5129 899.214 35.994L973.022 103.465ZM984.693 83.6998C987.172 76.3697 988.097 68.6081 987.415 60.9083L887.805 69.7319C887.264 63.6286 887.998 57.4753 889.963 51.6635L984.693 83.6998ZM987.61 65.2214L987.53 24.6413L887.53 24.8387L887.61 65.4187L987.61 65.2214ZM987.359 20.6077C987.848 26.5038 987.107 32.4336 985.188 38.0225L890.61 5.54147C888.038 13.0302 887.046 20.9743 887.701 28.8722L987.359 20.6077ZM985.188 38.0225C983.268 43.6116 980.209 48.7452 976.201 53.0966L902.649 -14.6537C897.28 -8.82482 893.182 -1.94747 890.61 5.54147L985.188 38.0225ZM976.201 53.0966C972.196 57.4448 967.331 60.9155 961.915 63.2884L921.789 -28.3084C914.533 -25.1295 908.015 -20.4794 902.649 -14.6537L976.201 53.0966ZM961.915 63.2884C956.501 65.6599 950.652 66.8838 944.736 66.8799L944.803 -33.1201C936.879 -33.1254 929.043 -31.4859 921.789 -28.3084L961.915 63.2884ZM944.77 66.8799H1075.11V-33.1201H944.77V66.8799ZM1075.04 66.8798C1063.73 66.8643 1052.89 62.3636 1044.89 54.3675L1115.6 -16.3431C1104.88 -27.0648 1090.34 -33.0993 1075.18 -33.1201L1075.04 66.8798ZM1044.89 54.3675C1036.9 46.3715 1032.4 35.5298 1032.38 24.2185L1132.38 24.0813C1132.36 8.91536 1126.32 -5.62142 1115.6 -16.3431L1044.89 54.3675ZM1032.38 24.1499V65.8401H1132.38V24.1499H1032.38ZM1032.38 65.9265C1032.41 80.6876 1038.28 94.8357 1048.72 105.272L1119.43 34.5617C1127.7 42.8353 1132.36 54.0516 1132.38 65.7537L1032.38 65.9265ZM1048.72 105.272C1059.15 115.707 1073.3 121.585 1088.06 121.61L1088.24 21.6102C1099.94 21.6304 1111.16 26.2903 1119.43 34.5617L1048.72 105.272ZM1088.15 121.61H1169.25V21.6101H1088.15V121.61ZM1119.25 71.6101V132.18H1219.25V71.6101H1119.25ZM1119.25 132.111C1119.27 120.8 1123.77 109.958 1131.76 101.962L1202.47 172.673C1213.19 161.951 1219.23 147.414 1219.25 132.249L1119.25 132.111ZM1131.76 101.962C1139.76 93.9662 1150.6 89.4655 1161.91 89.45L1162.05 189.45C1177.21 189.429 1191.75 183.395 1202.47 172.673L1131.76 101.962ZM828.039 188.12L994.974 187.99L994.896 87.99L827.961 88.12L828.039 188.12ZM994.935 187.99H1162V87.99H994.935V187.99ZM1161.94 89.45L828.961 89.7092L829.039 189.709L1162.02 189.45L1161.94 89.45ZM828.961 89.7092L827.961 89.71L828.039 189.71L829.039 189.709L828.961 89.7092Z" fill="black" mask="url(#path-45-inside-1_1025_1711)"/>
<path d="M1384.14 280.33C1389.08 280.33 1393.08 276.327 1393.08 271.39C1393.08 266.453 1389.08 262.45 1384.14 262.45C1379.2 262.45 1375.2 266.453 1375.2 271.39C1375.2 276.327 1379.2 280.33 1384.14 280.33Z" fill="black"/>
<path d="M1313.98 147.65C1318.92 147.65 1322.92 143.647 1322.92 138.71C1322.92 133.773 1318.92 129.77 1313.98 129.77C1309.04 129.77 1305.04 133.773 1305.04 138.71C1305.04 143.647 1309.04 147.65 1313.98 147.65Z" fill="black"/>
<path d="M1167.51 81.3101C1172.45 81.3101 1176.45 77.3075 1176.45 72.3701C1176.45 67.4326 1172.45 63.4301 1167.51 63.4301C1162.57 63.4301 1158.57 67.4326 1158.57 72.3701C1158.57 77.3075 1162.57 81.3101 1167.51 81.3101Z" fill="black"/>
<path d="M1262.7 287.27C1271.47 287.27 1278.58 280.16 1278.58 271.39C1278.58 262.62 1271.47 255.51 1262.7 255.51C1253.93 255.51 1246.82 262.62 1246.82 271.39C1246.82 280.16 1253.93 287.27 1262.7 287.27Z" fill="#2C39F2"/>
<path d="M1262.7 288.02C1259.41 288.022 1256.19 287.048 1253.45 285.22C1250.71 283.393 1248.58 280.795 1247.32 277.755C1246.06 274.714 1245.73 271.368 1246.37 268.14C1247.01 264.911 1248.59 261.945 1250.92 259.617C1253.25 257.289 1256.21 255.703 1259.44 255.061C1262.67 254.418 1266.01 254.746 1269.06 256.006C1272.1 257.265 1274.7 259.398 1276.52 262.134C1278.35 264.871 1279.33 268.088 1279.33 271.38C1279.33 275.79 1277.57 280.02 1274.46 283.14C1271.34 286.26 1267.11 288.015 1262.7 288.02ZM1262.7 256.25C1259.7 256.248 1256.78 257.134 1254.28 258.797C1251.79 260.46 1249.85 262.825 1248.7 265.592C1247.56 268.358 1247.26 271.403 1247.84 274.341C1248.42 277.279 1249.87 279.978 1251.98 282.096C1254.1 284.214 1256.8 285.656 1259.74 286.239C1262.68 286.823 1265.72 286.523 1268.49 285.376C1271.26 284.229 1273.62 282.286 1275.28 279.795C1276.95 277.304 1277.83 274.375 1277.83 271.38C1277.82 267.369 1276.23 263.523 1273.39 260.687C1270.56 257.851 1266.71 256.255 1262.7 256.25Z" fill="black"/>
<path d="M1167.51 199.33C1176.28 199.33 1183.39 192.22 1183.39 183.45C1183.39 174.68 1176.28 167.57 1167.51 167.57C1158.74 167.57 1151.63 174.68 1151.63 183.45C1151.63 192.22 1158.74 199.33 1167.51 199.33Z" fill="white"/>
<path d="M1167.5 200.08C1164.21 200.08 1160.99 199.104 1158.25 197.275C1155.52 195.446 1153.38 192.847 1152.13 189.806C1150.87 186.764 1150.54 183.418 1151.18 180.19C1151.82 176.962 1153.41 173.997 1155.74 171.67C1158.07 169.344 1161.03 167.759 1164.26 167.119C1167.49 166.478 1170.83 166.809 1173.87 168.07C1176.92 169.331 1179.51 171.465 1181.34 174.203C1183.17 176.941 1184.14 180.159 1184.14 183.45C1184.13 187.861 1182.38 192.089 1179.26 195.207C1176.14 198.325 1171.91 200.078 1167.5 200.08ZM1167.5 168.31C1164.51 168.308 1161.58 169.194 1159.09 170.857C1156.59 172.519 1154.65 174.883 1153.51 177.649C1152.36 180.416 1152.06 183.46 1152.64 186.398C1153.22 189.335 1154.66 192.034 1156.78 194.152C1158.9 196.271 1161.6 197.713 1164.53 198.298C1167.47 198.883 1170.51 198.584 1173.28 197.439C1176.05 196.293 1178.41 194.352 1180.08 191.862C1181.74 189.372 1182.63 186.445 1182.63 183.45C1182.63 179.437 1181.03 175.59 1178.2 172.751C1175.36 169.913 1171.51 168.315 1167.5 168.31Z" fill="black"/>
<path d="M1066.32 199.35C1075.09 199.35 1082.2 192.24 1082.2 183.47C1082.2 174.7 1075.09 167.59 1066.32 167.59C1057.55 167.59 1050.44 174.7 1050.44 183.47C1050.44 192.24 1057.55 199.35 1066.32 199.35Z" fill="white"/>
<path d="M1066.32 200.1C1063.03 200.102 1059.81 199.128 1057.07 197.3C1054.33 195.473 1052.2 192.875 1050.94 189.835C1049.68 186.794 1049.35 183.448 1049.99 180.22C1050.63 176.991 1052.21 174.025 1054.54 171.697C1056.87 169.369 1059.83 167.783 1063.06 167.14C1066.29 166.497 1069.63 166.826 1072.68 168.086C1075.72 169.345 1078.32 171.478 1080.14 174.214C1081.97 176.951 1082.95 180.168 1082.95 183.46C1082.95 187.871 1081.19 192.1 1078.08 195.22C1074.96 198.339 1070.73 200.095 1066.32 200.1ZM1066.32 168.33C1063.32 168.328 1060.4 169.214 1057.9 170.877C1055.41 172.54 1053.47 174.905 1052.32 177.672C1051.18 180.438 1050.88 183.483 1051.46 186.421C1052.04 189.359 1053.49 192.057 1055.6 194.175C1057.72 196.293 1060.42 197.736 1063.36 198.319C1066.3 198.903 1069.34 198.603 1072.11 197.455C1074.88 196.308 1077.24 194.366 1078.9 191.875C1080.57 189.384 1081.45 186.455 1081.45 183.46C1081.44 179.449 1079.85 175.604 1077.01 172.767C1074.18 169.931 1070.33 168.335 1066.32 168.33Z" fill="black"/>
<path d="M1009.24 33.51C1018.01 33.51 1025.12 26.4003 1025.12 17.63C1025.12 8.85972 1018.01 1.75 1009.24 1.75C1000.47 1.75 993.36 8.85972 993.36 17.63C993.36 26.4003 1000.47 33.51 1009.24 33.51Z" fill="#2C39F2"/>
<path d="M1009.23 34.25C1005.94 34.25 1002.72 33.2739 999.985 31.4455C997.249 29.6171 995.116 27.0183 993.856 23.9777C992.597 20.9372 992.268 17.5916 992.91 14.3637C993.552 11.1359 995.136 8.17085 997.464 5.8437C999.791 3.51656 1002.76 1.9318 1005.98 1.28975C1009.21 0.647688 1012.56 0.977081 1015.6 2.23652C1018.64 3.49597 1021.24 5.62875 1023.07 8.36519C1024.89 11.1016 1025.87 14.319 1025.87 17.6101C1025.86 22.0216 1024.11 26.2509 1020.99 29.3703C1017.87 32.4898 1013.64 34.2447 1009.23 34.25ZM1009.23 2.47993C1006.24 2.47993 1003.31 3.36813 1000.82 5.03218C998.328 6.69622 996.387 9.06126 995.241 11.8283C994.096 14.5954 993.797 17.6402 994.382 20.5773C994.967 23.5145 996.409 26.2121 998.528 28.3291C1000.65 30.446 1003.34 31.8871 1006.28 32.4702C1009.22 33.0532 1012.26 32.7521 1015.03 31.6047C1017.8 30.4572 1020.16 28.5152 1021.82 26.0241C1023.49 23.533 1024.37 20.6049 1024.37 17.6101C1024.36 13.6007 1022.76 9.75895 1019.92 6.92671C1017.08 4.09446 1013.24 2.50258 1009.23 2.49995V2.47993Z" fill="black"/>
<path d="M1228.04 43.5C1236.81 43.5 1243.92 36.3903 1243.92 27.62C1243.92 18.8497 1236.81 11.74 1228.04 11.74C1219.27 11.74 1212.16 18.8497 1212.16 27.62C1212.16 36.3903 1219.27 43.5 1228.04 43.5Z" fill="white"/>
<path d="M1228.04 44.2499C1224.75 44.2519 1221.53 43.2773 1218.79 41.4496C1216.05 39.622 1213.92 37.0233 1212.66 33.9824C1211.4 30.9414 1211.07 27.5949 1211.71 24.3662C1212.35 21.1374 1213.94 18.1714 1216.26 15.8437C1218.59 13.5159 1221.56 11.931 1224.79 11.2892C1228.02 10.6475 1231.36 10.9778 1234.4 12.2385C1237.44 13.4991 1240.04 15.6336 1241.87 18.3715C1243.7 21.1095 1244.67 24.3281 1244.67 27.6201C1244.66 32.029 1242.91 36.2556 1239.79 39.3732C1236.68 42.4908 1232.45 44.2447 1228.04 44.2499ZM1228.04 12.4799C1225.05 12.4779 1222.12 13.3642 1219.63 15.0266C1217.13 16.689 1215.19 19.053 1214.05 21.8193C1212.9 24.5856 1212.6 27.63 1213.18 30.5676C1213.76 33.5051 1215.2 36.2036 1217.32 38.322C1219.44 40.4403 1222.14 41.8832 1225.07 42.4682C1228.01 43.0532 1231.05 42.754 1233.82 41.6083C1236.59 40.4627 1238.95 38.5224 1240.62 36.0324C1242.28 33.5424 1243.17 30.6149 1243.17 27.6201C1243.17 23.6072 1241.57 19.7593 1238.74 16.9208C1235.9 14.0824 1232.05 12.4852 1228.04 12.4799Z" fill="black"/>
<path d="M832.97 88.25C841.74 88.25 848.85 81.1403 848.85 72.37C848.85 63.5997 841.74 56.49 832.97 56.49C824.2 56.49 817.09 63.5997 817.09 72.37C817.09 81.1403 824.2 88.25 832.97 88.25Z" fill="white"/>
<path d="M832.96 89C829.669 89 826.451 88.0239 823.715 86.1955C820.979 84.3671 818.846 81.7683 817.586 78.7277C816.327 75.6872 815.998 72.3416 816.64 69.1137C817.282 65.8859 818.866 62.9208 821.194 60.5937C823.521 58.2666 826.486 56.6818 829.714 56.0397C832.941 55.3977 836.287 55.7271 839.328 56.9865C842.368 58.246 844.967 60.3788 846.796 63.1152C848.624 65.8516 849.6 69.069 849.6 72.3601C849.595 76.7716 847.84 81.0009 844.72 84.1203C841.601 87.2398 837.371 88.9947 832.96 89ZM832.96 57.2299C829.965 57.2299 827.038 58.1181 824.548 59.7822C822.058 61.4462 820.117 63.8113 818.971 66.5783C817.826 69.3454 817.527 72.3902 818.112 75.3273C818.697 78.2645 820.139 80.9621 822.258 83.0791C824.376 85.196 827.075 86.6371 830.012 87.2202C832.95 87.8032 835.994 87.5021 838.761 86.3547C841.527 85.2072 843.891 83.2652 845.553 80.7741C847.216 78.283 848.102 75.3549 848.1 72.3601C848.089 68.3507 846.49 64.509 843.652 61.6767C840.814 58.8445 836.969 57.2526 832.96 57.25V57.2299Z" fill="black"/>
<path d="M1289.35 72.3601H1287.85V34.1399C1287.85 32.6096 1287.24 31.1421 1286.16 30.0601C1285.08 28.978 1283.61 28.3701 1282.08 28.3701H1243.92V26.8701H1282.08C1284.01 26.8728 1285.85 27.6394 1287.22 29.0022C1288.58 30.365 1289.35 32.2126 1289.35 34.1399V72.3601Z" fill="black"/>
<path d="M1288.6 81.3101C1293.54 81.3101 1297.54 77.3075 1297.54 72.3701C1297.54 67.4326 1293.54 63.4301 1288.6 63.4301C1283.66 63.4301 1279.66 67.4326 1279.66 72.3701C1279.66 77.3075 1283.66 81.3101 1288.6 81.3101Z" fill="black"/>
<path fill-rule="evenodd" clip-rule="evenodd" d="M829 139V167H828V139H829Z" fill="black"/>
</svg>
