<svg width="375" height="228" viewBox="0 0 375 228" fill="none" xmlns="http://www.w3.org/2000/svg">
<g clip-path="url(#clip0_1033_1603)">
<path d="M367.926 202L367.926 376.181L366.864 376.181L366.864 202C366.862 200.922 366.431 199.889 365.665 199.127C364.899 198.365 363.862 197.936 362.779 197.934L335.615 197.934C334.25 197.933 332.942 197.392 331.978 196.432C331.013 195.472 330.47 194.17 330.468 192.813L330.468 97.4754C330.468 96.5412 330.095 95.6453 329.431 94.9846C328.767 94.324 327.867 93.9528 326.928 93.9528L273.393 93.9528C272.029 93.9509 270.722 93.4105 269.758 92.4501C268.795 91.4898 268.253 90.188 268.253 88.8308L268.253 -17.2995L269.315 -17.2995L269.315 88.8167C269.315 89.8936 269.745 90.9267 270.509 91.6888C271.274 92.451 272.311 92.88 273.393 92.8819L326.928 92.8819C328.152 92.8819 329.327 93.3658 330.192 94.2273C331.058 95.0887 331.544 96.2571 331.544 97.4754L331.544 192.813C331.546 193.89 331.977 194.923 332.743 195.685C333.508 196.447 334.546 196.876 335.629 196.878L362.793 196.878C364.155 196.883 365.459 197.425 366.421 198.385C367.383 199.345 367.924 200.644 367.926 202Z" fill="black"/>
<path d="M205.497 -17.2996L205.497 168.388C205.495 169.746 204.941 171.049 203.957 172.009C202.973 172.97 201.639 173.511 200.247 173.513L170.14 173.513C169.035 173.513 167.975 173.941 167.193 174.704C166.412 175.467 165.973 176.501 165.973 177.58L165.973 291.07L164.89 291.07L164.89 177.58C164.892 176.221 165.445 174.919 166.43 173.958C167.414 172.998 168.748 172.457 170.14 172.455L200.247 172.455C201.351 172.453 202.41 172.024 203.191 171.262C203.972 170.5 204.412 169.466 204.414 168.388L204.414 -17.2996L205.497 -17.2996Z" fill="black"/>
<path d="M331.01 157.855L331.01 158.907L289.665 158.907C288.597 158.901 287.57 159.311 286.804 160.049C286.039 160.786 285.598 161.792 285.575 162.849L285.313 291.07L284.25 291.07L284.512 162.842C284.538 161.509 285.093 160.239 286.057 159.307C287.022 158.375 288.317 157.856 289.665 157.862L331.01 157.855Z" fill="black"/>
<path d="M204.266 25.8722L204.266 26.9314L115.822 26.9314C114.749 26.9314 113.72 27.3607 112.962 28.1248C112.203 28.8889 111.777 29.925 111.777 31.0056L111.777 102.605C111.777 103.685 112.203 104.721 112.962 105.485C113.72 106.249 114.749 106.679 115.822 106.679L138.094 106.679C139.446 106.681 140.741 107.222 141.696 108.184C142.652 109.147 143.189 110.451 143.191 111.812L143.191 291.07L142.139 291.07L142.139 111.812C142.138 110.732 141.711 109.697 140.953 108.933C140.194 108.17 139.167 107.74 138.094 107.738L115.843 107.738C114.492 107.736 113.197 107.195 112.241 106.232C111.286 105.27 110.748 103.965 110.747 102.605L110.747 31.0056C110.748 29.6447 111.286 28.3401 112.241 27.3779C113.197 26.4156 114.492 25.8741 115.843 25.8722L204.266 25.8722Z" fill="black"/>
<path d="M110.747 76.278L69.3945 76.278C68.8399 76.2308 68.2816 76.3014 67.7551 76.4854C67.2286 76.6693 66.7451 76.9626 66.3352 77.3467C65.9253 77.7308 65.5979 78.1974 65.3736 78.7171C65.1493 79.2368 65.0331 79.7983 65.0321 80.3661L65.0321 186.225L63.9868 186.225L63.9868 80.3804C63.9878 79.6689 64.1324 78.9652 64.4118 78.3134C64.6912 77.6615 65.0994 77.0753 65.6107 76.5916C66.1221 76.1079 66.7258 75.7371 67.384 75.5021C68.0422 75.267 68.7408 75.1729 69.4362 75.2257L110.747 75.2257L110.747 76.278Z" fill="black"/>
<path d="M111.977 182.734L111.977 291.082L110.936 291.082L110.936 182.734C110.934 181.652 110.5 180.614 109.729 179.849C108.958 179.084 107.913 178.653 106.822 178.652L64.7004 178.652L64.7004 234.969C64.6985 236.333 64.152 237.64 63.1803 238.604C62.2087 239.568 60.8912 240.111 59.5171 240.113L29.7936 240.113C28.7031 240.115 27.6578 240.545 26.8868 241.311C26.1157 242.076 25.6817 243.113 25.6798 244.195L25.6798 336.412C25.6804 336.979 25.8002 337.541 26.0314 338.06C26.2626 338.579 26.6002 339.045 27.0227 339.427C27.4452 339.81 27.9434 340.101 28.4855 340.282C29.0276 340.464 29.6018 340.531 30.1715 340.48L59.0966 340.423C59.8102 340.364 60.5283 340.453 61.2056 340.684C61.8828 340.915 62.5044 341.283 63.0311 341.764C63.5578 342.245 63.9783 342.83 64.2656 343.481C64.5529 344.132 64.7009 344.835 64.7004 345.545L64.7004 468.482C64.7023 469.564 65.1365 470.601 65.9076 471.367C66.6786 472.132 67.7238 472.562 68.8142 472.564L84.9987 472.564L84.9987 473.626L68.8142 473.626C67.4401 473.624 66.1229 473.081 65.1512 472.117C64.1796 471.153 63.6329 469.846 63.631 468.482L63.631 345.545C63.6344 344.978 63.5174 344.417 63.2877 343.898C63.058 343.378 62.7208 342.913 62.2978 342.531C61.8743 342.15 61.3756 341.86 60.8331 341.679C60.2906 341.499 59.7163 341.433 59.1466 341.484L30.2215 341.541C29.5071 341.599 28.7884 341.509 28.1108 341.277C27.4331 341.046 26.8113 340.677 26.2841 340.195C25.757 339.714 25.3362 339.129 25.0481 338.477C24.7601 337.826 24.6109 337.123 24.6103 336.412L24.6103 244.195C24.6122 242.831 25.159 241.524 26.1306 240.56C27.1023 239.596 28.4195 239.053 29.7936 239.051L59.5171 239.051C60.6082 239.051 61.6546 238.621 62.4261 237.856C63.1976 237.09 63.631 236.052 63.631 234.969L63.631 177.59L106.822 177.59C108.192 177.6 109.502 178.145 110.467 179.109C111.433 180.072 111.975 181.375 111.977 182.734Z" fill="black"/>
<path d="M275.331 51.9427C275.331 48.629 272.645 45.9427 269.331 45.9427C266.017 45.9427 263.331 48.629 263.331 51.9427C263.331 55.2564 266.017 57.9427 269.331 57.9427C272.645 57.9427 275.331 55.2564 275.331 51.9427Z" fill="black"/>
<path d="M336.857 158.022C336.857 154.708 334.171 152.022 330.857 152.022C327.543 152.022 324.857 154.708 324.857 158.022C324.857 161.336 327.543 164.022 330.857 164.022C334.171 164.022 336.857 161.336 336.857 158.022Z" fill="black"/>
<path d="M210.114 27.2732C210.114 23.9595 207.427 21.2731 204.114 21.2731C200.8 21.2731 198.114 23.9595 198.114 27.2732C198.114 30.5869 200.8 33.2731 204.114 33.2731C207.427 33.2731 210.114 30.5869 210.114 27.2732Z" fill="black"/>
<path d="M116.594 75.3788C116.594 72.0651 113.908 69.3788 110.594 69.3788C107.281 69.3788 104.594 72.0651 104.594 75.3788C104.594 78.6925 107.281 81.3788 110.594 81.3788C113.908 81.3788 116.594 78.6925 116.594 75.3788Z" fill="black"/>
<path d="M69.8345 180.225C69.8345 176.911 67.1482 174.225 63.8345 174.225C60.5208 174.225 57.8345 176.911 57.8345 180.225C57.8345 183.538 60.5208 186.225 63.8345 186.225C67.1482 186.225 69.8345 183.538 69.8345 180.225Z" fill="black"/>
<path d="M297.786 223.846C297.786 218.055 292.827 213.361 286.711 213.361C280.595 213.361 275.636 218.055 275.636 223.846C275.636 229.636 280.595 234.33 286.711 234.33C292.827 234.33 297.786 229.636 297.786 223.846Z" fill="white"/>
<path d="M242.412 112.216C242.412 106.085 237.178 101.115 230.722 101.115C224.266 101.115 219.032 106.085 219.032 112.216C219.032 118.347 224.266 123.317 230.722 123.317C237.178 123.317 242.412 118.347 242.412 112.216Z" fill="white"/>
<path d="M215 113C215 115.176 214.355 117.303 213.146 119.112C211.937 120.921 210.218 122.331 208.208 123.163C206.198 123.996 203.986 124.213 201.852 123.788C199.718 123.363 197.758 122.315 196.219 120.776C194.681 119.237 193.634 117.276 193.211 115.142C192.787 113.008 193.006 110.796 193.839 108.786C194.673 106.776 196.084 105.059 197.893 103.851C199.703 102.643 201.831 101.999 204.007 102C206.922 102.004 209.718 103.164 211.779 105.226C213.84 107.288 214.998 110.084 215 113ZM193.998 113C193.998 114.98 194.585 116.914 195.685 118.56C196.785 120.206 198.348 121.489 200.177 122.247C202.005 123.004 204.018 123.202 205.959 122.816C207.901 122.43 209.684 121.477 211.084 120.077C212.483 118.677 213.436 116.894 213.823 114.953C214.209 113.011 214.011 110.999 213.253 109.17C212.496 107.341 211.213 105.778 209.567 104.678C207.921 103.579 205.986 102.992 204.007 102.992C201.355 102.997 198.814 104.053 196.94 105.93C195.066 107.806 194.013 110.349 194.011 113L193.998 113Z" fill="black"/>
<path d="M153 180C153 173.925 148.299 169 142.5 169C136.701 169 132 173.925 132 180C132 186.075 136.701 191 142.5 191C148.299 191 153 186.075 153 180Z" fill="white"/>
<path d="M153.205 180.152C153.206 182.328 152.562 184.455 151.354 186.265C150.146 188.075 148.428 189.486 146.419 190.319C144.409 191.153 142.197 191.372 140.063 190.948C137.928 190.524 135.968 189.477 134.429 187.939C132.89 186.401 131.841 184.441 131.416 182.307C130.991 180.173 131.209 177.961 132.041 175.951C132.874 173.94 134.284 172.222 136.093 171.013C137.902 169.804 140.029 169.159 142.205 169.159C145.119 169.164 147.913 170.324 149.975 172.384C152.036 174.444 153.198 177.237 153.205 180.152ZM132.203 180.152C132.202 182.132 132.788 184.068 133.887 185.715C134.986 187.362 136.549 188.646 138.378 189.404C140.207 190.162 142.22 190.361 144.162 189.975C146.104 189.589 147.888 188.636 149.288 187.236C150.688 185.836 151.642 184.052 152.028 182.11C152.414 180.167 152.215 178.155 151.456 176.325C150.698 174.496 149.414 172.933 147.767 171.834C146.12 170.735 144.185 170.149 142.205 170.15C139.553 170.154 137.011 171.209 135.136 173.084C133.261 174.959 132.206 177.5 132.203 180.152Z" fill="black"/>
<path d="M43.0683 136.885C43.0683 130.754 38.11 125.784 31.9936 125.784C25.8772 125.784 20.9189 130.754 20.9189 136.885C20.9189 143.017 25.8772 147.987 31.9936 147.987C38.11 147.987 43.0683 143.017 43.0683 136.885Z" fill="white"/>
<path d="M43.9189 136.987C43.9189 139.163 43.2737 141.29 42.0647 143.099C40.8557 144.908 39.1373 146.318 37.127 147.15C35.1166 147.982 32.9045 148.2 30.7706 147.775C28.6366 147.35 26.6765 146.302 25.1383 144.763C23.6002 143.224 22.5532 141.263 22.1295 139.129C21.7058 136.994 21.9246 134.783 22.7581 132.773C23.5917 130.763 25.0026 129.045 26.8124 127.837C28.6223 126.629 30.7497 125.985 32.9256 125.987C35.8413 125.99 38.6365 127.151 40.6976 129.213C42.7587 131.275 43.9172 134.071 43.9189 136.987ZM22.9171 136.987C22.9171 138.966 23.5041 140.901 24.6038 142.547C25.7035 144.193 27.2667 145.476 29.0955 146.233C30.9243 146.991 32.9367 147.189 34.8781 146.803C36.8196 146.417 38.6029 145.463 40.0026 144.064C41.4023 142.664 42.3554 140.881 42.7416 138.939C43.1278 136.998 42.9296 134.985 42.172 133.157C41.4145 131.328 40.1317 129.765 38.4859 128.665C36.84 127.565 34.9051 126.978 32.9256 126.978C30.2718 126.98 27.727 128.035 25.8504 129.912C23.9738 131.788 22.9189 134.333 22.9171 136.987Z" fill="black"/>
<path d="M63.9872 93.7136L63.9872 94.7728L37.1065 94.7728C36.0303 94.7728 34.9982 95.202 34.2372 95.966C33.4761 96.73 33.0486 97.7664 33.0486 98.8469L33.0486 125.784L31.9937 125.784L31.9937 98.8681C31.9955 97.5072 32.5347 96.2027 33.4932 95.2404C34.4516 94.2782 35.7511 93.7367 37.1065 93.7348L63.9872 93.7136Z" fill="black"/>
<path d="M69.8345 93.8811C69.8345 90.5674 67.1482 87.881 63.8345 87.881C60.5208 87.881 57.8345 90.5674 57.8345 93.8811C57.8345 97.1948 60.5208 99.881 63.8345 99.881C67.1482 99.881 69.8345 97.1948 69.8345 93.8811Z" fill="black"/>
<path d="M367.926 194.12L367.926 368.78L366.864 368.78L366.864 194.12C366.862 193.039 366.431 192.003 365.665 191.239C364.9 190.475 363.862 190.045 362.779 190.043L335.617 190.043C334.253 190.041 332.945 189.5 331.98 188.537C331.015 187.574 330.473 186.269 330.471 184.907L330.471 89.308C330.471 88.3712 330.098 87.4727 329.434 86.8102C328.77 86.1478 327.87 85.7757 326.931 85.7757L273.4 85.7757C272.036 85.7757 270.728 85.2356 269.763 84.274C268.798 83.3123 268.255 82.0077 268.253 80.6467L268.437 -21L269.499 -21L269.315 80.6467C269.317 81.7266 269.748 82.7616 270.514 83.5245C271.28 84.2874 272.318 84.716 273.4 84.716L326.917 84.716C328.141 84.7179 329.313 85.2038 330.179 86.0672C331.044 86.9306 331.531 88.1011 331.533 89.3222L331.533 184.907C331.533 185.988 331.963 187.025 332.729 187.79C333.495 188.554 334.534 188.984 335.617 188.984L362.779 188.984C364.143 188.985 365.451 189.527 366.416 190.49C367.381 191.453 367.924 192.758 367.926 194.12Z" fill="black"/>
<path d="M205.497 -21L205.31 160.165C205.308 161.525 204.757 162.829 203.777 163.791C202.798 164.753 201.47 165.295 200.084 165.296L170.116 165.296C169.016 165.298 167.962 165.728 167.185 166.491C166.408 167.255 165.97 168.29 165.968 169.369L166.148 291.07L165.069 291.07L164.89 169.369C164.892 168.009 165.443 166.705 166.422 165.743C167.402 164.781 168.73 164.24 170.116 164.238L200.084 164.238C201.184 164.238 202.239 163.809 203.017 163.045C203.795 162.281 204.232 161.245 204.232 160.165L204.419 -21L205.497 -21Z" fill="black"/>
<path d="M331.01 149.22L331.01 150.284L289.508 150.284C288.435 150.277 287.403 150.688 286.634 151.429C285.866 152.17 285.423 153.182 285.403 154.244L285.317 291.07L284.25 291.07L284.335 154.23C284.36 152.89 284.916 151.613 285.884 150.677C286.853 149.74 288.155 149.22 289.508 149.227L331.01 149.22Z" fill="black"/>
<path d="M204.266 18.4784L204.266 19.535L115.843 19.535C114.771 19.5369 113.743 19.9656 112.985 20.7274C112.227 21.4893 111.8 22.522 111.798 23.5993L111.798 95.0245C111.8 96.1018 112.227 97.1346 112.985 97.8964C113.743 98.6582 114.771 99.0869 115.843 99.0888L138.094 99.0888C139.446 99.0907 140.741 99.6308 141.696 100.591C142.652 101.551 143.189 102.852 143.191 104.21L143.373 291.07L142.322 291.07L142.139 104.21C142.139 103.132 141.713 102.098 140.955 101.336C140.196 100.574 139.167 100.145 138.094 100.145L115.843 100.145C114.492 100.144 113.197 99.6035 112.241 98.6436C111.286 97.6836 110.748 96.382 110.747 95.0245L110.747 23.5923C110.748 22.2347 111.286 20.9333 112.241 19.9734C113.197 19.0134 114.492 18.4732 115.843 18.4713L204.266 18.4784Z" fill="black"/>
<path d="M110.747 67.679L69.3953 67.679C68.8406 67.6318 68.2823 67.7024 67.7557 67.8864C67.229 68.0703 66.7455 68.3637 66.3355 68.7478C65.9256 69.1319 65.5981 69.5985 65.3738 70.1181C65.1495 70.6378 65.0332 71.1991 65.0323 71.7669L65.0323 177.59L63.9868 177.59L63.9868 71.7457C63.9878 71.0343 64.1324 70.3307 64.4119 69.6788C64.6913 69.027 65.0995 68.4409 65.611 67.9572C66.1224 67.4735 66.7263 67.1026 67.3846 66.8675C68.0428 66.6325 68.7415 66.5386 69.437 66.5914L110.747 66.5914L110.747 67.679Z" fill="black"/>
<path d="M111.977 291.353L110.939 291.353L110.754 175.319C110.754 174.236 110.321 173.198 109.552 172.432C108.782 171.667 107.738 171.237 106.65 171.237L64.6342 171.237L64.6342 227.555C64.6323 228.919 64.0871 230.226 63.1177 231.191C62.1484 232.155 60.8341 232.697 59.4632 232.699L29.7814 232.699C28.6935 232.701 27.6508 233.132 26.8815 233.897C26.1123 234.662 25.6791 235.699 25.6773 236.782L25.6773 329.015C25.6768 329.582 25.7955 330.143 26.0254 330.661C26.2554 331.18 26.5916 331.646 27.0127 332.028C27.4338 332.41 27.9304 332.701 28.4708 332.881C29.0113 333.062 29.5836 333.128 30.1513 333.076L59.0152 333.026C59.7271 332.967 60.4435 333.056 61.1191 333.287C61.7948 333.518 62.415 333.886 62.9404 334.367C63.4659 334.849 63.8853 335.433 64.172 336.084C64.4586 336.735 64.6064 337.438 64.6059 338.149L64.6059 461.081C64.6078 462.163 65.0408 463.2 65.81 463.966C66.5793 464.731 67.622 465.161 68.7099 465.163L85.0339 465.163L85.0339 466.225L68.7099 466.225C67.339 466.223 66.0249 465.68 65.0555 464.716C64.0862 463.752 63.5409 462.445 63.539 461.081L63.539 338.149C63.5383 337.582 63.419 337.021 63.1887 336.502C62.9585 335.984 62.6222 335.518 62.2015 335.136C61.7808 334.753 61.2847 334.462 60.7447 334.28C60.2048 334.098 59.6328 334.03 59.065 334.08L30.2011 334.137C29.4892 334.196 28.7728 334.107 28.0971 333.876C27.4215 333.645 26.8013 333.278 26.2759 332.796C25.7504 332.315 25.331 331.73 25.0443 331.079C24.7577 330.428 24.6099 329.725 24.6103 329.015L24.6103 236.796C24.6122 235.432 25.1577 234.125 26.127 233.161C27.0964 232.197 28.4105 231.654 29.7814 231.652L59.4349 231.652C60.5228 231.65 61.5654 231.22 62.3347 230.454C63.104 229.689 63.5371 228.652 63.539 227.57L63.539 170.189L106.621 170.189C107.992 170.191 109.306 170.734 110.276 171.698C111.245 172.662 111.79 173.969 111.792 175.333L111.977 291.353Z" fill="black"/>
<path d="M275.331 43.3084C275.331 39.9947 272.645 37.3084 269.331 37.3084C266.017 37.3084 263.331 39.9947 263.331 43.3084C263.331 46.6221 266.017 49.3084 269.331 49.3084C272.645 49.3084 275.331 46.6221 275.331 43.3084Z" fill="black"/>
<path d="M336.857 150.621C336.857 147.307 334.171 144.621 330.857 144.621C327.543 144.621 324.857 147.307 324.857 150.621C324.857 153.935 327.543 156.621 330.857 156.621C334.171 156.621 336.857 153.935 336.857 150.621Z" fill="black"/>
<path d="M373 221.401C373 218.087 370.314 215.401 367 215.401C363.686 215.401 361 218.087 361 221.401C361 224.715 363.686 227.401 367 227.401C370.314 227.401 373 224.715 373 221.401Z" fill="black"/>
<path d="M373 214C373 210.686 370.314 208 367 208C363.686 208 361 210.686 361 214C361 217.314 363.686 220 367 220C370.314 220 373 217.314 373 214Z" fill="black"/>
<path d="M209.883 18.6387C209.883 15.325 207.197 12.6388 203.883 12.6388C200.57 12.6388 197.883 15.325 197.883 18.6387C197.883 21.9524 200.57 24.6388 203.883 24.6388C207.197 24.6388 209.883 21.9524 209.883 18.6387Z" fill="black"/>
<path d="M116.364 67.978C116.364 64.6643 113.677 61.978 110.364 61.978C107.05 61.978 104.364 64.6643 104.364 67.978C104.364 71.2917 107.05 73.978 110.364 73.978C113.677 73.978 116.364 71.2917 116.364 67.978Z" fill="black"/>
<path d="M69.8345 171.59C69.8345 168.277 67.1482 165.59 63.8345 165.59C60.5208 165.59 57.8345 168.277 57.8345 171.59C57.8345 174.904 60.5208 177.59 63.8345 177.59C67.1482 177.59 69.8345 174.904 69.8345 171.59Z" fill="black"/>
<path d="M296.149 216.101C296.149 209.97 291.191 205 285.075 205C278.958 205 274 209.97 274 216.101C274 222.232 278.958 227.203 285.075 227.203C291.191 227.203 296.149 222.232 296.149 216.101Z" fill="white"/>
<path d="M296.636 217.156C296.638 219.333 295.993 221.46 294.785 223.27C293.577 225.08 291.859 226.491 289.849 227.324C287.839 228.158 285.626 228.376 283.492 227.952C281.357 227.528 279.397 226.48 277.858 224.941C276.319 223.402 275.271 221.442 274.847 219.307C274.423 217.173 274.642 214.961 275.475 212.95C276.308 210.94 277.719 209.222 279.529 208.014C281.339 206.806 283.467 206.162 285.643 206.163C288.557 206.167 291.352 207.326 293.412 209.387C295.473 211.448 296.633 214.242 296.636 217.156ZM275.635 217.156C275.633 219.136 276.219 221.072 277.318 222.719C278.417 224.365 279.979 225.649 281.808 226.408C283.637 227.166 285.649 227.365 287.591 226.98C289.533 226.595 291.317 225.642 292.718 224.242C294.118 222.843 295.072 221.06 295.458 219.118C295.845 217.176 295.647 215.164 294.89 213.335C294.133 211.505 292.85 209.942 291.204 208.842C289.558 207.742 287.623 207.155 285.643 207.155C282.99 207.156 280.447 208.21 278.57 210.086C276.694 211.961 275.638 214.504 275.635 217.156Z" fill="black"/>
<path d="M296 215.5C296 209.701 291.299 205 285.5 205C279.701 205 275 209.701 275 215.5C275 221.299 279.701 226 285.5 226C291.299 226 296 221.299 296 215.5Z" fill="white"/>
<path d="M296.636 215.156C296.638 217.333 295.993 219.46 294.785 221.27C293.577 223.08 291.859 224.491 289.849 225.324C287.839 226.158 285.626 226.376 283.492 225.952C281.357 225.528 279.397 224.48 277.858 222.941C276.319 221.402 275.271 219.442 274.847 217.307C274.423 215.173 274.642 212.961 275.475 210.95C276.308 208.94 277.719 207.222 279.529 206.014C281.339 204.806 283.467 204.162 285.643 204.163C288.557 204.167 291.352 205.326 293.412 207.387C295.473 209.448 296.633 212.242 296.636 215.156ZM275.635 215.156C275.633 217.136 276.219 219.072 277.318 220.719C278.417 222.365 279.979 223.649 281.808 224.408C283.637 225.166 285.649 225.365 287.591 224.98C289.533 224.595 291.317 223.642 292.718 222.242C294.118 220.843 295.072 219.06 295.458 217.118C295.845 215.176 295.647 213.164 294.89 211.335C294.133 209.505 292.85 207.942 291.204 206.842C289.558 205.742 287.623 205.155 285.643 205.155C282.99 205.156 280.447 206.21 278.57 208.086C276.694 209.961 275.638 212.504 275.635 215.156Z" fill="black"/>
<path d="M215 104.5C215 98.701 210.075 94 204 94C197.925 94 193 98.701 193 104.5C193 110.299 197.925 115 204 115C210.075 115 215 110.299 215 104.5Z" fill="#2C39F2"/>
<path d="M214.961 104.91C214.962 107.086 214.318 109.213 213.11 111.023C211.902 112.833 210.185 114.244 208.175 115.077C206.165 115.911 203.953 116.129 201.819 115.706C199.685 115.282 197.724 114.235 196.185 112.697C194.646 111.159 193.598 109.199 193.173 107.065C192.748 104.931 192.965 102.719 193.798 100.708C194.63 98.6979 196.04 96.9795 197.849 95.7705C199.658 94.5615 201.785 93.9163 203.961 93.9163C206.877 93.9181 209.673 95.0766 211.735 97.1377C213.797 99.1988 214.957 101.994 214.961 104.91ZM193.959 104.91C193.958 106.89 194.544 108.826 195.643 110.473C196.742 112.12 198.305 113.403 200.134 114.162C201.963 114.92 203.976 115.119 205.919 114.733C207.861 114.347 209.645 113.393 211.045 111.993C212.445 110.593 213.398 108.809 213.784 106.867C214.17 104.925 213.971 102.912 213.213 101.083C212.455 99.2541 211.171 97.6911 209.524 96.5918C207.877 95.4926 205.941 94.9066 203.961 94.9079C201.309 94.9114 198.767 95.9662 196.892 97.8412C195.017 99.7161 193.963 102.258 193.959 104.91Z" fill="black"/>
<path d="M154 171.5C154 165.149 148.851 160 142.5 160C136.149 160 131 165.149 131 171.5C131 177.851 136.149 183 142.5 183C148.851 183 154 177.851 154 171.5Z" fill="white"/>
<path d="M154.205 171.758C154.205 174.131 153.501 176.452 152.182 178.425C150.863 180.399 148.988 181.937 146.795 182.845C144.602 183.753 142.189 183.99 139.861 183.527C137.533 183.063 135.395 181.919 133.717 180.241C132.039 178.562 130.896 176.423 130.434 174.094C129.972 171.766 130.211 169.353 131.12 167.16C132.03 164.968 133.569 163.094 135.543 161.777C137.517 160.459 139.838 159.756 142.212 159.758C145.393 159.762 148.442 161.027 150.69 163.277C152.939 165.527 154.203 168.577 154.205 171.758ZM131.294 171.758C131.292 173.917 131.931 176.029 133.13 177.825C134.329 179.622 136.034 181.023 138.029 181.85C140.023 182.678 142.219 182.895 144.337 182.474C146.456 182.054 148.402 181.015 149.93 179.488C151.457 177.961 152.498 176.016 152.92 173.898C153.342 171.78 153.126 169.584 152.3 167.588C151.473 165.593 150.074 163.887 148.278 162.687C146.483 161.487 144.371 160.847 142.212 160.847C139.318 160.849 136.543 161.999 134.496 164.044C132.449 166.09 131.297 168.864 131.294 171.758Z" fill="black"/>
<path d="M44 129.5C44 123.701 39.0751 119 33 119C26.9249 119 22 123.701 22 129.5C22 135.299 26.9249 140 33 140C39.0751 140 44 135.299 44 129.5Z" fill="white"/>
<path d="M43.9189 129.579C43.9203 131.756 43.276 133.883 42.0678 135.693C40.8596 137.503 39.1417 138.914 37.1315 139.747C35.1212 140.581 32.909 140.799 30.7746 140.375C28.6402 139.951 26.6795 138.903 25.1408 137.364C23.602 135.825 22.5542 133.865 22.13 131.73C21.7058 129.596 21.9241 127.384 22.7575 125.373C23.5909 123.363 25.0018 121.645 26.8118 120.437C28.6218 119.229 30.7495 118.585 32.9256 118.586C35.8402 118.589 38.6342 119.749 40.6952 121.81C42.7561 123.871 43.9154 126.665 43.9189 129.579ZM22.9171 129.579C22.9158 131.559 23.5016 133.495 24.6006 135.142C25.6995 136.788 27.2623 138.072 29.091 138.831C30.9197 139.589 32.9322 139.788 34.8741 139.403C36.816 139.017 38.5998 138.065 40.0002 136.665C41.4006 135.266 42.3544 133.483 42.7411 131.541C43.1278 129.599 42.93 127.587 42.1727 125.757C41.4154 123.928 40.1327 122.365 38.4867 121.265C36.8407 120.165 34.9054 119.577 32.9256 119.577C30.2729 119.579 27.7292 120.633 25.8528 122.509C23.9764 124.384 22.9206 126.927 22.9171 129.579Z" fill="black"/>
<path d="M63.9872 85.0793L63.9872 86.1382L37.1065 86.1382C36.0303 86.1382 34.9982 86.5673 34.2372 87.3312C33.4761 88.0951 33.0486 89.1312 33.0486 90.2114L33.0486 117.15L31.9937 117.15L31.9937 90.2114C31.9955 88.8509 32.5347 87.5466 33.4932 86.5846C34.4516 85.6225 35.7511 85.0812 37.1065 85.0793L63.9872 85.0793Z" fill="black"/>
<path d="M69.8345 86.4802C69.8345 83.1665 67.1482 80.4802 63.8345 80.4802C60.5208 80.4802 57.8345 83.1665 57.8345 86.4802C57.8345 89.7939 60.5208 92.4802 63.8345 92.4802C67.1482 92.4802 69.8345 89.7939 69.8345 86.4802Z" fill="black"/>
</g>
<defs>
<clipPath id="clip0_1033_1603">
<rect width="376" height="228" fill="white" transform="translate(-1)"/>
</clipPath>
</defs>
</svg>
