<svg width="1440" height="289" viewBox="0 0 1440 289" fill="none" xmlns="http://www.w3.org/2000/svg">
<path d="M752.99 72.95H276.44C274.514 72.9473 272.667 72.1802 271.306 70.8171C269.945 69.454 269.18 67.6063 269.18 65.6799V23.99C269.18 22.4597 268.572 20.992 267.49 19.9099C266.408 18.8278 264.94 18.22 263.41 18.22H0V16.72H263.42C265.347 16.7226 267.195 17.4895 268.558 18.8523C269.921 20.2151 270.687 22.0627 270.69 23.99V65.6799C270.69 67.2085 271.297 68.6748 272.376 69.7566C273.456 70.8384 274.921 71.4473 276.45 71.45H753L752.99 72.95Z" fill="black"/>
<path d="M170.54 150.9H69.1401C67.2128 150.897 65.3653 150.131 64.0024 148.768C62.6396 147.405 61.8728 145.557 61.8701 143.63V17.47H63.3701V143.63C63.3728 145.159 63.9815 146.626 65.063 147.707C66.1445 148.789 67.6106 149.397 69.1401 149.4H170.54C172.07 149.397 173.536 148.789 174.617 147.707C175.699 146.626 176.308 145.159 176.31 143.63V111.89C176.313 109.963 177.08 108.115 178.442 106.752C179.805 105.389 181.653 104.623 183.58 104.62H803V106.12H183.63C182.101 106.123 180.635 106.731 179.553 107.813C178.472 108.895 177.863 110.36 177.86 111.89V143.63C177.859 144.588 177.668 145.537 177.299 146.422C176.93 147.307 176.39 148.11 175.71 148.785C175.03 149.461 174.223 149.996 173.336 150.358C172.449 150.721 171.499 150.905 170.54 150.9Z" fill="black"/>
<path d="M288.18 217.25H139.31C138.309 217.249 137.32 217.041 136.403 216.64C135.486 216.239 134.662 215.653 133.981 214.919C133.301 214.186 132.779 213.32 132.449 212.375C132.118 211.43 131.986 210.428 132.06 209.43V150.16H133.56V209.49C133.495 210.286 133.596 211.088 133.856 211.843C134.116 212.599 134.529 213.292 135.07 213.88C135.611 214.468 136.268 214.938 137 215.26C137.731 215.582 138.521 215.748 139.32 215.75H288.19L288.18 217.25Z" fill="black"/>
<path d="M501.49 271.97H371.13C369.203 271.967 367.355 271.2 365.993 269.838C364.63 268.475 363.863 266.627 363.86 264.7V223.01C363.855 221.489 363.251 220.032 362.178 218.953C361.105 217.875 359.651 217.263 358.13 217.25H277.03V156.68C277.033 154.753 277.8 152.905 279.162 151.542C280.525 150.179 282.373 149.413 284.3 149.41L437.8 149.66V151.16L284.3 150.91C282.771 150.913 281.305 151.522 280.223 152.603C279.142 153.685 278.533 155.15 278.53 156.68V215.75H358.13C360.058 215.753 361.905 216.52 363.268 217.882C364.631 219.245 365.398 221.093 365.4 223.02V264.71C365.403 266.239 366.012 267.706 367.093 268.787C368.175 269.869 369.641 270.477 371.17 270.48H501.51C502.312 270.481 503.105 270.314 503.838 269.991C504.571 269.667 505.229 269.195 505.769 268.603C506.31 268.011 506.72 267.312 506.975 266.552C507.23 265.793 507.324 264.988 507.25 264.19L507.18 223.61C507.097 222.609 507.223 221.602 507.549 220.652C507.875 219.702 508.395 218.83 509.076 218.091C509.756 217.353 510.582 216.763 511.502 216.36C512.422 215.957 513.416 215.749 514.42 215.75H688.13C689.66 215.747 691.126 215.139 692.207 214.057C693.289 212.976 693.898 211.509 693.9 209.98V186.64H695.4V209.98C695.398 211.907 694.631 213.755 693.268 215.118C691.905 216.48 690.058 217.247 688.13 217.25H514.4C513.599 217.251 512.806 217.419 512.073 217.742C511.34 218.066 510.682 218.539 510.142 219.13C509.601 219.722 509.189 220.419 508.932 221.178C508.676 221.937 508.58 222.742 508.65 223.54L508.73 264.12C508.813 265.121 508.688 266.128 508.361 267.078C508.035 268.028 507.515 268.9 506.835 269.639C506.154 270.377 505.328 270.967 504.408 271.37C503.488 271.773 502.495 271.981 501.49 271.98V271.97Z" fill="black"/>
<path d="M62.6202 26.41C67.5576 26.41 71.5602 22.4075 71.5602 17.47C71.5602 12.5326 67.5576 8.53003 62.6202 8.53003C57.6827 8.53003 53.6802 12.5326 53.6802 17.47C53.6802 22.4075 57.6827 26.41 62.6202 26.41Z" fill="black"/>
<path d="M132.79 159.09C137.728 159.09 141.73 155.087 141.73 150.15C141.73 145.213 137.728 141.21 132.79 141.21C127.853 141.21 123.85 145.213 123.85 150.15C123.85 155.087 127.853 159.09 132.79 159.09Z" fill="black"/>
<path d="M279.26 225.43C284.197 225.43 288.2 221.427 288.2 216.49C288.2 211.553 284.197 207.55 279.26 207.55C274.322 207.55 270.32 211.553 270.32 216.49C270.32 221.427 274.322 225.43 279.26 225.43Z" fill="black"/>
<path d="M184.07 33.35C192.84 33.35 199.95 26.2403 199.95 17.47C199.95 8.69969 192.84 1.58997 184.07 1.58997C175.3 1.58997 168.19 8.69969 168.19 17.47C168.19 26.2403 175.3 33.35 184.07 33.35Z" fill="white"/>
<path d="M184.06 34.1002C180.768 34.1002 177.551 33.1239 174.814 31.295C172.078 29.4662 169.945 26.8667 168.686 23.8256C167.426 20.7844 167.098 17.4382 167.74 14.2101C168.383 10.982 169.969 8.01705 172.297 5.6903C174.625 3.36356 177.591 1.77947 180.82 1.13855C184.048 0.497618 187.394 0.828743 190.435 2.08972C193.475 3.35069 196.073 5.48503 197.9 8.22277C199.728 10.9605 200.702 14.1786 200.7 17.4701C200.695 21.8807 198.939 26.1091 195.82 29.2269C192.7 32.3448 188.471 34.0976 184.06 34.1002ZM184.06 2.3302C181.066 2.3302 178.138 3.21811 175.649 4.88171C173.159 6.54532 171.218 8.90992 170.072 11.6764C168.927 14.4429 168.627 17.4868 169.211 20.4237C169.795 23.3606 171.237 26.0583 173.354 28.1757C175.472 30.293 178.169 31.735 181.106 32.3192C184.043 32.9034 187.087 32.6035 189.854 31.4576C192.62 30.3117 194.985 28.3712 196.648 25.8815C198.312 23.3917 199.2 20.4645 199.2 17.4701C199.197 13.4555 197.601 9.60618 194.763 6.76745C191.924 3.92873 188.075 2.33285 184.06 2.3302Z" fill="black"/>
<path d="M279.26 121.29C288.03 121.29 295.14 114.18 295.14 105.41C295.14 96.6398 288.03 89.53 279.26 89.53C270.49 89.53 263.38 96.6398 263.38 105.41C263.38 114.18 270.49 121.29 279.26 121.29Z" fill="white"/>
<path d="M279.26 122.04C275.968 122.042 272.75 121.068 270.012 119.24C267.275 117.413 265.14 114.815 263.879 111.775C262.618 108.734 262.287 105.388 262.928 102.16C263.569 98.9314 265.153 95.9653 267.48 93.6372C269.807 91.309 272.772 89.7234 276 89.0805C279.228 88.4377 282.574 88.7664 285.616 90.0256C288.657 91.2847 291.256 93.4176 293.085 96.1543C294.914 98.8909 295.89 102.108 295.89 105.4C295.885 109.81 294.131 114.038 291.014 117.157C287.897 120.276 283.67 122.032 279.26 122.04ZM279.26 90.27C276.265 90.268 273.336 91.1545 270.845 92.8173C268.354 94.4802 266.411 96.8446 265.264 99.6115C264.117 102.378 263.816 105.423 264.4 108.361C264.984 111.299 266.426 113.997 268.544 116.115C270.662 118.233 273.361 119.676 276.299 120.259C279.237 120.843 282.281 120.543 285.048 119.395C287.815 118.248 290.18 116.306 291.843 113.815C293.505 111.324 294.392 108.395 294.39 105.4C294.39 101.385 292.796 97.5349 289.96 94.6943C287.123 91.8537 283.274 90.2553 279.26 90.25V90.27Z" fill="black"/>
<path d="M380.45 121.27C389.22 121.27 396.33 114.16 396.33 105.39C396.33 96.6197 389.22 89.51 380.45 89.51C371.68 89.51 364.57 96.6197 364.57 105.39C364.57 114.16 371.68 121.27 380.45 121.27Z" fill="white"/>
<path d="M380.44 122.02C377.148 122.02 373.931 121.044 371.194 119.215C368.457 117.386 366.325 114.787 365.065 111.746C363.806 108.704 363.477 105.358 364.12 102.13C364.763 98.9019 366.349 95.9368 368.677 93.61C371.005 91.2833 373.971 89.6995 377.2 89.0585C380.428 88.4176 383.774 88.7485 386.815 90.0095C389.855 91.2704 392.453 93.4048 394.28 96.1425C396.108 98.8803 397.082 102.098 397.08 105.39C397.074 109.8 395.319 114.029 392.2 117.147C389.08 120.265 384.851 122.017 380.44 122.02ZM380.44 90.2499C377.445 90.2499 374.518 91.1378 372.028 92.8015C369.539 94.4651 367.598 96.8297 366.452 99.5961C365.306 102.363 365.007 105.407 365.591 108.344C366.175 111.281 367.617 113.978 369.734 116.096C371.852 118.213 374.549 119.655 377.486 120.239C380.423 120.823 383.467 120.523 386.234 119.377C389 118.231 391.365 116.291 393.028 113.801C394.692 111.311 395.58 108.384 395.58 105.39C395.577 101.375 393.981 97.5259 391.143 94.6872C388.304 91.8485 384.454 90.2526 380.44 90.2499Z" fill="black"/>
<path d="M437.53 287.1C446.3 287.1 453.41 279.99 453.41 271.22C453.41 262.45 446.3 255.34 437.53 255.34C428.76 255.34 421.65 262.45 421.65 271.22C421.65 279.99 428.76 287.1 437.53 287.1Z" fill="white"/>
<path d="M437.53 287.85C434.238 287.852 431.019 286.877 428.281 285.05C425.543 283.222 423.409 280.623 422.148 277.582C420.888 274.541 420.557 271.195 421.199 267.966C421.841 264.737 423.426 261.771 425.754 259.444C428.081 257.116 431.047 255.531 434.276 254.889C437.505 254.247 440.851 254.578 443.892 255.839C446.933 257.099 449.532 259.233 451.36 261.971C453.187 264.709 454.162 267.928 454.16 271.22C454.152 275.628 452.397 279.853 449.28 282.97C446.163 286.087 441.938 287.842 437.53 287.85ZM437.53 256.08C434.535 256.072 431.605 256.953 429.111 258.61C426.617 260.267 424.67 262.627 423.517 265.391C422.364 268.155 422.057 271.199 422.634 274.138C423.211 277.076 424.647 279.778 426.76 281.901C428.872 284.023 431.567 285.472 434.503 286.062C437.439 286.653 440.484 286.36 443.254 285.22C446.023 284.08 448.392 282.144 450.061 279.657C451.73 277.17 452.624 274.245 452.63 271.25C452.635 267.237 451.048 263.386 448.217 260.542C445.386 257.698 441.543 256.093 437.53 256.08Z" fill="black"/>
<path d="M218.72 277.12C227.49 277.12 234.6 270.01 234.6 261.24C234.6 252.47 227.49 245.36 218.72 245.36C209.95 245.36 202.84 252.47 202.84 261.24C202.84 270.01 209.95 277.12 218.72 277.12Z" fill="white"/>
<path d="M218.72 277.87C215.429 277.87 212.212 276.894 209.475 275.066C206.739 273.237 204.606 270.638 203.347 267.598C202.087 264.557 201.758 261.211 202.4 257.984C203.042 254.756 204.627 251.791 206.954 249.464C209.281 247.136 212.246 245.552 215.474 244.91C218.702 244.267 222.047 244.597 225.088 245.857C228.128 247.116 230.727 249.249 232.556 251.985C234.384 254.722 235.36 257.939 235.36 261.23C235.357 265.642 233.603 269.873 230.483 272.993C227.363 276.113 223.132 277.867 218.72 277.87ZM218.72 246.1C215.725 246.1 212.798 246.988 210.308 248.652C207.818 250.316 205.877 252.681 204.732 255.448C203.586 258.215 203.287 261.26 203.872 264.197C204.457 267.134 205.9 269.832 208.018 271.949C210.136 274.066 212.835 275.507 215.773 276.09C218.71 276.673 221.754 276.372 224.521 275.224C227.287 274.077 229.651 272.135 231.313 269.644C232.976 267.153 233.862 264.225 233.86 261.23C233.855 257.217 232.258 253.37 229.419 250.534C226.581 247.697 222.733 246.103 218.72 246.1Z" fill="black"/>
<path d="M613.8 232.37C622.57 232.37 629.68 225.26 629.68 216.49C629.68 207.72 622.57 200.61 613.8 200.61C605.03 200.61 597.92 207.72 597.92 216.49C597.92 225.26 605.03 232.37 613.8 232.37Z" fill="white"/>
<path d="M613.8 233.12C610.508 233.122 607.289 232.147 604.551 230.32C601.813 228.492 599.679 225.893 598.418 222.852C597.158 219.811 596.827 216.465 597.469 213.236C598.111 210.007 599.696 207.041 602.024 204.714C604.351 202.386 607.317 200.801 610.546 200.159C613.775 199.517 617.121 199.848 620.162 201.109C623.203 202.369 625.802 204.503 627.63 207.241C629.457 209.979 630.432 213.198 630.43 216.49C630.425 220.899 628.671 225.126 625.553 228.243C622.436 231.361 618.209 233.115 613.8 233.12ZM613.8 201.35C610.805 201.348 607.877 202.234 605.386 203.897C602.895 205.559 600.953 207.923 599.805 210.689C598.658 213.455 598.357 216.5 598.94 219.437C599.523 222.375 600.964 225.074 603.081 227.192C605.198 229.31 607.895 230.753 610.832 231.338C613.77 231.923 616.814 231.624 619.581 230.478C622.348 229.333 624.714 227.392 626.378 224.902C628.042 222.412 628.93 219.485 628.93 216.49C628.927 212.477 627.333 208.629 624.496 205.791C621.659 202.952 617.813 201.355 613.8 201.35Z" fill="black"/>
<path d="M202.84 261.98H164.68C162.753 261.977 160.905 261.21 159.542 259.848C158.18 258.485 157.413 256.637 157.41 254.71V216.49H158.91V254.71C158.91 256.24 159.518 257.708 160.6 258.79C161.682 259.872 163.15 260.48 164.68 260.48H202.84V261.98Z" fill="black"/>
<path d="M158.17 225.43C163.107 225.43 167.11 221.427 167.11 216.49C167.11 211.553 163.107 207.55 158.17 207.55C153.233 207.55 149.23 211.553 149.23 216.49C149.23 221.427 153.233 225.43 158.17 225.43Z" fill="black"/>
<path d="M265.04 73.25C263.113 73.2474 261.265 72.4805 259.902 71.1177C258.539 69.7549 257.773 67.9073 257.77 65.98V24.25C257.767 22.7205 257.159 21.2544 256.077 20.1729C254.996 19.0913 253.529 18.4826 252 18.48L0 18.23V16.73L252 16.98C253.927 16.9826 255.775 17.7495 257.138 19.1123C258.501 20.4751 259.267 22.3227 259.27 24.25V65.9399C259.273 67.4694 259.881 68.9356 260.963 70.0171C262.044 71.0986 263.511 71.7073 265.04 71.71H752V73.21L265.04 73.25Z" fill="black"/>
<path d="M159.12 151.15H57.72C55.7936 151.147 53.947 150.38 52.5858 149.017C51.2246 147.654 50.46 145.806 50.46 143.88V17.72H51.96V143.88C51.96 145.408 52.5666 146.875 53.6465 147.957C54.7264 149.038 56.1914 149.647 57.72 149.65H159.12C160.649 149.647 162.116 149.039 163.197 147.957C164.279 146.876 164.887 145.409 164.89 143.88V112.14C164.893 110.213 165.659 108.365 167.022 107.002C168.385 105.639 170.233 104.873 172.16 104.87H802V106.37H172.15C170.621 106.373 169.154 106.981 168.073 108.063C166.991 109.145 166.383 110.61 166.38 112.14V143.88C166.377 145.805 165.612 147.652 164.251 149.014C162.891 150.377 161.046 151.145 159.12 151.15Z" fill="black"/>
<path d="M276.76 217.49H127.89C126.889 217.491 125.899 217.286 124.982 216.887C124.064 216.487 123.239 215.903 122.558 215.169C121.878 214.436 121.356 213.57 121.026 212.625C120.696 211.68 120.564 210.678 120.64 209.68V150.4H122.14V209.73C122.071 210.532 122.171 211.34 122.432 212.101C122.694 212.862 123.112 213.56 123.66 214.15C124.198 214.734 124.853 215.199 125.581 215.516C126.309 215.833 127.096 215.994 127.89 215.99H276.76V217.49Z" fill="black"/>
<path d="M491.57 272.25H361.23C359.303 272.247 357.455 271.48 356.092 270.118C354.729 268.755 353.962 266.907 353.96 264.98V223.25C353.957 221.721 353.348 220.254 352.267 219.173C351.185 218.091 349.719 217.483 348.19 217.48H267.09V156.91C267.092 154.983 267.859 153.135 269.222 151.772C270.585 150.409 272.433 149.643 274.36 149.64H438V151.14H274.36C272.83 151.143 271.364 151.751 270.283 152.833C269.201 153.915 268.592 155.38 268.59 156.91V215.98H348.19C350.117 215.983 351.965 216.749 353.328 218.112C354.69 219.475 355.457 221.323 355.46 223.25V264.94C355.462 266.469 356.071 267.936 357.153 269.017C358.234 270.099 359.7 270.707 361.23 270.71H491.57C492.371 270.709 493.164 270.541 493.897 270.218C494.63 269.894 495.288 269.421 495.828 268.83C496.369 268.238 496.781 267.541 497.038 266.782C497.295 266.023 497.391 265.218 497.32 264.42L497.24 223.84C497.16 222.84 497.288 221.834 497.615 220.885C497.942 219.936 498.462 219.066 499.142 218.328C499.822 217.59 500.647 217 501.566 216.596C502.484 216.192 503.476 215.982 504.48 215.98H678.24C679.769 215.977 681.235 215.369 682.317 214.287C683.398 213.206 684.007 211.739 684.01 210.21V186.62H685.51V210.25C685.507 212.177 684.741 214.025 683.378 215.388C682.015 216.751 680.167 217.517 678.24 217.52H504.48C503.678 217.519 502.886 217.686 502.152 218.009C501.419 218.333 500.761 218.805 500.221 219.397C499.68 219.989 499.27 220.688 499.015 221.448C498.76 222.207 498.666 223.012 498.74 223.81L498.82 264.39C498.9 265.391 498.772 266.398 498.444 267.347C498.116 268.296 497.595 269.168 496.914 269.906C496.233 270.644 495.407 271.234 494.487 271.637C493.567 272.04 492.574 272.249 491.57 272.25Z" fill="black"/>
<path d="M51.21 26.66C56.1474 26.66 60.15 22.6575 60.15 17.72C60.15 12.7826 56.1474 8.78003 51.21 8.78003C46.2726 8.78003 42.27 12.7826 42.27 17.72C42.27 22.6575 46.2726 26.66 51.21 26.66Z" fill="black"/>
<path d="M121.37 159.34C126.308 159.34 130.31 155.337 130.31 150.4C130.31 145.463 126.308 141.46 121.37 141.46C116.433 141.46 112.43 145.463 112.43 150.4C112.43 155.337 116.433 159.34 121.37 159.34Z" fill="black"/>
<path d="M267.84 225.68C272.777 225.68 276.78 221.677 276.78 216.74C276.78 211.803 272.777 207.8 267.84 207.8C262.902 207.8 258.9 211.803 258.9 216.74C258.9 221.677 262.902 225.68 267.84 225.68Z" fill="black"/>
<path d="M172.65 33.6C181.42 33.6 188.53 26.4903 188.53 17.72C188.53 8.94969 181.42 1.83997 172.65 1.83997C163.88 1.83997 156.77 8.94969 156.77 17.72C156.77 26.4903 163.88 33.6 172.65 33.6Z" fill="white"/>
<path d="M172.63 34.35C169.338 34.352 166.12 33.3773 163.382 31.5497C160.644 29.722 158.509 27.1234 157.249 24.0824C155.988 21.0414 155.657 17.6947 156.299 14.4659C156.941 11.2372 158.526 8.27147 160.854 5.94373C163.182 3.61598 166.147 2.03078 169.376 1.38904C172.605 0.747299 175.951 1.07782 178.992 2.3385C182.033 3.59918 184.632 5.73335 186.46 8.47131C188.288 11.2093 189.262 14.4279 189.26 17.7198C189.252 22.128 187.497 26.3533 184.38 29.4703C181.263 32.5873 177.038 34.342 172.63 34.35ZM172.63 2.57996C169.635 2.57798 166.707 3.46419 164.216 5.12659C161.725 6.78899 159.783 9.15277 158.635 11.9191C157.488 14.6854 157.187 17.7298 157.77 20.6674C158.353 23.6049 159.794 26.3036 161.911 28.422C164.028 30.5404 166.725 31.9832 169.663 32.5682C172.6 33.1532 175.644 32.854 178.412 31.7084C181.179 30.5628 183.544 28.6222 185.208 26.1322C186.872 23.6422 187.76 20.7147 187.76 17.7198C187.757 13.707 186.163 9.85907 183.326 7.02063C180.49 4.18219 176.643 2.58525 172.63 2.57996Z" fill="black"/>
<path d="M267.84 121.54C276.61 121.54 283.72 114.43 283.72 105.66C283.72 96.8898 276.61 89.78 267.84 89.78C259.07 89.78 251.96 96.8898 251.96 105.66C251.96 114.43 259.07 121.54 267.84 121.54Z" fill="#2C39F2"/>
<path d="M267.84 122.25C264.549 122.25 261.332 121.274 258.596 119.446C255.859 117.617 253.726 115.018 252.467 111.978C251.207 108.937 250.878 105.592 251.52 102.364C252.162 99.1359 253.747 96.1708 256.074 93.8437C258.401 91.5166 261.366 89.9318 264.594 89.2897C267.822 88.6477 271.167 88.9771 274.208 90.2365C277.249 91.496 279.847 93.6288 281.676 96.3652C283.504 99.1016 284.48 102.319 284.48 105.61C284.477 110.022 282.724 114.253 279.604 117.373C276.484 120.493 272.253 122.247 267.84 122.25ZM267.84 90.4799C264.845 90.4799 261.918 91.3681 259.428 93.0322C256.938 94.6962 254.997 97.0613 253.852 99.8283C252.706 102.595 252.407 105.64 252.992 108.577C253.577 111.514 255.02 114.212 257.138 116.329C259.256 118.446 261.955 119.887 264.893 120.47C267.83 121.053 270.875 120.752 273.641 119.605C276.407 118.457 278.771 116.515 280.434 114.024C282.096 111.533 282.982 108.605 282.98 105.61C282.964 101.604 281.362 97.7676 278.525 94.9396C275.688 92.1117 271.846 90.5226 267.84 90.52V90.4799Z" fill="black"/>
<path d="M369.03 121.52C377.8 121.52 384.91 114.41 384.91 105.64C384.91 96.8697 377.8 89.76 369.03 89.76C360.26 89.76 353.15 96.8697 353.15 105.64C353.15 114.41 360.26 121.52 369.03 121.52Z" fill="white"/>
<path d="M369.03 122.25C365.738 122.252 362.519 121.277 359.781 119.45C357.043 117.622 354.909 115.023 353.648 111.982C352.388 108.941 352.057 105.595 352.699 102.366C353.341 99.1374 354.926 96.1714 357.254 93.8437C359.581 91.5159 362.547 89.931 365.776 89.2892C369.005 88.6475 372.351 88.9778 375.392 90.2385C378.433 91.4991 381.032 93.6336 382.86 96.3715C384.687 99.1095 385.662 102.328 385.66 105.62C385.652 110.028 383.897 114.253 380.78 117.37C377.663 120.487 373.438 122.242 369.03 122.25ZM369.03 90.4799C366.035 90.4779 363.107 91.3642 360.616 93.0266C358.125 94.689 356.183 97.053 355.035 99.8193C353.888 102.586 353.587 105.63 354.17 108.568C354.753 111.505 356.194 114.204 358.311 116.322C360.428 118.44 363.125 119.883 366.063 120.468C369 121.053 372.044 120.754 374.811 119.608C377.578 118.463 379.944 116.522 381.608 114.032C383.272 111.542 384.16 108.615 384.16 105.62C384.152 101.611 382.555 97.7679 379.719 94.9338C376.883 92.0997 373.039 90.5052 369.03 90.4999V90.4799Z" fill="black"/>
<path d="M426.12 287.36C434.891 287.36 442 280.25 442 271.48C442 262.71 434.891 255.6 426.12 255.6C417.35 255.6 410.24 262.71 410.24 271.48C410.24 280.25 417.35 287.36 426.12 287.36Z" fill="white"/>
<path d="M426.11 288.11C422.819 288.11 419.602 287.134 416.866 285.306C414.129 283.477 411.996 280.878 410.737 277.838C409.477 274.797 409.148 271.451 409.79 268.224C410.432 264.996 412.017 262.031 414.344 259.704C416.671 257.377 419.636 255.792 422.864 255.15C426.092 254.507 429.438 254.837 432.478 256.097C435.519 257.356 438.117 259.489 439.946 262.225C441.774 264.962 442.75 268.179 442.75 271.47C442.745 275.881 440.99 280.111 437.871 283.23C434.751 286.35 430.522 288.105 426.11 288.11ZM426.11 256.34C423.115 256.34 420.188 257.228 417.698 258.892C415.208 260.556 413.267 262.921 412.122 265.688C410.976 268.455 410.677 271.5 411.262 274.437C411.847 277.374 413.29 280.072 415.408 282.189C417.526 284.306 420.225 285.747 423.163 286.33C426.1 286.913 429.145 286.612 431.911 285.464C434.677 284.317 437.041 282.375 438.704 279.884C440.366 277.393 441.252 274.465 441.25 271.47C441.245 267.457 439.648 263.61 436.809 260.774C433.971 257.937 430.123 256.343 426.11 256.34Z" fill="black"/>
<path d="M207.31 277.37C216.08 277.37 223.19 270.26 223.19 261.49C223.19 252.72 216.08 245.61 207.31 245.61C198.54 245.61 191.43 252.72 191.43 261.49C191.43 270.26 198.54 277.37 207.31 277.37Z" fill="white"/>
<path d="M207.31 278.12C204.018 278.122 200.8 277.147 198.062 275.32C195.324 273.492 193.189 270.893 191.929 267.852C190.668 264.811 190.338 261.465 190.979 258.236C191.621 255.007 193.206 252.041 195.534 249.714C197.862 247.386 200.828 245.801 204.056 245.159C207.285 244.517 210.632 244.848 213.673 246.109C216.714 247.369 219.312 249.503 221.14 252.241C222.968 254.979 223.942 258.198 223.94 261.49C223.935 265.899 222.181 270.126 219.064 273.243C215.946 276.361 211.719 278.115 207.31 278.12ZM207.31 246.35C204.315 246.348 201.387 247.234 198.896 248.897C196.405 250.559 194.463 252.923 193.315 255.689C192.168 258.455 191.867 261.5 192.45 264.437C193.033 267.375 194.474 270.074 196.591 272.192C198.708 274.31 201.406 275.753 204.343 276.338C207.28 276.923 210.325 276.624 213.092 275.478C215.859 274.333 218.224 272.392 219.888 269.902C221.552 267.412 222.44 264.485 222.44 261.49C222.438 257.477 220.843 253.629 218.006 250.791C215.17 247.952 211.323 246.355 207.31 246.35Z" fill="black"/>
<path d="M602.38 232.62C611.15 232.62 618.26 225.51 618.26 216.74C618.26 207.97 611.15 200.86 602.38 200.86C593.61 200.86 586.5 207.97 586.5 216.74C586.5 225.51 593.61 232.62 602.38 232.62Z" fill="#2C39F2"/>
<path d="M602.38 233.38C599.089 233.38 595.872 232.404 593.135 230.576C590.399 228.747 588.266 226.148 587.006 223.108C585.747 220.067 585.417 216.721 586.059 213.494C586.702 210.266 588.286 207.301 590.613 204.974C592.941 202.646 595.906 201.062 599.133 200.42C602.361 199.778 605.707 200.107 608.748 201.367C611.788 202.626 614.387 204.759 616.215 207.495C618.044 210.232 619.02 213.449 619.02 216.74C619.014 221.151 617.26 225.381 614.14 228.5C611.021 231.62 606.791 233.374 602.38 233.38ZM602.38 201.61C599.385 201.61 596.457 202.498 593.967 204.162C591.477 205.826 589.537 208.191 588.391 210.958C587.246 213.725 586.946 216.77 587.531 219.707C588.116 222.644 589.559 225.342 591.678 227.459C593.796 229.576 596.495 231.017 599.432 231.6C602.37 232.183 605.414 231.882 608.181 230.735C610.947 229.587 613.311 227.645 614.973 225.154C616.635 222.663 617.522 219.735 617.52 216.74C617.514 212.727 615.917 208.88 613.079 206.044C610.241 203.207 606.393 201.613 602.38 201.61Z" fill="black"/>
<path d="M191.42 262.25H153.27C151.343 262.247 149.495 261.48 148.132 260.118C146.769 258.755 146.003 256.907 146 254.98V216.75H147.5V254.98C147.5 256.51 148.108 257.978 149.19 259.06C150.272 260.142 151.74 260.75 153.27 260.75H191.42V262.25Z" fill="black"/>
<path d="M146.75 225.68C151.687 225.68 155.69 221.677 155.69 216.74C155.69 211.803 151.687 207.8 146.75 207.8C141.813 207.8 137.81 211.803 137.81 216.74C137.81 221.677 141.813 225.68 146.75 225.68Z" fill="black"/>
<path d="M1124.06 239.43H876.83V237.93H1124.06C1125.59 237.927 1127.06 237.319 1128.14 236.237C1129.22 235.156 1129.83 233.689 1129.83 232.16V193.79C1129.83 191.863 1130.6 190.015 1131.96 188.652C1133.33 187.29 1135.17 186.523 1137.1 186.52H1272.42C1273.75 186.52 1275.02 185.993 1275.96 185.055C1276.89 184.118 1277.42 182.846 1277.42 181.52V105.9C1277.42 103.974 1278.19 102.127 1279.55 100.766C1280.92 99.4046 1282.76 98.6399 1284.69 98.6399H1435.33V100.14H1284.71C1283.18 100.14 1281.72 100.746 1280.63 101.826C1279.55 102.906 1278.94 104.371 1278.94 105.9V181.52C1278.94 183.249 1278.25 184.908 1277.03 186.13C1275.81 187.353 1274.15 188.04 1272.42 188.04H1137.1C1135.57 188.043 1134.1 188.651 1133.02 189.733C1131.94 190.814 1131.33 192.281 1131.33 193.81V232.18C1131.32 234.104 1130.55 235.946 1129.19 237.305C1127.83 238.663 1125.98 239.427 1124.06 239.43Z" fill="black"/>
<path d="M1187.72 187.25H1186.22V128.92C1186.23 127.413 1185.64 125.963 1184.59 124.884C1183.54 123.804 1182.11 123.181 1180.6 123.15L997.81 122.78V121.28L1180.61 121.65C1182.51 121.687 1184.32 122.47 1185.65 123.83C1186.98 125.19 1187.72 127.019 1187.71 128.92L1187.72 187.25Z" fill="black"/>
<path d="M1337.41 108.31C1342.35 108.31 1346.35 104.307 1346.35 99.37C1346.35 94.4326 1342.35 90.43 1337.41 90.43C1332.47 90.43 1328.47 94.4326 1328.47 99.37C1328.47 104.307 1332.47 108.31 1337.41 108.31Z" fill="black"/>
<path d="M1186.98 196.21C1191.92 196.21 1195.92 192.207 1195.92 187.27C1195.92 182.333 1191.92 178.33 1186.98 178.33C1182.04 178.33 1178.04 182.333 1178.04 187.27C1178.04 192.207 1182.04 196.21 1186.98 196.21Z" fill="black"/>
<path d="M1092.4 140.07C1101.17 140.07 1108.28 132.96 1108.28 124.19C1108.28 115.42 1101.17 108.31 1092.4 108.31C1083.63 108.31 1076.52 115.42 1076.52 124.19C1076.52 132.96 1083.63 140.07 1092.4 140.07Z" fill="white"/>
<path d="M1092.39 140.82C1089.1 140.82 1085.88 139.844 1083.14 138.015C1080.41 136.186 1078.27 133.587 1077.02 130.546C1075.76 127.505 1075.43 124.158 1076.07 120.93C1076.71 117.702 1078.3 114.737 1080.63 112.41C1082.96 110.084 1085.92 108.499 1089.15 107.859C1092.38 107.218 1095.72 107.549 1098.76 108.81C1101.81 110.071 1104.4 112.205 1106.23 114.943C1108.06 117.68 1109.03 120.899 1109.03 124.19C1109.02 128.601 1107.27 132.829 1104.15 135.947C1101.03 139.065 1096.8 140.818 1092.39 140.82ZM1092.39 109.05C1089.4 109.05 1086.47 109.938 1083.98 111.602C1081.49 113.265 1079.55 115.63 1078.4 118.396C1077.26 121.163 1076.96 124.207 1077.54 127.144C1078.13 130.081 1079.57 132.778 1081.68 134.896C1083.8 137.013 1086.5 138.455 1089.44 139.039C1092.37 139.623 1095.42 139.324 1098.18 138.178C1100.95 137.032 1103.31 135.091 1104.98 132.601C1106.64 130.112 1107.53 127.184 1107.53 124.19C1107.53 120.175 1105.93 116.326 1103.09 113.487C1100.25 110.649 1096.4 109.053 1092.39 109.05Z" fill="black"/>
<path d="M884.11 254.05C892.88 254.05 899.99 246.94 899.99 238.17C899.99 229.4 892.88 222.29 884.11 222.29C875.34 222.29 868.23 229.4 868.23 238.17C868.23 246.94 875.34 254.05 884.11 254.05Z" fill="white"/>
<path d="M884.1 254.8C880.809 254.8 877.592 253.824 874.855 251.996C872.119 250.167 869.986 247.568 868.727 244.528C867.467 241.487 867.138 238.142 867.78 234.914C868.422 231.686 870.007 228.721 872.334 226.394C874.661 224.067 877.626 222.482 880.854 221.84C884.081 221.198 887.427 221.527 890.468 222.787C893.508 224.046 896.107 226.179 897.936 228.915C899.764 231.652 900.74 234.869 900.74 238.16C900.737 242.572 898.983 246.803 895.863 249.923C892.743 253.043 888.512 254.797 884.1 254.8ZM884.1 223.03C881.105 223.03 878.178 223.918 875.688 225.582C873.198 227.246 871.257 229.611 870.111 232.378C868.966 235.145 868.667 238.19 869.252 241.127C869.837 244.065 871.279 246.762 873.398 248.879C875.516 250.996 878.215 252.437 881.152 253.02C884.09 253.603 887.134 253.302 889.901 252.155C892.667 251.007 895.031 249.065 896.693 246.574C898.356 244.083 899.242 241.155 899.24 238.16C899.235 234.147 897.638 230.3 894.799 227.464C891.961 224.627 888.113 223.033 884.1 223.03Z" fill="black"/>
<path d="M1092.4 140.07C1101.17 140.07 1108.28 132.96 1108.28 124.19C1108.28 115.42 1101.17 108.31 1092.4 108.31C1083.63 108.31 1076.52 115.42 1076.52 124.19C1076.52 132.96 1083.63 140.07 1092.4 140.07Z" fill="white"/>
<path d="M1092.39 140.82C1089.1 140.82 1085.88 139.844 1083.14 138.015C1080.41 136.186 1078.27 133.587 1077.02 130.546C1075.76 127.505 1075.43 124.158 1076.07 120.93C1076.71 117.702 1078.3 114.737 1080.63 112.41C1082.96 110.084 1085.92 108.499 1089.15 107.859C1092.38 107.218 1095.72 107.549 1098.76 108.81C1101.81 110.071 1104.4 112.205 1106.23 114.943C1108.06 117.68 1109.03 120.899 1109.03 124.19C1109.02 128.601 1107.27 132.829 1104.15 135.947C1101.03 139.065 1096.8 140.818 1092.39 140.82ZM1092.39 109.05C1089.4 109.05 1086.47 109.938 1083.98 111.602C1081.49 113.265 1079.55 115.63 1078.4 118.396C1077.26 121.163 1076.96 124.207 1077.54 127.144C1078.13 130.081 1079.57 132.778 1081.68 134.896C1083.8 137.013 1086.5 138.455 1089.44 139.039C1092.37 139.623 1095.42 139.324 1098.18 138.178C1100.95 137.032 1103.31 135.091 1104.98 132.601C1106.64 130.112 1107.53 127.184 1107.53 124.19C1107.53 120.175 1105.93 116.326 1103.09 113.487C1100.25 110.649 1096.4 109.053 1092.39 109.05Z" fill="black"/>
<path d="M1135.48 239.18H888.25V237.68H1135.48C1137.01 237.677 1138.48 237.069 1139.56 235.987C1140.64 234.906 1141.25 233.439 1141.25 231.91V193.54C1141.25 191.613 1142.02 189.765 1143.38 188.402C1144.74 187.04 1146.59 186.273 1148.52 186.27H1283.84C1285.17 186.27 1286.44 185.743 1287.38 184.805C1288.31 183.868 1288.84 182.596 1288.84 181.27V105.65C1288.84 103.724 1289.6 101.876 1290.97 100.513C1292.33 99.1498 1294.17 98.3825 1296.1 98.3799L1439.98 98.6399V100.14L1296.1 99.8799C1294.57 99.8825 1293.11 100.492 1292.03 101.573C1290.95 102.655 1290.34 104.121 1290.34 105.65V181.25C1290.34 182.978 1289.65 184.635 1288.43 185.857C1287.21 187.08 1285.55 187.767 1283.82 187.77H1148.52C1146.99 187.77 1145.52 188.378 1144.44 189.46C1143.36 190.542 1142.75 192.01 1142.75 193.54V231.91C1142.75 233.837 1141.98 235.685 1140.62 237.048C1139.25 238.411 1137.41 239.177 1135.48 239.18Z" fill="black"/>
<path d="M1199.14 187.02H1197.63V128.69C1197.64 127.182 1197.06 125.731 1196 124.651C1194.95 123.571 1193.52 122.949 1192.01 122.92L997.81 122.8V121.3L1192.03 121.42C1193.93 121.454 1195.74 122.236 1197.07 123.597C1198.4 124.958 1199.14 126.788 1199.13 128.69L1199.14 187.02Z" fill="black"/>
<path d="M1348.83 108.06C1353.77 108.06 1357.77 104.057 1357.77 99.12C1357.77 94.1826 1353.77 90.18 1348.83 90.18C1343.89 90.18 1339.89 94.1826 1339.89 99.12C1339.89 104.057 1343.89 108.06 1348.83 108.06Z" fill="black"/>
<path d="M1198.39 195.96C1203.33 195.96 1207.33 191.957 1207.33 187.02C1207.33 182.083 1203.33 178.08 1198.39 178.08C1193.45 178.08 1189.45 182.083 1189.45 187.02C1189.45 191.957 1193.45 195.96 1198.39 195.96Z" fill="black"/>
<path d="M1103.81 139.82C1112.58 139.82 1119.69 132.71 1119.69 123.94C1119.69 115.17 1112.58 108.06 1103.81 108.06C1095.04 108.06 1087.93 115.17 1087.93 123.94C1087.93 132.71 1095.04 139.82 1103.81 139.82Z" fill="white"/>
<path d="M1103.81 140.57C1100.52 140.572 1097.3 139.597 1094.56 137.77C1091.82 135.942 1089.69 133.343 1088.43 130.302C1087.17 127.261 1086.84 123.915 1087.48 120.686C1088.12 117.457 1089.71 114.491 1092.03 112.164C1094.36 109.836 1097.33 108.251 1100.56 107.609C1103.79 106.967 1107.13 107.298 1110.17 108.558C1113.21 109.819 1115.81 111.954 1117.64 114.692C1119.47 117.429 1120.44 120.648 1120.44 123.94C1120.43 128.349 1118.68 132.576 1115.56 135.693C1112.45 138.811 1108.22 140.565 1103.81 140.57ZM1103.81 108.8C1100.82 108.798 1097.89 109.684 1095.4 111.347C1092.9 113.009 1090.96 115.373 1089.82 118.139C1088.67 120.905 1088.37 123.95 1088.95 126.887C1089.53 129.825 1090.97 132.524 1093.09 134.642C1095.21 136.76 1097.91 138.203 1100.84 138.788C1103.78 139.373 1106.82 139.074 1109.59 137.928C1112.36 136.783 1114.72 134.842 1116.39 132.352C1118.05 129.862 1118.94 126.935 1118.94 123.94C1118.94 119.927 1117.34 116.079 1114.51 113.241C1111.67 110.402 1107.82 108.805 1103.81 108.8Z" fill="black"/>
<path d="M895.52 253.79C904.29 253.79 911.4 246.68 911.4 237.91C911.4 229.14 904.29 222.03 895.52 222.03C886.75 222.03 879.64 229.14 879.64 237.91C879.64 246.68 886.75 253.79 895.52 253.79Z" fill="#2C39F2"/>
<path d="M895.52 254.54C892.231 254.54 889.016 253.565 886.281 251.737C883.546 249.91 881.415 247.313 880.156 244.274C878.897 241.235 878.568 237.891 879.21 234.666C879.851 231.44 881.435 228.477 883.761 226.151C886.087 223.825 889.05 222.241 892.276 221.6C895.502 220.958 898.845 221.287 901.884 222.546C904.923 223.805 907.52 225.936 909.347 228.671C911.175 231.406 912.15 234.621 912.15 237.91C912.142 242.318 910.388 246.543 907.27 249.66C904.153 252.777 899.928 254.532 895.52 254.54ZM895.52 222.78C892.528 222.78 889.602 223.667 887.114 225.33C884.626 226.992 882.687 229.355 881.542 232.12C880.397 234.885 880.097 237.927 880.681 240.862C881.265 243.797 882.706 246.493 884.822 248.609C886.937 250.725 889.633 252.165 892.568 252.749C895.503 253.333 898.545 253.033 901.31 251.888C904.075 250.743 906.438 248.804 908.1 246.316C909.763 243.828 910.65 240.902 910.65 237.91C910.645 233.899 909.049 230.054 906.213 227.217C903.377 224.381 899.531 222.785 895.52 222.78Z" fill="black"/>
<path d="M1103.81 139.82C1112.58 139.82 1119.69 132.71 1119.69 123.94C1119.69 115.17 1112.58 108.06 1103.81 108.06C1095.04 108.06 1087.93 115.17 1087.93 123.94C1087.93 132.71 1095.04 139.82 1103.81 139.82Z" fill="white"/>
<path d="M1103.81 140.57C1100.52 140.572 1097.3 139.597 1094.56 137.77C1091.82 135.942 1089.69 133.343 1088.43 130.302C1087.17 127.261 1086.84 123.915 1087.48 120.686C1088.12 117.457 1089.71 114.491 1092.03 112.164C1094.36 109.836 1097.33 108.251 1100.56 107.609C1103.79 106.967 1107.13 107.298 1110.17 108.558C1113.21 109.819 1115.81 111.954 1117.64 114.692C1119.47 117.429 1120.44 120.648 1120.44 123.94C1120.43 128.349 1118.68 132.576 1115.56 135.693C1112.45 138.811 1108.22 140.565 1103.81 140.57ZM1103.81 108.8C1100.82 108.798 1097.89 109.684 1095.4 111.347C1092.9 113.009 1090.96 115.373 1089.82 118.139C1088.67 120.905 1088.37 123.95 1088.95 126.887C1089.53 129.825 1090.97 132.524 1093.09 134.642C1095.21 136.76 1097.91 138.203 1100.84 138.788C1103.78 139.373 1106.82 139.074 1109.59 137.928C1112.36 136.783 1114.72 134.842 1116.39 132.352C1118.05 129.862 1118.94 126.935 1118.94 123.94C1118.94 119.927 1117.34 116.079 1114.51 113.241C1111.67 110.402 1107.82 108.805 1103.81 108.8Z" fill="black"/>
<path fill-rule="evenodd" clip-rule="evenodd" d="M804.75 123.248L998.502 122.75L998.498 121.25L803.25 121.752V150.75L433.5 149.5V151L804.75 152.25V123.248Z" fill="black"/>
</svg>
