<svg width="350" height="252" viewBox="0 0 350 252" fill="none" xmlns="http://www.w3.org/2000/svg">
<g clip-path="url(#clip0_1102_1635)">
<path d="M51.7203 1.1051L51.7203 116.634C51.7184 118.017 51.1684 119.342 50.191 120.318C49.2136 121.295 47.8887 121.844 46.5074 121.844L16.6138 121.844C15.5165 121.844 14.4641 122.28 13.6882 123.057C12.9123 123.833 12.4764 124.886 12.4764 125.984L12.4764 315L11.4009 315L11.4009 125.977C11.4028 124.594 11.9526 123.268 12.9298 122.29C13.907 121.312 15.2318 120.762 16.6138 120.76L46.5074 120.76C47.6035 120.76 48.6549 120.325 49.4306 119.55C50.2063 118.775 50.6429 117.724 50.6448 116.627L50.6448 1.09802L51.7203 1.1051Z" fill="black"/>
<path d="M107.614 192.625L107.614 265.387C107.612 266.77 107.063 268.096 106.086 269.074C105.108 270.052 103.783 270.602 102.401 270.604L11.939 270.604L11.939 269.527L102.401 269.527C103.498 269.525 104.549 269.089 105.325 268.313C106.1 267.537 106.537 266.484 106.539 265.387L106.539 192.625C106.537 191.528 106.1 190.476 105.325 189.7C104.549 188.923 103.498 188.487 102.401 188.485L79.6424 188.485C78.2604 188.483 76.9356 187.933 75.9584 186.955C74.9812 185.977 74.4315 184.651 74.4296 183.268L74.4296 1.10501L75.5052 1.10501L75.5052 183.232C75.5071 184.33 75.9435 185.382 76.719 186.158C77.4945 186.934 78.5457 187.371 79.6424 187.372L102.401 187.372C103.089 187.373 103.769 187.51 104.404 187.775C105.038 188.04 105.614 188.427 106.098 188.915C106.582 189.403 106.966 189.982 107.226 190.619C107.486 191.255 107.618 191.937 107.614 192.625Z" fill="black"/>
<path d="M155.19 108.21L155.19 215.035C155.189 215.753 155.04 216.463 154.753 217.121C154.465 217.779 154.045 218.37 153.519 218.859C152.993 219.347 152.372 219.721 151.695 219.958C151.017 220.196 150.298 220.291 149.583 220.237L107.083 220.237L107.083 219.161L149.626 219.161C150.197 219.207 150.771 219.135 151.313 218.949C151.855 218.762 152.352 218.466 152.774 218.077C153.196 217.689 153.532 217.218 153.763 216.693C153.994 216.168 154.114 215.601 154.115 215.028L154.115 108.203L155.19 108.21Z" fill="black"/>
<path d="M194.427 -44.8555L194.427 48.6872C194.425 50.0702 193.875 51.3959 192.898 52.3739C191.921 53.3518 190.596 53.9021 189.214 53.904L159.321 53.904C158.23 53.9077 157.185 54.3414 156.412 55.1111C155.639 55.8808 155.2 56.9243 155.19 58.0156L155.19 116.211L111.759 116.211C110.377 116.209 109.052 115.659 108.075 114.681C107.098 113.703 106.548 112.377 106.546 110.994L106.725 0.846619L107.801 0.846619L107.621 110.994C107.623 112.091 108.06 113.144 108.836 113.92C109.611 114.696 110.662 115.132 111.759 115.134L154.115 115.134L154.115 58.0156C154.117 56.6327 154.667 55.3069 155.644 54.329C156.621 53.351 157.946 52.8008 159.328 52.7989L189.221 52.7989C190.318 52.797 191.369 52.3602 192.145 51.5841C192.92 50.8081 193.357 49.756 193.359 48.6585L193.359 -44.8699C193.359 -45.445 193.24 -46.0139 193.008 -46.5401C192.776 -47.0664 192.437 -47.5385 192.013 -47.9261C191.588 -48.3138 191.087 -48.6085 190.542 -48.7915C189.998 -48.9744 189.421 -49.0417 188.848 -48.9887L159.751 -48.9386C159.033 -48.879 158.311 -48.9691 157.63 -49.2032C156.948 -49.4373 156.323 -49.8103 155.794 -50.2985C155.264 -50.7868 154.841 -51.3798 154.552 -52.0399C154.263 -52.7001 154.114 -53.4131 154.115 -54.1338L154.115 -178.783C154.113 -179.881 153.676 -180.933 152.901 -181.709C152.125 -182.485 151.074 -182.922 149.977 -182.924L133.241 -182.924L133.241 -184L149.977 -184C151.359 -183.998 152.684 -183.448 153.661 -182.47C154.639 -181.492 155.188 -180.166 155.19 -178.783L155.19 -54.1194C155.191 -53.5443 155.311 -52.9757 155.543 -52.4496C155.776 -51.9235 156.114 -51.4515 156.538 -51.0635C156.963 -50.6755 157.463 -50.38 158.007 -50.1958C158.551 -50.0116 159.128 -49.9426 159.701 -49.9934L188.798 -50.0507C189.516 -50.1103 190.238 -50.0202 190.919 -49.7861C191.601 -49.552 192.226 -49.179 192.755 -48.6908C193.285 -48.2025 193.708 -47.6095 193.997 -46.9494C194.286 -46.2892 194.435 -45.5762 194.434 -44.8555L194.427 -44.8555Z" fill="black"/>
<path d="M113.666 220.129C113.666 216.815 110.98 214.129 107.666 214.129C104.352 214.129 101.666 216.815 101.666 220.129C101.666 223.442 104.352 226.129 107.666 226.129C110.98 226.129 113.666 223.442 113.666 220.129Z" fill="black"/>
<path d="M18 246C18 242.686 15.3137 240 12 240C8.68629 240 6 242.686 6 246C6 249.314 8.68629 252 12 252C15.3137 252 18 249.314 18 246Z" fill="black"/>
<path d="M114 246C114 242.686 111.314 240 108 240C104.686 240 102 242.686 102 246C102 249.314 104.686 252 108 252C111.314 252 114 249.314 114 246Z" fill="black"/>
<path d="M161.235 115.026C161.235 111.712 158.549 109.026 155.235 109.026C151.921 109.026 149.235 111.712 149.235 115.026C149.235 118.34 151.921 121.026 155.235 121.026C158.549 121.026 161.235 118.34 161.235 115.026Z" fill="black"/>
<path d="M23 182C23 176.477 18.0751 172 12 172C5.92487 172 0.999999 176.477 1 182C1 187.523 5.92487 192 12 192C18.0751 192 23 187.523 23 182Z" fill="white"/>
<path d="M23 182C23 184.176 22.3546 186.303 21.1456 188.112C19.9366 189.921 18.2183 191.331 16.2079 192.163C14.1975 192.996 11.9855 193.213 9.85153 192.788C7.71757 192.363 5.7576 191.315 4.21949 189.776C2.68139 188.237 1.63422 186.276 1.21053 184.142C0.786842 182.008 1.00573 179.796 1.83931 177.786C2.67288 175.776 4.08379 174.058 5.89359 172.851C7.7034 171.643 9.83071 170.999 12.0066 171C14.9223 171.004 17.7174 172.164 19.7785 174.226C21.8396 176.288 22.9983 179.084 23 182ZM1.99828 182C1.99828 183.979 2.58523 185.914 3.68497 187.56C4.7847 189.206 6.34783 190.489 8.17662 191.247C10.0054 192.004 12.0176 192.202 13.9591 191.816C15.9005 191.43 17.6838 190.477 19.0835 189.077C20.4832 187.677 21.4365 185.894 21.8227 183.953C22.2088 182.011 22.0106 179.999 21.2531 178.17C20.4956 176.341 19.2128 174.778 17.567 173.678C15.9211 172.579 13.986 171.992 12.0066 171.992C9.35273 171.993 6.8081 173.048 4.93155 174.925C3.05499 176.801 2.00003 179.346 1.99828 182Z" fill="black"/>
<path d="M86 115.5C86 109.701 81.0751 105 75 105C68.9249 105 64 109.701 64 115.5C64 121.299 68.9249 126 75 126C81.0751 126 86 121.299 86 115.5Z" fill="white"/>
<path d="M86.0571 115.552C86.0584 117.728 85.4144 119.855 84.2065 121.665C82.9986 123.475 81.2812 124.886 79.2713 125.719C77.2614 126.553 75.0494 126.772 72.9152 126.348C70.781 125.924 68.8202 124.877 67.2812 123.339C65.7422 121.801 64.694 119.841 64.269 117.707C63.844 115.573 64.0614 113.361 64.8938 111.35C65.7261 109.34 67.1361 107.622 68.9452 106.413C70.7542 105.204 72.8812 104.558 75.057 104.558C77.9722 104.562 80.7672 105.721 82.8291 107.782C84.8911 109.843 86.0519 112.637 86.0571 115.552ZM65.0553 115.552C65.054 117.532 65.64 119.468 66.7393 121.115C67.8385 122.762 69.4015 124.045 71.2306 124.804C73.0597 125.562 75.0726 125.761 77.0147 125.375C78.9568 124.989 80.7405 124.035 82.1406 122.635C83.5408 121.235 84.4941 119.451 84.8801 117.509C85.2661 115.567 85.0673 113.554 84.3089 111.725C83.5506 109.896 82.2669 108.333 80.62 107.234C78.9731 106.135 77.0371 105.549 75.057 105.55C72.4032 105.55 69.8578 106.603 67.98 108.479C66.1022 110.354 65.0456 112.898 65.0421 115.552L65.0553 115.552Z" fill="black"/>
<path d="M86 42.5C86 36.701 81.0751 32 75 32C68.9249 32 64 36.701 64 42.5C64 48.299 68.9249 53 75 53C81.0751 53 86 48.299 86 42.5Z" fill="white"/>
<path d="M86.0425 42.9473C86.0425 45.1231 85.3971 47.2502 84.1881 49.0592C82.9791 50.8683 81.2609 52.2783 79.2505 53.1106C77.2401 53.943 75.0281 54.1604 72.8941 53.7355C70.7601 53.3105 68.8 52.2622 67.2619 50.7232C65.7238 49.1841 64.6767 47.2235 64.2531 45.0893C63.8294 42.955 64.0481 40.7431 64.8817 38.7332C65.7153 36.7233 67.1262 35.0058 68.936 33.7979C70.7458 32.59 72.8731 31.946 75.049 31.9473C77.9647 31.9508 80.76 33.111 82.8211 35.1734C84.8822 37.2357 86.0407 40.0316 86.0425 42.9473ZM65.0406 42.9473C65.0406 44.9268 65.6276 46.8618 66.7273 48.5077C67.8271 50.1536 69.3902 51.4363 71.219 52.1939C73.0478 52.9514 75.0602 53.1496 77.0017 52.7634C78.9431 52.3772 80.7265 51.4241 82.1262 50.0244C83.5259 48.6247 84.479 46.8413 84.8651 44.8999C85.2513 42.9584 85.0531 40.946 84.2956 39.1172C83.5381 37.2884 82.2553 35.7254 80.6094 34.6256C78.9635 33.5259 77.0285 32.9389 75.049 32.9389C72.3951 32.9407 69.8505 33.9956 67.9739 35.8722C66.0974 37.7488 65.0424 40.2934 65.0406 42.9473Z" fill="black"/>
<path d="M205.276 1.04064C205.276 -5.25268 200.178 -10.3544 193.889 -10.3544C187.6 -10.3544 182.502 -5.25267 182.502 1.04064C182.502 7.33395 187.6 12.4357 193.889 12.4357C200.178 12.4357 205.276 7.33395 205.276 1.04064Z" fill="white"/>
<path d="M197 161C197 154.925 192.523 150 187 150C181.477 150 177 154.925 177 161C177 167.075 181.477 172 187 172C192.523 172 197 167.075 197 161Z" fill="white"/>
<path d="M198 161C198 163.176 197.355 165.302 196.146 167.111C194.937 168.92 193.219 170.33 191.21 171.163C189.2 171.995 186.988 172.213 184.854 171.789C182.72 171.364 180.76 170.317 179.222 168.778C177.683 167.24 176.636 165.28 176.211 163.146C175.787 161.012 176.005 158.8 176.837 156.79C177.67 154.78 179.08 153.063 180.889 151.854C182.698 150.645 184.824 150 187 150C189.917 150.002 192.714 151.161 194.776 153.224C196.839 155.286 197.998 158.083 198 161ZM176.998 161C176.998 162.98 177.585 164.915 178.685 166.561C179.785 168.207 181.349 169.49 183.178 170.247C185.007 171.005 187.02 171.202 188.961 170.816C190.903 170.429 192.687 169.475 194.086 168.075C195.485 166.674 196.438 164.89 196.823 162.949C197.209 161.007 197.01 158.994 196.251 157.165C195.493 155.337 194.209 153.774 192.562 152.675C190.915 151.576 188.98 150.99 187 150.992C184.347 150.995 181.804 152.051 179.929 153.927C178.054 155.804 177 158.347 176.998 161Z" fill="black"/>
<path d="M187.263 169.448L187.263 196.83C187.262 198.213 186.712 199.539 185.734 200.517C184.757 201.495 183.432 202.045 182.05 202.047L154.645 202.047L154.645 200.97L182.05 200.97C183.148 200.97 184.2 200.534 184.976 199.758C185.752 198.981 186.188 197.928 186.188 196.83L186.188 169.448L187.263 169.448Z" fill="black"/>
<path d="M161.235 201.917C161.235 198.603 158.549 195.917 155.235 195.917C151.921 195.917 149.235 198.603 149.235 201.917C149.235 205.23 151.921 207.917 155.235 207.917C158.549 207.917 161.235 205.23 161.235 201.917Z" fill="black"/>
<path d="M51.9356 124.815C51.9337 126.198 51.3839 127.523 50.4067 128.501C49.4295 129.479 48.1047 130.029 46.7227 130.031L16.8004 130.031C15.7037 130.033 14.6524 130.47 13.8769 131.246C13.1014 132.022 12.6649 133.074 12.663 134.172L12.4838 315L11.4082 315L11.5875 134.172C11.5894 132.789 12.1392 131.463 13.1164 130.485C14.0936 129.507 15.4184 128.957 16.8004 128.955L46.694 128.955C47.7907 128.953 48.842 128.516 49.6175 127.74C50.393 126.964 50.8295 125.912 50.8314 124.815L50.6521 1.1051L51.7277 1.1051L51.9356 124.815Z" fill="black"/>
<path d="M107.794 200.82L107.794 273.582C107.792 274.964 107.242 276.289 106.264 277.266C105.287 278.243 103.962 278.791 102.581 278.791L12.1182 278.791L12.1182 277.715L102.581 277.715C103.677 277.715 104.728 277.28 105.504 276.505C106.279 275.73 106.716 274.679 106.718 273.582L106.718 200.82C106.716 199.722 106.28 198.67 105.504 197.894C104.729 197.118 103.677 196.681 102.581 196.679L79.8216 196.679C78.4396 196.678 77.1148 196.127 76.1376 195.149C75.1604 194.172 74.6107 192.846 74.6088 191.463L74.4295 1.1051L75.5051 1.1051L75.6844 191.47C75.6863 192.567 76.1227 193.619 76.8982 194.396C77.6737 195.172 78.7248 195.608 79.8216 195.61L102.581 195.61C103.961 195.612 105.285 196.161 106.262 197.138C107.239 198.114 107.79 199.438 107.794 200.82Z" fill="black"/>
<path d="M155.362 116.405L155.362 223.23C155.363 223.948 155.216 224.658 154.929 225.317C154.643 225.975 154.224 226.567 153.698 227.056C153.172 227.544 152.551 227.918 151.874 228.155C151.196 228.392 150.477 228.486 149.762 228.432L107.255 228.432L107.255 227.356L149.798 227.356C150.373 227.405 150.952 227.334 151.498 227.146C152.044 226.958 152.544 226.658 152.967 226.265C153.386 225.879 153.719 225.409 153.947 224.887C154.174 224.364 154.29 223.8 154.286 223.23L154.286 116.405L155.362 116.405Z" fill="black"/>
<path d="M194.627 -37.7369L194.627 55.7914C194.626 57.1744 194.076 58.5002 193.099 59.4781C192.121 60.456 190.797 61.0063 189.415 61.0082L159.492 61.0082C158.396 61.0101 157.344 61.4469 156.569 62.223C155.793 62.999 155.357 64.051 155.355 65.1485L155.355 123.344L111.923 123.344C110.541 123.342 109.217 122.792 108.239 121.814C107.262 120.836 106.712 119.51 106.71 118.127L106.71 0.703323L107.786 0.703323L107.786 118.127C107.788 119.224 108.225 120.276 109 121.053C109.776 121.829 110.827 122.265 111.923 122.267L154.279 122.267L154.279 65.1485C154.281 63.7655 154.831 62.4398 155.808 61.4619C156.785 60.4839 158.11 59.9338 159.492 59.9319L189.386 59.9319C190.483 59.93 191.534 59.4931 192.309 58.717C193.085 57.9409 193.521 56.889 193.523 55.7914L193.523 -37.7369C193.522 -38.312 193.402 -38.8806 193.17 -39.4067C192.938 -39.9328 192.599 -40.4048 192.175 -40.7928C191.751 -41.1808 191.251 -41.4764 190.706 -41.6606C190.162 -41.8448 189.585 -41.9137 189.013 -41.8629L159.915 -41.8056C159.198 -41.7482 158.477 -41.8398 157.796 -42.0748C157.116 -42.3097 156.492 -42.6827 155.963 -43.1705C155.434 -43.6584 155.011 -44.2505 154.721 -44.9097C154.431 -45.5688 154.281 -46.2807 154.279 -47.0008L154.279 -171.686C154.277 -172.784 153.841 -173.836 153.065 -174.612C152.29 -175.388 151.239 -175.825 150.142 -175.826L133.227 -175.826L133.227 -176.903L150.171 -176.903C151.553 -176.901 152.877 -176.351 153.855 -175.373C154.832 -174.395 155.382 -173.069 155.384 -171.686L155.384 -47.0008C155.383 -46.4257 155.503 -45.8568 155.734 -45.3305C155.966 -44.8043 156.305 -44.3322 156.73 -43.9445C157.154 -43.5569 157.655 -43.2622 158.2 -43.0792C158.745 -42.8962 159.322 -42.829 159.894 -42.8819L188.991 -42.9393C189.709 -42.9967 190.431 -42.9049 191.112 -42.6696C191.793 -42.4343 192.417 -42.0605 192.947 -41.5719C193.476 -41.0833 193.899 -40.4903 194.188 -39.8303C194.477 -39.1703 194.627 -38.4576 194.627 -37.7369Z" fill="black"/>
<path d="M113.845 228.323C113.845 225.009 111.159 222.323 107.845 222.323C104.532 222.323 101.845 225.01 101.845 228.323C101.845 231.637 104.532 234.323 107.845 234.323C111.159 234.323 113.845 231.637 113.845 228.323Z" fill="black"/>
<path d="M161.414 123.221C161.414 119.907 158.728 117.221 155.414 117.221C152.1 117.221 149.414 119.907 149.414 123.221C149.414 126.534 152.1 129.221 155.414 129.221C158.728 129.221 161.414 126.534 161.414 123.221Z" fill="black"/>
<path d="M23 192.5C23 186.701 18.299 182 12.5 182C6.70101 182 2 186.701 2 192.5C2 198.299 6.70101 203 12.5 203C18.299 203 23 198.299 23 192.5Z" fill="white"/>
<path d="M23.1792 192.066C23.1805 194.243 22.5362 196.37 21.3281 198.18C20.1199 199.99 18.402 201.401 16.3918 202.234C14.3815 203.068 12.1692 203.286 10.0348 202.862C7.90037 202.438 5.93988 201.39 4.40111 199.851C2.86235 198.312 1.81444 196.352 1.39022 194.217C0.965992 192.083 1.18448 189.871 2.01786 187.861C2.85124 185.85 4.26204 184.132 6.07199 182.924C7.88193 181.716 10.0096 181.072 12.1858 181.073C15.0998 181.078 17.893 182.238 19.9535 184.299C22.014 186.359 23.174 189.152 23.1792 192.066ZM2.17748 192.066C2.17617 194.046 2.762 195.982 3.86094 197.629C4.95988 199.275 6.52247 200.559 8.35114 201.318C10.1798 202.076 12.1924 202.275 14.1342 201.89C16.0761 201.505 17.8601 200.552 19.2605 199.152C20.6608 197.753 21.6147 195.97 22.0014 194.028C22.3881 192.086 22.1903 190.074 21.433 188.245C20.6756 186.415 19.3928 184.852 17.7468 183.752C16.1008 182.652 14.1655 182.065 12.1858 182.065C9.53307 182.066 6.98937 183.121 5.11301 184.996C3.23664 186.871 2.18098 189.414 2.17748 192.066Z" fill="black"/>
<path d="M86 123.5C86 117.701 81.299 113 75.5 113C69.701 113 65 117.701 65 123.5C65 129.299 69.701 134 75.5 134C81.299 134 86 129.299 86 123.5Z" fill="#2C39F2"/>
<path d="M86.2075 123.746C86.2075 125.921 85.5623 128.048 84.3536 129.857C83.1449 131.666 81.427 133.076 79.417 133.908C77.407 134.741 75.1954 134.959 73.0616 134.534C70.9278 134.11 68.9677 133.062 67.4293 131.524C65.891 129.986 64.8433 128.025 64.4189 125.892C63.9945 123.758 64.2122 121.546 65.0448 119.536C65.8773 117.526 67.2872 115.808 69.0962 114.6C70.9051 113.391 73.032 112.746 75.2076 112.746C78.1244 112.747 80.9212 113.907 82.9837 115.969C85.0463 118.032 86.2058 120.829 86.2075 123.746ZM65.2057 123.746C65.2057 125.725 65.7928 127.661 66.8929 129.307C67.9929 130.953 69.5563 132.236 71.3855 132.993C73.2147 133.75 75.2275 133.948 77.1691 133.561C79.1108 133.175 80.894 132.221 82.2935 130.82C83.6929 129.42 84.6455 127.636 85.031 125.694C85.4164 123.752 85.2174 121.74 84.4588 119.911C83.7003 118.082 82.4165 116.52 80.7698 115.421C79.123 114.322 77.1873 113.736 75.2076 113.737C72.5595 113.748 70.0232 114.807 68.1538 116.682C66.2844 118.558 65.2339 121.098 65.2322 123.746L65.2057 123.746Z" fill="black"/>
<path d="M86 51.5C86 45.701 81.299 41 75.5 41C69.701 41 65 45.701 65 51.5C65 57.299 69.701 62 75.5 62C81.299 62 86 57.299 86 51.5Z" fill="white"/>
<path d="M86.2075 51.1353C86.2088 53.3115 85.5646 55.4392 84.3564 57.2491C83.1482 59.0591 81.4303 60.47 79.4201 61.3033C77.4098 62.1367 75.1976 62.3551 73.0632 61.9309C70.9288 61.5067 68.9681 60.4589 67.4293 58.9201C65.8906 57.3813 64.8428 55.4207 64.4186 53.2863C63.9944 51.1519 64.2127 48.9397 65.0461 46.9294C65.8795 44.9191 67.2904 43.2012 69.1004 41.993C70.9103 40.7848 73.038 40.1406 75.2142 40.142C78.1282 40.1472 80.9213 41.3071 82.9818 43.3677C85.0423 45.4282 86.2023 48.2213 86.2075 51.1353ZM65.2057 51.1353C65.2044 53.1151 65.7902 55.0508 66.8892 56.6975C67.9881 58.3442 69.5509 59.628 71.3795 60.3866C73.2082 61.1451 75.2208 61.3443 77.1627 60.9589C79.1046 60.5734 80.8884 59.6207 82.2888 58.2213C83.6891 56.8218 84.643 55.0386 85.0297 53.0969C85.4164 51.1553 85.2186 49.1426 84.4613 47.3134C83.7039 45.4843 82.4213 43.9207 80.7753 42.8207C79.1292 41.7207 77.194 41.1335 75.2142 41.1335C72.5638 41.1388 70.0235 42.1945 68.1499 44.0692C66.2764 45.944 65.2224 48.4849 65.2189 51.1353L65.2057 51.1353Z" fill="black"/>
<path d="M197 167.5C197 161.701 192.523 157 187 157C181.477 157 177 161.701 177 167.5C177 173.299 181.477 178 187 178C192.523 178 197 173.299 197 167.5Z" fill="white"/>
<path d="M197.973 167.181C197.974 169.357 197.33 171.485 196.122 173.295C194.914 175.105 193.196 176.516 191.186 177.349C189.175 178.182 186.963 178.401 184.829 177.976C182.694 177.552 180.734 176.505 179.195 174.966C177.656 173.427 176.608 171.466 176.184 169.332C175.76 167.198 175.978 164.985 176.812 162.975C177.645 160.965 179.056 159.247 180.866 158.039C182.676 156.83 184.804 156.186 186.98 156.188C189.894 156.191 192.688 157.35 194.749 159.411C196.81 161.472 197.97 164.266 197.973 167.181ZM176.971 167.181C176.97 169.161 177.556 171.096 178.655 172.743C179.754 174.39 181.316 175.674 183.145 176.432C184.974 177.191 186.986 177.39 188.928 177.004C190.87 176.619 192.654 175.666 194.054 174.267C195.455 172.867 196.409 171.084 196.795 169.143C197.182 167.201 196.984 165.188 196.227 163.359C195.47 161.53 194.187 159.966 192.541 158.866C190.895 157.766 188.959 157.179 186.98 157.179C184.327 157.181 181.783 158.235 179.907 160.11C178.031 161.985 176.975 164.528 176.971 167.181Z" fill="black"/>
<path d="M187.457 177.642L187.457 205.018C187.455 206.401 186.905 207.727 185.928 208.704C184.951 209.682 183.626 210.233 182.244 210.234L154.832 210.234L154.832 209.158L182.244 209.158C183.341 209.158 184.394 208.722 185.17 207.945C185.946 207.169 186.382 206.116 186.382 205.018L186.382 177.642L187.457 177.642Z" fill="black"/>
<path d="M161.414 210.111C161.414 206.798 158.728 204.111 155.414 204.111C152.1 204.111 149.414 206.798 149.414 210.111C149.414 213.425 152.1 216.111 155.414 216.111C158.728 216.111 161.414 213.425 161.414 210.111Z" fill="black"/>
</g>
<g clip-path="url(#clip1_1102_1635)">
<path d="M337.862 199.313L337.862 393.635L336.678 393.635L336.678 199.313C336.676 198.11 336.195 196.958 335.341 196.108C334.487 195.258 333.329 194.78 332.121 194.777L301.82 194.777C300.298 194.775 298.839 194.173 297.763 193.101C296.687 192.03 296.081 190.578 296.079 189.063L296.079 82.7018C296.079 81.6595 295.663 80.66 294.923 79.923C294.182 79.186 293.178 78.7718 292.131 78.7718L232.414 78.7718C230.893 78.7697 229.434 78.1668 228.36 77.0954C227.285 76.024 226.681 74.5717 226.681 73.0576L226.681 -45.3452L227.865 -45.3452L227.865 73.0418C227.865 74.2433 228.344 75.3958 229.197 76.2461C230.05 77.0964 231.207 77.575 232.414 77.5771L292.131 77.5771C293.496 77.5771 294.806 78.117 295.772 79.0781C296.737 80.0392 297.28 81.3426 297.28 82.7018L297.28 189.063C297.282 190.265 297.763 191.418 298.617 192.268C299.471 193.118 300.628 193.596 301.836 193.598L332.137 193.598C333.656 193.605 335.111 194.209 336.184 195.28C337.257 196.351 337.86 197.801 337.862 199.313Z" fill="black"/>
<path d="M296.656 149.276L296.656 150.455L250.593 150.455C249.403 150.448 248.258 150.908 247.405 151.735C246.553 152.561 246.061 153.688 246.036 154.872L245.744 298.545L244.56 298.545L244.852 154.864C244.881 153.37 245.499 151.947 246.573 150.903C247.648 149.859 249.091 149.277 250.593 149.284L296.656 149.276Z" fill="black"/>
<path d="M234.317 31.6201C234.317 27.7393 231.156 24.5933 227.257 24.5933C223.358 24.5933 220.197 27.7393 220.197 31.6201C220.197 35.5009 223.358 38.6469 227.257 38.6469C231.156 38.6469 234.317 35.5009 234.317 31.6201Z" fill="black"/>
<path d="M302.612 150.884C302.612 147.571 299.926 144.884 296.612 144.884C293.298 144.884 290.612 147.571 290.612 150.884C290.612 154.198 293.298 156.884 296.612 156.884C299.926 156.884 302.612 154.198 302.612 150.884Z" fill="black"/>
<path d="M256 222.5C256 216.701 251.299 212 245.5 212C239.701 212 235 216.701 235 222.5C235 228.299 239.701 233 245.5 233C251.299 233 256 228.299 256 222.5Z" fill="white"/>
<path d="M256.709 222.284C256.709 224.46 256.064 226.587 254.855 228.396C253.646 230.205 251.927 231.615 249.917 232.448C247.907 233.28 245.694 233.497 243.561 233.072C241.427 232.647 239.467 231.599 237.928 230.06C236.39 228.521 235.343 226.56 234.92 224.426C234.496 222.292 234.715 220.08 235.548 218.07C236.382 216.06 237.793 214.343 239.603 213.135C241.412 211.927 243.54 211.283 245.716 211.284C248.631 211.288 251.426 212.448 253.487 214.51C255.549 216.573 256.707 219.369 256.709 222.284ZM235.707 222.284C235.707 224.264 236.294 226.199 237.394 227.845C238.494 229.491 240.057 230.773 241.886 231.531C243.714 232.288 245.727 232.487 247.668 232.1C249.609 231.714 251.393 230.761 252.793 229.361C254.192 227.962 255.145 226.178 255.532 224.237C255.918 222.295 255.72 220.283 254.962 218.454C254.205 216.625 252.922 215.062 251.276 213.963C249.63 212.863 247.695 212.276 245.716 212.276C243.062 212.278 240.517 213.333 238.641 215.209C236.764 217.086 235.709 219.63 235.707 222.284Z" fill="black"/>
<path d="M337.665 190.337L337.665 384.659L336.48 384.659L336.48 190.337C336.478 189.134 335.998 187.982 335.144 187.132C334.29 186.282 333.132 185.803 331.924 185.801L301.623 185.801C300.101 185.799 298.642 185.197 297.566 184.126C296.49 183.054 295.884 181.602 295.882 180.087L295.882 73.7259C295.882 72.6836 295.466 71.6839 294.726 70.9469C293.985 70.2099 292.981 69.7959 291.934 69.7959L232.217 69.7959C230.695 69.7959 229.236 69.195 228.16 68.1251C227.084 67.0552 226.478 65.6037 226.476 64.0896L226.681 -49L227.865 -49L227.66 64.0896C227.662 65.291 228.143 66.4425 228.998 67.2913C229.852 68.1401 231.01 68.6169 232.217 68.6169L291.918 68.6169C293.283 68.619 294.591 69.1596 295.556 70.1202C296.522 71.0809 297.065 72.3831 297.067 73.7417L297.067 180.087C297.067 181.29 297.547 182.444 298.401 183.294C299.256 184.145 300.415 184.622 301.623 184.622L331.924 184.622C333.446 184.624 334.905 185.227 335.981 186.298C337.058 187.37 337.663 188.822 337.665 190.337Z" fill="black"/>
<path d="M296.474 140.3L296.474 141.487L250.411 141.487C249.22 141.478 248.074 141.937 247.221 142.764C246.368 143.591 245.877 144.719 245.854 145.904L245.76 298.545L244.575 298.545L244.67 145.888C244.697 144.393 245.315 142.969 246.389 141.925C247.464 140.88 248.909 140.299 250.411 140.308L296.474 140.3Z" fill="black"/>
<path d="M234.12 22.6437C234.12 18.7629 230.959 15.6168 227.06 15.6168C223.161 15.6168 220 18.7629 220 22.6437C220 26.5245 223.161 29.6705 227.06 29.6705C230.959 29.6705 234.12 26.5245 234.12 22.6437Z" fill="black"/>
<path d="M302.415 141.916C302.415 138.602 299.728 135.916 296.415 135.916C293.101 135.916 290.415 138.602 290.415 141.916C290.415 145.23 293.101 147.916 296.415 147.916C299.728 147.916 302.415 145.23 302.415 141.916Z" fill="black"/>
<path d="M257 213C257 207.477 252.075 203 246 203C239.925 203 235 207.477 235 213C235 218.523 239.925 223 246 223C252.075 223 257 218.523 257 213Z" fill="white"/>
<path d="M257 212.993C257.001 215.17 256.357 217.297 255.149 219.107C253.941 220.917 252.223 222.328 250.213 223.161C248.202 223.995 245.99 224.213 243.856 223.789C241.721 223.365 239.761 222.317 238.222 220.778C236.683 219.239 235.635 217.279 235.211 215.144C234.787 213.01 235.005 210.798 235.839 208.787C236.672 206.777 238.083 205.059 239.893 203.851C241.703 202.643 243.83 201.999 246.007 202C248.921 202.003 251.715 203.163 253.776 205.224C255.837 207.285 256.996 210.079 257 212.993ZM235.998 212.993C235.997 214.973 236.583 216.909 237.682 218.556C238.781 220.202 240.343 221.486 242.172 222.245C244.001 223.003 246.013 223.202 247.955 222.817C249.897 222.432 251.681 221.479 253.081 220.079C254.482 218.68 255.435 216.897 255.822 214.955C256.209 213.013 256.011 211.001 255.254 209.172C254.496 207.342 253.214 205.779 251.568 204.679C249.922 203.579 247.986 202.992 246.007 202.992C243.354 202.993 240.81 204.047 238.934 205.923C237.058 207.798 236.002 210.341 235.998 212.993Z" fill="black"/>
<path d="M251 244C251 240.686 248.314 238 245 238C241.686 238 239 240.686 239 244C239 247.314 241.686 250 245 250C248.314 250 251 247.314 251 244Z" fill="black"/>
<path d="M343 244C343 240.686 340.314 238 337 238C333.686 238 331 240.686 331 244C331 247.314 333.686 250 337 250C340.314 250 343 247.314 343 244Z" fill="black"/>
</g>
<defs>
<clipPath id="clip0_1102_1635">
<rect width="251" height="206" fill="white" transform="translate(0 252) rotate(-90)"/>
</clipPath>
<clipPath id="clip1_1102_1635">
<rect width="250" height="130" fill="white" transform="translate(220 250) rotate(-90)"/>
</clipPath>
</defs>
</svg>
