<svg width="1441" height="288" viewBox="0 0 1441 288" fill="none" xmlns="http://www.w3.org/2000/svg">
<path d="M437.45 72.45H276.46C272.59 72.45 269.44 69.3 269.44 65.43V23.74C269.44 20.42 266.74 17.72 263.42 17.72H0V16.72H263.42C267.29 16.72 270.44 19.87 270.44 23.74V65.43C270.44 68.75 273.14 71.45 276.46 71.45H437.45V72.45Z" fill="black"/>
<path d="M170.54 150.4H69.1401C65.2701 150.4 62.1201 147.25 62.1201 143.38V17.22H63.1201V143.38C63.1201 146.7 65.8201 149.4 69.1401 149.4H170.54C173.86 149.4 176.56 146.7 176.56 143.38V111.64C176.56 107.77 179.71 104.62 183.58 104.62H437.45V105.62H183.58C180.26 105.62 177.56 108.32 177.56 111.64V143.38C177.56 147.25 174.41 150.4 170.54 150.4Z" fill="black"/>
<path d="M288.18 216.74H139.31C137.36 216.74 135.49 215.92 134.16 214.49C132.84 213.06 132.16 211.13 132.31 209.19L132.29 149.89H133.29L133.31 209.22C133.18 210.95 133.75 212.56 134.9 213.8C136.05 215.04 137.62 215.73 139.31 215.73H288.18V216.74Z" fill="black"/>
<path d="M502.99 271.47H372.65C368.78 271.47 365.63 268.32 365.63 264.45V222.76C365.63 219.44 362.93 216.74 359.61 216.74H278.76V156.42C278.76 152.55 281.91 149.4 285.78 149.4L439.28 149.65V150.65L285.78 150.4C282.46 150.4 279.76 153.1 279.76 156.42V215.74H359.61C363.48 215.74 366.63 218.89 366.63 222.76V264.45C366.63 267.77 369.33 270.47 372.65 270.47H502.99C504.68 270.47 506.3 269.76 507.44 268.51C508.58 267.26 509.14 265.59 508.99 263.9L508.91 223.34C508.73 221.42 509.39 219.47 510.72 218.02C512.05 216.57 513.94 215.73 515.9 215.73H689.65C692.97 215.73 695.67 213.03 695.67 209.71V149.9H696.67V209.72C696.67 213.59 693.52 216.74 689.65 216.74H515.9C514.21 216.74 512.59 217.45 511.45 218.7C510.31 219.95 509.75 221.62 509.9 223.3L509.98 263.86C510.16 265.78 509.5 267.73 508.17 269.19C506.85 270.64 504.96 271.47 502.99 271.47Z" fill="black"/>
<path d="M62.6202 26.16C67.5576 26.16 71.5602 22.1575 71.5602 17.22C71.5602 12.2826 67.5576 8.28003 62.6202 8.28003C57.6827 8.28003 53.6802 12.2826 53.6802 17.22C53.6802 22.1575 57.6827 26.16 62.6202 26.16Z" fill="black"/>
<path d="M132.79 158.84C137.728 158.84 141.73 154.837 141.73 149.9C141.73 144.963 137.728 140.96 132.79 140.96C127.853 140.96 123.85 144.963 123.85 149.9C123.85 154.837 127.853 158.84 132.79 158.84Z" fill="black"/>
<path d="M279.26 225.18C284.197 225.18 288.2 221.177 288.2 216.24C288.2 211.303 284.197 207.3 279.26 207.3C274.322 207.3 270.32 211.303 270.32 216.24C270.32 221.177 274.322 225.18 279.26 225.18Z" fill="black"/>
<path d="M184.07 33.1001C192.84 33.1001 199.95 25.9904 199.95 17.2201C199.95 8.44981 192.84 1.34009 184.07 1.34009C175.3 1.34009 168.19 8.44981 168.19 17.2201C168.19 25.9904 175.3 33.1001 184.07 33.1001Z" fill="white"/>
<path d="M184.07 33.6001C175.04 33.6001 167.69 26.2501 167.69 17.2201C167.69 8.19009 175.04 0.840088 184.07 0.840088C193.1 0.840088 200.45 8.19009 200.45 17.2201C200.45 26.2501 193.1 33.6001 184.07 33.6001ZM184.07 1.83009C175.59 1.83009 168.69 8.7301 168.69 17.2101C168.69 25.6901 175.59 32.5901 184.07 32.5901C192.55 32.5901 199.45 25.6901 199.45 17.2101C199.45 8.7301 192.55 1.83009 184.07 1.83009Z" fill="black"/>
<path d="M279.26 121.03C288.03 121.03 295.14 113.92 295.14 105.15C295.14 96.3797 288.03 89.27 279.26 89.27C270.49 89.27 263.38 96.3797 263.38 105.15C263.38 113.92 270.49 121.03 279.26 121.03Z" fill="white"/>
<path d="M279.26 121.54C270.23 121.54 262.88 114.19 262.88 105.16C262.88 96.13 270.23 88.78 279.26 88.78C288.29 88.78 295.64 96.13 295.64 105.16C295.64 114.19 288.29 121.54 279.26 121.54ZM279.26 89.77C270.78 89.77 263.88 96.67 263.88 105.15C263.88 113.63 270.78 120.53 279.26 120.53C287.74 120.53 294.64 113.63 294.64 105.15C294.64 96.67 287.74 89.77 279.26 89.77Z" fill="black"/>
<path d="M380.45 121.02C389.22 121.02 396.33 113.91 396.33 105.14C396.33 96.3697 389.22 89.26 380.45 89.26C371.68 89.26 364.57 96.3697 364.57 105.14C364.57 113.91 371.68 121.02 380.45 121.02Z" fill="white"/>
<path d="M380.45 121.52C371.42 121.52 364.07 114.17 364.07 105.14C364.07 96.11 371.42 88.76 380.45 88.76C389.48 88.76 396.83 96.11 396.83 105.14C396.83 114.17 389.48 121.52 380.45 121.52ZM380.45 89.75C371.97 89.75 365.07 96.65 365.07 105.13C365.07 113.61 371.97 120.51 380.45 120.51C388.93 120.51 395.83 113.61 395.83 105.13C395.83 96.65 388.93 89.75 380.45 89.75Z" fill="black"/>
<path d="M437.53 286.85C446.3 286.85 453.41 279.74 453.41 270.97C453.41 262.2 446.3 255.09 437.53 255.09C428.76 255.09 421.65 262.2 421.65 270.97C421.65 279.74 428.76 286.85 437.53 286.85Z" fill="white"/>
<path d="M437.53 287.36C428.5 287.36 421.15 280.01 421.15 270.98C421.15 261.94 428.5 254.59 437.53 254.59C446.56 254.59 453.91 261.94 453.91 270.98C453.92 280.01 446.57 287.36 437.53 287.36ZM437.53 255.59C429.05 255.59 422.15 262.49 422.15 270.98C422.15 279.47 429.05 286.36 437.53 286.36C446.01 286.36 452.91 279.46 452.91 270.98C452.91 262.5 446.02 255.59 437.53 255.59Z" fill="black"/>
<path d="M218.72 276.87C227.49 276.87 234.6 269.76 234.6 260.99C234.6 252.22 227.49 245.11 218.72 245.11C209.95 245.11 202.84 252.22 202.84 260.99C202.84 269.76 209.95 276.87 218.72 276.87Z" fill="white"/>
<path d="M218.72 277.37C209.69 277.37 202.34 270.02 202.34 260.99C202.34 251.96 209.69 244.61 218.72 244.61C227.75 244.61 235.1 251.96 235.1 260.99C235.11 270.02 227.76 277.37 218.72 277.37ZM218.72 245.6C210.24 245.6 203.34 252.5 203.34 260.98C203.34 269.46 210.24 276.36 218.72 276.36C227.2 276.36 234.1 269.46 234.1 260.98C234.1 252.5 227.21 245.6 218.72 245.6Z" fill="black"/>
<path d="M613.8 232.12C622.57 232.12 629.68 225.01 629.68 216.24C629.68 207.47 622.57 200.36 613.8 200.36C605.03 200.36 597.92 207.47 597.92 216.24C597.92 225.01 605.03 232.12 613.8 232.12Z" fill="white"/>
<path d="M613.8 232.63C604.77 232.63 597.42 225.28 597.42 216.25C597.42 207.22 604.77 199.87 613.8 199.87C622.83 199.87 630.18 207.22 630.18 216.25C630.18 225.28 622.83 232.63 613.8 232.63ZM613.8 200.86C605.32 200.86 598.42 207.76 598.42 216.24C598.42 224.72 605.32 231.62 613.8 231.62C622.28 231.62 629.18 224.72 629.18 216.24C629.18 207.76 622.28 200.86 613.8 200.86Z" fill="black"/>
<path d="M202.84 261.49H164.69C160.82 261.49 157.67 258.34 157.67 254.47V216.24H158.67V254.47C158.67 257.79 161.37 260.49 164.69 260.49H202.84V261.49Z" fill="black"/>
<path d="M158.17 225.18C163.107 225.18 167.11 221.177 167.11 216.24C167.11 211.303 163.107 207.3 158.17 207.3C153.233 207.3 149.23 211.303 149.23 216.24C149.23 221.177 153.233 225.18 158.17 225.18Z" fill="black"/>
<path d="M696.18 72.7L437.45 72.45L265.05 72.7C261.18 72.7 258.03 69.55 258.03 65.68V23.99C258.03 20.67 255.33 17.97 252.01 17.97L0 17.72V16.72L252 16.97C255.87 16.97 259.02 20.12 259.02 23.99V65.68C259.02 69 261.72 71.7 265.04 71.7L437.45 71.45L696.18 71.7V72.7Z" fill="black"/>
<path d="M159.13 150.65H57.73C53.86 150.65 50.71 147.5 50.71 143.63V17.47H51.71V143.63C51.71 146.95 54.41 149.65 57.73 149.65H159.13C162.45 149.65 165.15 146.95 165.15 143.63V111.89C165.15 108.02 168.3 104.87 172.17 104.87L437.45 104.62L696.18 104.91V105.91L437.45 105.62L172.17 105.87C168.85 105.87 166.15 108.57 166.15 111.89V143.63C166.15 147.5 163 150.65 159.13 150.65Z" fill="black"/>
<path d="M276.77 216.99H127.89C125.94 216.99 124.07 216.17 122.74 214.74C121.42 213.31 120.74 211.38 120.89 209.44L120.87 150.14H121.87L121.89 209.47C121.76 211.2 122.33 212.81 123.48 214.05C124.63 215.29 126.2 215.98 127.89 215.98H276.76V216.99H276.77Z" fill="black"/>
<path d="M491.58 271.72H361.24C357.37 271.72 354.22 268.57 354.22 264.7V223.01C354.22 219.69 351.52 216.99 348.2 216.99H267.35V156.67C267.35 152.8 270.5 149.65 274.37 149.65H742.97V118.48L997.83 119.84L997.82 120.84L743.97 119.5V150.66H685.44L685.27 186.4V209.98C685.27 213.85 682.12 217 678.25 217H504.49C502.8 217 501.18 217.71 500.04 218.96C498.9 220.21 498.34 221.88 498.49 223.56L498.57 264.12C498.75 266.04 498.09 267.99 496.76 269.44C495.43 270.89 493.54 271.72 491.58 271.72ZM268.34 215.99H348.19C352.06 215.99 355.21 219.14 355.21 223.01V264.7C355.21 268.02 357.91 270.72 361.23 270.72H491.57C493.26 270.72 494.88 270.01 496.02 268.76C497.16 267.51 497.72 265.84 497.57 264.16L497.49 223.6C497.31 221.68 497.97 219.73 499.3 218.28C500.63 216.83 502.52 215.99 504.48 215.99H678.23C681.55 215.99 684.25 213.29 684.25 209.97V186.38L684.42 150.65H274.36C271.04 150.65 268.34 153.35 268.34 156.67V215.99Z" fill="black"/>
<path d="M51.21 26.41C56.1474 26.41 60.15 22.4075 60.15 17.47C60.15 12.5326 56.1474 8.53003 51.21 8.53003C46.2726 8.53003 42.27 12.5326 42.27 17.47C42.27 22.4075 46.2726 26.41 51.21 26.41Z" fill="black"/>
<path d="M121.37 159.09C126.308 159.09 130.31 155.087 130.31 150.15C130.31 145.213 126.308 141.21 121.37 141.21C116.433 141.21 112.43 145.213 112.43 150.15C112.43 155.087 116.433 159.09 121.37 159.09Z" fill="black"/>
<path d="M267.84 225.43C272.777 225.43 276.78 221.427 276.78 216.49C276.78 211.553 272.777 207.55 267.84 207.55C262.902 207.55 258.9 211.553 258.9 216.49C258.9 221.427 262.902 225.43 267.84 225.43Z" fill="black"/>
<path d="M172.65 33.3501C181.42 33.3501 188.53 26.2404 188.53 17.4701C188.53 8.69981 181.42 1.59009 172.65 1.59009C163.88 1.59009 156.77 8.69981 156.77 17.4701C156.77 26.2404 163.88 33.3501 172.65 33.3501Z" fill="white"/>
<path d="M172.65 33.8601C163.62 33.8601 156.27 26.5101 156.27 17.4801C156.27 8.45009 163.62 1.1001 172.65 1.1001C181.68 1.1001 189.03 8.45009 189.03 17.4801C189.04 26.5101 181.69 33.8601 172.65 33.8601ZM172.65 2.09009C164.17 2.09009 157.27 8.99009 157.27 17.4701C157.27 25.9501 164.17 32.8501 172.65 32.8501C181.13 32.8501 188.03 25.9501 188.03 17.4701C188.04 8.99009 181.13 2.09009 172.65 2.09009Z" fill="black"/>
<path d="M267.84 121.29C276.61 121.29 283.72 114.18 283.72 105.41C283.72 96.6398 276.61 89.53 267.84 89.53C259.07 89.53 251.96 96.6398 251.96 105.41C251.96 114.18 259.07 121.29 267.84 121.29Z" fill="#2C39F2"/>
<path d="M267.84 121.79C258.81 121.79 251.46 114.44 251.46 105.41C251.46 96.38 258.81 89.03 267.84 89.03C276.87 89.03 284.22 96.38 284.22 105.41C284.22 114.44 276.88 121.79 267.84 121.79ZM267.84 90.02C259.36 90.02 252.46 96.92 252.46 105.4C252.46 113.88 259.36 120.78 267.84 120.78C276.32 120.78 283.22 113.88 283.22 105.4C283.22 96.92 276.33 90.02 267.84 90.02Z" fill="black"/>
<path d="M369.03 121.27C377.8 121.27 384.91 114.16 384.91 105.39C384.91 96.6197 377.8 89.51 369.03 89.51C360.26 89.51 353.15 96.6197 353.15 105.39C353.15 114.16 360.26 121.27 369.03 121.27Z" fill="white"/>
<path d="M369.03 121.78C360 121.78 352.65 114.43 352.65 105.4C352.65 96.37 360 89.02 369.03 89.02C378.06 89.02 385.41 96.37 385.41 105.4C385.41 114.43 378.07 121.78 369.03 121.78ZM369.03 90.01C360.55 90.01 353.65 96.91 353.65 105.39C353.65 113.87 360.55 120.77 369.03 120.77C377.51 120.77 384.41 113.87 384.41 105.39C384.41 96.91 377.52 90.01 369.03 90.01Z" fill="black"/>
<path d="M426.12 287.1C434.891 287.1 442 279.99 442 271.22C442 262.45 434.891 255.34 426.12 255.34C417.35 255.34 410.24 262.45 410.24 271.22C410.24 279.99 417.35 287.1 426.12 287.1Z" fill="white"/>
<path d="M426.12 287.61C417.09 287.61 409.74 280.26 409.74 271.23C409.74 262.2 417.09 254.85 426.12 254.85C435.15 254.85 442.5 262.2 442.5 271.23C442.5 280.26 435.15 287.61 426.12 287.61ZM426.12 255.84C417.64 255.84 410.74 262.74 410.74 271.22C410.74 279.7 417.64 286.6 426.12 286.6C434.6 286.6 441.5 279.7 441.5 271.22C441.5 262.74 434.6 255.84 426.12 255.84Z" fill="black"/>
<path d="M207.31 277.12C216.08 277.12 223.19 270.01 223.19 261.24C223.19 252.47 216.08 245.36 207.31 245.36C198.54 245.36 191.43 252.47 191.43 261.24C191.43 270.01 198.54 277.12 207.31 277.12Z" fill="white"/>
<path d="M207.31 277.62C198.28 277.62 190.93 270.27 190.93 261.24C190.93 252.21 198.28 244.85 207.31 244.85C216.34 244.85 223.69 252.2 223.69 261.24C223.69 270.27 216.34 277.62 207.31 277.62ZM207.31 245.85C198.83 245.85 191.93 252.75 191.93 261.24C191.93 269.73 198.83 276.62 207.31 276.62C215.79 276.62 222.69 269.72 222.69 261.24C222.69 252.76 215.79 245.85 207.31 245.85Z" fill="black"/>
<path d="M602.38 232.37C611.15 232.37 618.26 225.26 618.26 216.49C618.26 207.72 611.15 200.61 602.38 200.61C593.61 200.61 586.5 207.72 586.5 216.49C586.5 225.26 593.61 232.37 602.38 232.37Z" fill="#2C39F2"/>
<path d="M602.38 232.88C593.35 232.88 586 225.53 586 216.5C586 207.47 593.35 200.12 602.38 200.12C611.41 200.12 618.76 207.47 618.76 216.5C618.76 225.53 611.42 232.88 602.38 232.88ZM602.38 201.11C593.9 201.11 587 208.01 587 216.49C587 224.97 593.9 231.87 602.38 231.87C610.86 231.87 617.76 224.97 617.76 216.49C617.76 208.01 610.87 201.11 602.38 201.11Z" fill="black"/>
<path d="M191.42 261.74H153.27C149.4 261.74 146.25 258.59 146.25 254.72V216.49H147.25V254.72C147.25 258.04 149.95 260.74 153.27 260.74H191.42V261.74Z" fill="black"/>
<path d="M146.75 225.43C151.687 225.43 155.69 221.427 155.69 216.49C155.69 211.553 151.687 207.55 146.75 207.55C141.813 207.55 137.81 211.553 137.81 216.49C137.81 221.427 141.813 225.43 146.75 225.43Z" fill="black"/>
<path d="M1124.07 238.94H876.83V237.94H1124.06C1127.38 237.94 1130.08 235.24 1130.08 231.92V193.55C1130.08 189.68 1133.23 186.53 1137.1 186.53H1272.42C1275.32 186.53 1277.69 184.17 1277.69 181.26V105.64C1277.69 101.77 1280.84 98.6201 1284.71 98.6201H1435.35V99.6201H1284.71C1281.39 99.6201 1278.69 102.32 1278.69 105.64V181.26C1278.69 184.71 1275.88 187.53 1272.42 187.53H1137.1C1133.78 187.53 1131.08 190.23 1131.08 193.55V231.92C1131.08 235.79 1127.94 238.94 1124.07 238.94Z" fill="black"/>
<path d="M1187.47 187.02H1186.47V128.69C1186.47 125.4 1183.89 122.76 1180.61 122.67L997.81 120.84L997.82 119.84L1180.62 121.67C1184.46 121.77 1187.47 124.85 1187.47 128.69V187.02Z" fill="black"/>
<path d="M1337.41 108.06C1342.35 108.06 1346.35 104.057 1346.35 99.1199C1346.35 94.1825 1342.35 90.1799 1337.41 90.1799C1332.47 90.1799 1328.47 94.1825 1328.47 99.1199C1328.47 104.057 1332.47 108.06 1337.41 108.06Z" fill="black"/>
<path d="M1186.97 195.96C1191.91 195.96 1195.91 191.958 1195.91 187.02C1195.91 182.083 1191.91 178.08 1186.97 178.08C1182.03 178.08 1178.03 182.083 1178.03 187.02C1178.03 191.958 1182.03 195.96 1186.97 195.96Z" fill="black"/>
<path d="M1092.4 139.82C1101.17 139.82 1108.28 132.71 1108.28 123.94C1108.28 115.17 1101.17 108.06 1092.4 108.06C1083.63 108.06 1076.52 115.17 1076.52 123.94C1076.52 132.71 1083.63 139.82 1092.4 139.82Z" fill="white"/>
<path d="M1092.4 140.33C1083.37 140.33 1076.02 132.98 1076.02 123.95C1076.02 114.92 1083.37 107.57 1092.4 107.57C1101.43 107.57 1108.78 114.92 1108.78 123.95C1108.78 132.98 1101.43 140.33 1092.4 140.33ZM1092.4 108.56C1083.92 108.56 1077.02 115.46 1077.02 123.94C1077.02 132.42 1083.92 139.32 1092.4 139.32C1100.88 139.32 1107.78 132.42 1107.78 123.94C1107.78 115.46 1100.88 108.56 1092.4 108.56Z" fill="black"/>
<path d="M884.11 253.8C892.88 253.8 899.99 246.69 899.99 237.92C899.99 229.15 892.88 222.04 884.11 222.04C875.34 222.04 868.23 229.15 868.23 237.92C868.23 246.69 875.34 253.8 884.11 253.8Z" fill="white"/>
<path d="M884.11 254.3C875.08 254.3 867.73 246.95 867.73 237.92C867.73 228.89 875.08 221.54 884.11 221.54C893.14 221.54 900.49 228.89 900.49 237.92C900.49 246.95 893.14 254.3 884.11 254.3ZM884.11 222.53C875.63 222.53 868.73 229.43 868.73 237.91C868.73 246.39 875.63 253.29 884.11 253.29C892.59 253.29 899.49 246.39 899.49 237.91C899.49 229.43 892.59 222.53 884.11 222.53Z" fill="black"/>
<path d="M1092.4 139.82C1101.17 139.82 1108.28 132.71 1108.28 123.94C1108.28 115.17 1101.17 108.06 1092.4 108.06C1083.63 108.06 1076.52 115.17 1076.52 123.94C1076.52 132.71 1083.63 139.82 1092.4 139.82Z" fill="white"/>
<path d="M1092.4 140.33C1083.37 140.33 1076.02 132.98 1076.02 123.95C1076.02 114.92 1083.37 107.57 1092.4 107.57C1101.43 107.57 1108.78 114.92 1108.78 123.95C1108.78 132.98 1101.43 140.33 1092.4 140.33ZM1092.4 108.56C1083.92 108.56 1077.02 115.46 1077.02 123.94C1077.02 132.42 1083.92 139.32 1092.4 139.32C1100.88 139.32 1107.78 132.42 1107.78 123.94C1107.78 115.46 1100.88 108.56 1092.4 108.56Z" fill="black"/>
<path d="M1135.48 238.68H888.25V237.68H1135.48C1138.8 237.68 1141.5 234.98 1141.5 231.66V193.29C1141.5 189.42 1144.65 186.27 1148.52 186.27H1283.84C1286.74 186.27 1289.11 183.91 1289.11 181V105.38C1289.11 101.51 1292.26 98.3599 1296.13 98.3599L1440.01 98.6099V99.6099L1296.13 99.3599C1292.81 99.3599 1290.11 102.06 1290.11 105.38V181C1290.11 184.45 1287.3 187.27 1283.84 187.27H1148.52C1145.2 187.27 1142.5 189.97 1142.5 193.29V231.66C1142.5 235.53 1139.35 238.68 1135.48 238.68Z" fill="black"/>
<path d="M1198.89 186.77H1197.89V128.44C1197.89 125.15 1195.31 122.51 1192.03 122.42L997.82 120.84L997.83 119.84L1192.05 121.42C1195.89 121.52 1198.9 124.6 1198.9 128.44V186.77H1198.89Z" fill="black"/>
<path d="M1348.83 107.81C1353.77 107.81 1357.77 103.807 1357.77 98.8699C1357.77 93.9325 1353.77 89.9299 1348.83 89.9299C1343.89 89.9299 1339.89 93.9325 1339.89 98.8699C1339.89 103.807 1343.89 107.81 1348.83 107.81Z" fill="black"/>
<path d="M1198.39 195.71C1203.33 195.71 1207.33 191.708 1207.33 186.77C1207.33 181.833 1203.33 177.83 1198.39 177.83C1193.45 177.83 1189.45 181.833 1189.45 186.77C1189.45 191.708 1193.45 195.71 1198.39 195.71Z" fill="black"/>
<path d="M1103.81 139.57C1112.58 139.57 1119.69 132.46 1119.69 123.69C1119.69 114.92 1112.58 107.81 1103.81 107.81C1095.04 107.81 1087.93 114.92 1087.93 123.69C1087.93 132.46 1095.04 139.57 1103.81 139.57Z" fill="white"/>
<path d="M1103.81 140.08C1094.78 140.08 1087.43 132.73 1087.43 123.7C1087.43 114.67 1094.78 107.32 1103.81 107.32C1112.84 107.32 1120.19 114.67 1120.19 123.7C1120.19 132.73 1112.85 140.08 1103.81 140.08ZM1103.81 108.31C1095.33 108.31 1088.43 115.21 1088.43 123.69C1088.43 132.17 1095.33 139.07 1103.81 139.07C1112.29 139.07 1119.19 132.17 1119.19 123.69C1119.19 115.21 1112.3 108.31 1103.81 108.31Z" fill="black"/>
<path d="M895.52 253.54C904.29 253.54 911.4 246.43 911.4 237.66C911.4 228.89 904.29 221.78 895.52 221.78C886.75 221.78 879.64 228.89 879.64 237.66C879.64 246.43 886.75 253.54 895.52 253.54Z" fill="#2C39F2"/>
<path d="M895.52 254.05C886.49 254.05 879.14 246.7 879.14 237.67C879.14 228.64 886.49 221.29 895.52 221.29C904.55 221.29 911.9 228.64 911.9 237.67C911.9 246.7 904.56 254.05 895.52 254.05ZM895.52 222.28C887.04 222.28 880.14 229.18 880.14 237.66C880.14 246.14 887.04 253.04 895.52 253.04C904 253.04 910.9 246.14 910.9 237.66C910.9 229.18 904 222.28 895.52 222.28Z" fill="black"/>
<path d="M1103.81 139.57C1112.58 139.57 1119.69 132.46 1119.69 123.69C1119.69 114.92 1112.58 107.81 1103.81 107.81C1095.04 107.81 1087.93 114.92 1087.93 123.69C1087.93 132.46 1095.04 139.57 1103.81 139.57Z" fill="white"/>
<path d="M1103.81 140.08C1094.78 140.08 1087.43 132.73 1087.43 123.7C1087.43 114.67 1094.78 107.32 1103.81 107.32C1112.84 107.32 1120.19 114.67 1120.19 123.7C1120.19 132.73 1112.85 140.08 1103.81 140.08ZM1103.81 108.31C1095.33 108.31 1088.43 115.21 1088.43 123.69C1088.43 132.17 1095.33 139.07 1103.81 139.07C1112.29 139.07 1119.19 132.17 1119.19 123.69C1119.19 115.21 1112.3 108.31 1103.81 108.31Z" fill="black"/>
</svg>
